<svg width="20" height="21" viewBox="0 0 20 21" fill="none" xmlns="http://www.w3.org/2000/svg">
<path d="M7.49935 1.33301V2.99967H12.4993V1.33301H14.166V2.99967H17.4993C17.9596 2.99967 18.3327 3.37277 18.3327 3.83301V17.1663C18.3327 17.6266 17.9596 17.9997 17.4993 17.9997H2.49935C2.03912 17.9997 1.66602 17.6266 1.66602 17.1663V3.83301C1.66602 3.37277 2.03912 2.99967 2.49935 2.99967H5.83268V1.33301H7.49935ZM16.666 9.66634H3.33268V16.333H16.666V9.66634ZM5.83268 4.66634H3.33268V7.99967H16.666V4.66634H14.166V6.33301H12.4993V4.66634H7.49935V6.33301H5.83268V4.66634Z" fill="#FF9A00"/>
</svg>
