<svg width="29" height="29" viewBox="0 0 29 29" fill="none" xmlns="http://www.w3.org/2000/svg">
<path fill-rule="evenodd" clip-rule="evenodd" d="M19.6628 12.4115C19.6628 13.6933 19.1535 14.9227 18.2471 15.8291C17.3407 16.7356 16.1113 17.2448 14.8294 17.2448C13.5475 17.2448 12.3182 16.7356 11.4117 15.8291C10.5053 14.9227 9.99609 13.6933 9.99609 12.4115C9.99609 11.1296 10.5053 9.9002 11.4117 8.99378C12.3182 8.08735 13.5475 7.57813 14.8294 7.57812C16.1113 7.57813 17.3407 8.08735 18.2471 8.99378C19.1535 9.9002 19.6628 11.1296 19.6628 12.4115ZM17.2461 12.4115C17.2461 13.0524 16.9915 13.6671 16.5383 14.1203C16.0851 14.5735 15.4704 14.8281 14.8294 14.8281C14.1885 14.8281 13.5738 14.5735 13.1206 14.1203C12.6674 13.6671 12.4128 13.0524 12.4128 12.4115C12.4128 11.7705 12.6674 11.1558 13.1206 10.7026C13.5738 10.2494 14.1885 9.99479 14.8294 9.99479C15.4704 9.99479 16.0851 10.2494 16.5383 10.7026C16.9915 11.1558 17.2461 11.7705 17.2461 12.4115Z" fill="#FF9A00"/>
<path fill-rule="evenodd" clip-rule="evenodd" d="M7.00109 19.959C5.44335 18.4759 4.3604 16.5641 3.88919 14.4655C3.41798 12.3669 3.57966 10.1756 4.3538 8.1689C5.12794 6.16217 6.47976 4.43006 8.23832 3.19161C9.99688 1.95316 12.0832 1.264 14.2334 1.21128C16.3837 1.15855 18.5012 1.74463 20.3184 2.8954C22.1355 4.04617 23.5706 5.70994 24.4422 7.67633C25.3137 9.64271 25.5826 11.8234 25.2148 13.9426C24.847 16.0618 23.8591 18.0243 22.3759 19.582L14.877 27.458L7.00109 19.959ZM20.6263 17.9158L14.7936 24.042L8.66738 18.2094C7.45587 17.0558 6.61362 15.5689 6.24715 13.9367C5.88067 12.3044 6.00643 10.6002 6.60852 9.03944C7.21061 7.47868 8.26198 6.13151 9.6297 5.16827C10.9974 4.20503 12.62 3.66899 14.2924 3.62793C15.9648 3.58687 17.6117 4.04263 19.0251 4.93759C20.4384 5.83254 21.5547 7.1265 22.2326 8.65583C22.9106 10.1852 23.1198 11.8812 22.8339 13.5294C22.548 15.1777 21.7797 16.7041 20.6263 17.9158Z" fill="#FF9A00"/>
</svg>
