<svg width="43" height="24" viewBox="0 0 43 24" fill="none" xmlns="http://www.w3.org/2000/svg">
<path d="M4.38834 16.2C6.81195 16.2 8.77668 14.1482 8.77668 11.6172C8.77668 9.08624 6.81195 7.03448 4.38834 7.03448C1.96473 7.03448 0 9.08624 0 11.6172C0 14.1482 1.96473 16.2 4.38834 16.2Z" fill="#1D1D1D"/>
<path d="M7.38749 5.87529C7.51748 5.87529 7.64169 5.82497 7.74078 5.73704C9.11344 4.51905 10.8895 3.78268 12.8275 3.78268C14.5306 3.78268 16.1483 4.33985 17.5096 5.39484C18.2296 5.95285 19.2396 5.94834 19.8885 5.30257C20.7225 4.47275 20.6183 3.10464 19.7387 2.41223C17.7339 0.834 15.3439 0 12.8274 0C8.99994 0 5.60504 1.96523 3.51588 4.9791C3.2572 5.35222 3.5186 5.87545 3.95978 5.87545L7.38749 5.87529Z" fill="#1D1D1D"/>
<path d="M28.6183 7.96153C27.8949 7.2402 26.7486 7.26745 26.0575 8.02321C25.6949 8.41974 25.0101 9.31375 23.831 10.8597C21.9933 13.2691 18.9175 17.3014 17.7151 18.3117C16.5381 19.3012 15.131 20.2169 12.8275 20.2169C10.5357 20.2169 8.47118 19.187 7.03194 17.5486C6.92741 17.4296 6.7819 17.3589 6.6271 17.3589H3.4736C3.05115 17.3589 2.78719 17.8423 3.00681 18.2191C5.02442 21.6815 8.67064 23.9998 12.8273 23.9998C16.282 23.9998 18.468 22.5349 19.9861 21.2587C21.3868 20.0815 23.8392 16.9201 26.6642 13.2165C27.522 12.0916 28.4092 10.9284 28.6772 10.6355C29.3679 9.88028 29.3416 8.68302 28.6183 7.96153Z" fill="#1D1D1D"/>
<path d="M36.2269 18.1245C36.097 18.1245 35.9727 18.1749 35.8736 18.2628C34.501 19.4808 32.7249 20.2172 30.7869 20.2172C29.0838 20.2172 27.4663 19.66 26.1048 18.605C25.3848 18.047 24.3749 18.0515 23.7258 18.6974C22.8918 19.5273 22.996 20.8954 23.8756 21.5878C25.8804 23.1658 28.2703 24 30.7869 24C34.6143 24 38.0092 22.0348 40.0984 19.0207C40.3571 18.6476 40.0957 18.1244 39.6545 18.1244L36.2269 18.1245Z" fill="#1D1D1D"/>
<path d="M14.9961 16.0383C15.7195 16.7596 16.8658 16.7324 17.5569 15.9766C17.9194 15.5801 18.6042 14.6861 19.7834 13.1401C21.621 10.7307 24.6969 6.69846 25.8992 5.68809C27.0763 4.69863 28.4834 3.78288 30.7868 3.78288C33.0787 3.78288 35.1432 4.8128 36.5824 6.45121C36.687 6.57024 36.8325 6.64095 36.9873 6.64095H40.1406C40.563 6.64095 40.827 6.1575 40.6074 5.78071C38.5898 2.31832 34.9436 3.47116e-05 30.7868 3.47116e-05C27.3322 3.47116e-05 25.1462 1.46493 23.6281 2.74109C22.2274 3.91828 19.775 7.07977 16.95 10.7834C16.0922 11.9082 15.205 13.0714 14.937 13.3643C14.2465 14.1195 14.2727 15.3168 14.9961 16.0383Z" fill="#1D1D1D"/>
<path d="M34.7071 9.47521C34.7071 8.67805 35.326 8.03183 36.0893 8.03183H41.6179C42.3812 8.03183 43 8.67805 43 9.47521V15.2487C43 16.0459 42.3812 16.6921 41.6179 16.6921H36.0893C35.326 16.6921 34.7071 16.0459 34.7071 15.2487V9.47521Z" fill="#1D1D1D"/>
</svg>
