<svg width="35" height="21" viewBox="0 0 35 21" fill="none" xmlns="http://www.w3.org/2000/svg">
<path d="M3.5719 14.175C5.54461 14.175 7.14381 12.3797 7.14381 10.1651C7.14381 7.95046 5.54461 6.15517 3.5719 6.15517C1.5992 6.15517 0 7.95046 0 10.1651C0 12.3797 1.5992 14.175 3.5719 14.175Z" fill="white"/>
<path d="M6.01308 5.14088C6.11888 5.14088 6.21998 5.09685 6.30064 5.01991C7.41791 3.95417 8.86353 3.30984 10.441 3.30984C11.8272 3.30984 13.144 3.79737 14.252 4.72049C14.8381 5.20875 15.6601 5.2048 16.1883 4.63975C16.8672 3.91365 16.7823 2.71656 16.0664 2.1107C14.4346 0.72975 12.4893 0 10.4409 0C7.32554 0 4.56224 1.71957 2.86176 4.35671C2.65121 4.68319 2.86398 5.14102 3.22307 5.14102L6.01308 5.14088Z" fill="white"/>
<path d="M23.2939 6.96634C22.7051 6.33517 21.7721 6.35902 21.2096 7.02031C20.9145 7.36727 20.3571 8.14953 19.3973 9.50226C17.9015 11.6105 15.3979 15.1387 14.4193 16.0228C13.4612 16.8886 12.3159 17.6898 10.441 17.6898C8.57556 17.6898 6.89515 16.7887 5.72367 15.355C5.63859 15.2509 5.52015 15.189 5.39415 15.189H2.82734C2.4835 15.189 2.26864 15.612 2.44741 15.9417C4.08964 18.9713 7.0575 20.9998 10.4409 20.9998C13.2528 20.9998 15.0321 19.718 16.2678 18.6014C17.4079 17.5714 19.404 14.8051 21.7034 11.5644C22.4017 10.5801 23.1238 9.56237 23.3419 9.3061C23.9041 8.64525 23.8827 7.59765 23.2939 6.96634Z" fill="white"/>
<path d="M29.487 15.859C29.3812 15.859 29.2801 15.903 29.1995 15.9799C28.0822 17.0457 26.6366 17.69 25.0591 17.69C23.6729 17.69 22.3563 17.2025 21.2481 16.2794C20.662 15.7911 19.84 15.7951 19.3117 16.3603C18.6328 17.0863 18.7177 18.2834 19.4336 18.8893C21.0654 20.2701 23.0107 21 25.0591 21C28.1745 21 30.9377 19.2804 32.6382 16.6431C32.8488 16.3167 32.636 15.8588 32.2769 15.8588L29.487 15.859Z" fill="white"/>
<path d="M12.2061 14.0335C12.7949 14.6647 13.728 14.6408 14.2905 13.9795C14.5856 13.6326 15.143 12.8503 16.1027 11.4976C17.5985 9.38938 20.1021 5.86115 21.0808 4.97708C22.0388 4.1113 23.1841 3.31002 25.0591 3.31002C26.9245 3.31002 28.6049 4.2112 29.7764 5.64481C29.8615 5.74896 29.9799 5.81083 30.1059 5.81083H32.6726C33.0164 5.81083 33.2313 5.38781 33.0525 5.05812C31.4103 2.02853 28.4424 3.03726e-05 25.0591 3.03726e-05C22.2472 3.03726e-05 20.4679 1.28181 19.2322 2.39845C18.0921 3.4285 16.096 6.1948 13.7965 9.43545C13.0983 10.4197 12.3762 11.4375 12.1581 11.6937C11.596 12.3546 11.6173 13.4022 12.2061 14.0335Z" fill="white"/>
<path d="M28.25 8.2908C28.25 7.5933 28.7537 7.02785 29.375 7.02785H33.875C34.4963 7.02785 35 7.5933 35 8.2908V13.3426C35 14.0401 34.4963 14.6056 33.875 14.6056H29.375C28.7537 14.6056 28.25 14.0401 28.25 13.3426V8.2908Z" fill="white"/>
</svg>
