<svg width="750" height="500" viewBox="0 0 750 500" fill="none" xmlns="http://www.w3.org/2000/svg">
<path d="M298.772 353.882C298.772 356.69 296.854 358.966 294.487 358.966C292.12 358.966 290.203 356.69 290.203 353.882C290.203 351.074 292.121 348.798 294.487 348.798C296.853 348.798 298.772 351.074 298.772 353.882Z" fill="#272722"/>
<path opacity="0.54" d="M259.828 405.895L329.15 301.868" stroke="#272722" stroke-miterlimit="10"/>
<path opacity="0.54" d="M330.101 405.208L258.877 302.555" stroke="#272722" stroke-miterlimit="10"/>
<path opacity="0.54" d="M352.115 343.746L236.861 364.017" stroke="#272722" stroke-miterlimit="10"/>
<path d="M294.487 422.116C326.245 422.116 351.99 391.567 351.99 353.882C351.99 316.197 326.245 285.648 294.487 285.648C262.729 285.648 236.984 316.197 236.984 353.882C236.984 391.567 262.729 422.116 294.487 422.116Z" stroke="#8574AB" stroke-width="4" stroke-miterlimit="10"/>
<path d="M294.489 419.242C324.91 419.242 349.57 389.979 349.57 353.882C349.57 317.785 324.91 288.522 294.489 288.522C264.069 288.522 239.408 317.785 239.408 353.882C239.408 389.979 264.069 419.242 294.489 419.242Z" stroke="#272722" stroke-miterlimit="10"/>
<path d="M229.347 191.521C229.38 192.633 229.4 193.802 228.883 194.788C228.18 196.129 226.554 196.834 225.047 196.688C223.54 196.542 222.174 195.659 221.185 194.513C220.196 193.367 219.542 191.971 218.994 190.56C218.373 188.963 217.914 187.02 218.937 185.645C219.895 184.357 221.77 184.156 223.344 184.473C225.429 184.893 225.986 184.41 227.362 186.033C228.224 187.049 229.311 190.283 229.347 191.521Z" fill="#E38671"/>
<path d="M333.296 377.312C330.432 363.006 327.161 348.785 324.301 334.477C323.297 329.454 322.261 324.438 321.214 319.424C320.8 317.441 320.384 315.458 319.961 313.476C319.831 312.865 319.701 312.255 319.566 311.645C319.531 311.488 319.369 310.98 319.417 311.021C319.373 310.903 319.353 310.773 319.354 310.635C314.58 299.822 305.046 293.232 293.269 290.194C285.888 288.29 278.243 287.289 271.136 284.535C266.954 282.915 263.007 280.705 258.749 279.299C254.491 277.893 249.721 277.345 245.589 279.088C236.083 283.129 237.341 300.689 244.94 306.131C247.262 307.794 250.027 308.715 252.785 309.458C259.569 311.286 266.547 312.443 273.203 314.731C279.462 316.883 284.555 321.133 291.117 322.501C291.995 322.684 292.924 322.847 293.614 323.42C294.17 323.881 294.5 324.552 294.811 325.204C306.652 350.037 311.904 381.837 326.42 405.208C327.434 406.841 330.409 403.837 332.051 404.837C333.693 405.837 336.025 405.967 337.403 404.626C337.717 404.32 337.955 403.965 338.141 403.581C336.473 394.835 335.045 386.044 333.296 377.312Z" fill="#BD944A"/>
<path d="M365.401 398.644C364.955 397.959 364.263 397.404 363.509 397.068C362.22 396.494 360.77 396.433 359.36 396.38C351.417 396.083 342.881 394.305 335.022 395.408C334.745 395.45 334.346 395.511 333.882 395.589C331.471 396.67 329.025 397.666 326.558 398.609C326.41 398.93 326.372 399.278 326.496 399.658C327.532 402.821 328.215 408.459 330.934 410.709C331.321 411.029 331.869 411.041 332.371 411.036C341.872 410.939 354.613 409.206 362.885 404.221C364.376 403.323 365.929 402.008 365.916 400.267C365.911 399.682 365.717 399.13 365.401 398.644Z" fill="#272722"/>
<path d="M228.859 190.231C228.898 190.223 228.937 190.214 228.976 190.204C227.685 183.49 221.143 180.239 215.172 177.979C210.606 176.25 205.824 174.931 201.692 172.332C200.03 171.287 198.047 169.993 196.275 170.836C195.054 171.417 194.458 172.884 194.511 174.236C194.624 177.117 197.055 179.352 199.524 180.841C202.641 182.721 206.125 183.989 209.721 184.552C214.044 185.229 218.551 186.056 222.459 188.132C224.487 189.209 226.629 190.707 228.859 190.231Z" fill="#E38671"/>
<path d="M96.1861 359.112C91.3111 363.775 96.7361 369.815 100.463 373.341C100.772 373.633 101.107 373.926 101.519 374.034C102.426 374.272 103.279 373.558 103.963 372.917C107.172 369.913 110.77 368.159 114.64 366.075C112.383 360.87 110.46 354.467 107.15 349.859C106.468 350.597 98.9321 356.485 96.1861 359.112Z" fill="#E38671"/>
<path d="M138.087 379.803C133.045 378.58 125.435 378.125 120.422 378.128C120.625 379.112 121.016 388.668 121.55 392.431C122.372 398.228 128.558 398.324 133.471 397.612C136.625 392.997 137.848 385.441 138.087 379.803Z" fill="#E38671"/>
<path d="M150.706 121.654C150.677 121.161 150.646 120.669 150.612 120.177C150.523 118.883 149.609 117.792 148.348 117.49C146.194 116.974 144.24 116.363 142.304 115.008C139.918 113.337 137.585 111.591 135.321 109.758C135.123 109.598 134.899 109.427 134.644 109.44C134.488 109.448 134.345 109.525 134.208 109.6C131.819 110.908 129.43 112.216 127.041 113.524C133.045 117.85 138.887 122.445 144.062 127.737C145.342 129.045 150.946 134.995 150.941 129.65C150.939 126.982 150.861 124.316 150.706 121.654Z" fill="black"/>
<path d="M311.651 417.332L294.488 367.561" stroke="#8574AB" stroke-width="4" stroke-miterlimit="10"/>
<path d="M142.692 209.966C142.569 210.356 142.446 210.746 142.324 211.136C149.537 212.227 156.822 212.833 164.116 212.949C165.502 188.081 159.562 162.935 153.765 138.966C153.675 138.592 153.584 138.218 153.493 137.843C152.721 134.651 151.93 131.41 150.292 128.563C149.822 127.746 149.106 126.874 148.166 126.94C146.646 133.039 145.456 139.221 144.605 145.449C143.889 150.683 142.477 155.427 142.429 160.818C142.33 172.031 144.649 183.102 144.726 194.308C144.761 199.586 144.283 204.912 142.692 209.966Z" fill="black"/>
<path d="M179.569 178.675C183.933 179.761 190.765 183.148 195.119 181.194C196.01 180.794 196.817 180.227 197.562 179.596C199.235 178.18 200.663 176.335 201.045 174.178C201.689 170.537 199.122 168.17 196.09 167.025C191.353 165.236 186.55 163.601 181.784 161.891C178.275 160.632 174.728 159.353 171.621 157.293C166.298 153.763 162.652 148.184 159.999 142.374C158.088 138.19 156.625 133.826 154.998 129.528C153.598 125.83 152.987 123.044 149.656 120.654C145.83 117.909 140.021 117.453 136.658 120.75C134.048 123.308 133.538 127.379 134.126 130.986C134.715 134.593 136.223 137.982 137.094 141.531C138.723 148.171 137.291 154.995 141.811 160.581C146.043 165.81 151.882 169.553 158.063 172.207C164.244 174.861 170.806 176.496 177.334 178.12C178.079 178.304 178.824 178.49 179.569 178.675Z" fill="black"/>
<path d="M157.308 154.881C158.441 160.562 160.395 167.751 161.272 173.479C162.672 174.418 163.387 173.747 164.974 174.415C163.24 167.836 161.088 160.934 158.934 154.356C158.286 152.378 157.745 150.365 157.046 148.398C156.504 146.872 155.894 145.343 155.135 143.91C155.916 147.546 156.578 151.219 157.308 154.881Z" fill="#272722"/>
<path d="M161.736 191.486L169.216 194.288C173.101 195.744 176.024 199.013 177.038 203.036L185.806 237.832" stroke="#272722" stroke-width="2" stroke-miterlimit="10"/>
<path d="M217.264 187.345L227.759 191.422C231.644 192.878 234.568 196.147 235.581 200.17L244.349 234.966" stroke="#272722" stroke-width="2" stroke-miterlimit="10"/>
<path d="M252.35 327.043V294.373H279.642C285.519 294.373 290.283 299.137 290.283 305.014V327.043" stroke="#272722" stroke-width="2" stroke-miterlimit="10"/>
<path d="M248.74 293.315H298.636" stroke="#272722" stroke-width="5" stroke-miterlimit="10"/>
<path d="M276.189 330.537H210.16L180.904 224.016H246.933L276.189 330.537Z" fill="#2C2A27"/>
<path d="M292.11 330.537H206.239C204.635 330.537 203.334 329.236 203.334 327.632V326.454C203.334 324.85 204.635 323.549 206.239 323.549H292.11C293.714 323.549 295.015 324.85 295.015 326.454V327.632C295.015 329.236 293.715 330.537 292.11 330.537Z" fill="#272722"/>
<path d="M312.857 364.117C313.876 362.729 315.359 361.588 316.941 360.719C317.782 360.257 318.745 359.876 319.682 360.083C320.702 360.308 321.467 361.203 321.827 362.183C322.186 363.163 319.889 362.974 319.907 364.018C320.025 370.71 321.373 383.47 321.491 390.163C321.576 395.021 320.31 393.532 316.983 388.42C314.887 385.199 313.978 381.291 313.052 377.613C312.305 374.65 311.742 371.616 311.504 368.567C311.372 366.884 311.918 365.396 312.857 364.117Z" fill="#272722"/>
<path d="M165.683 210.926C165.406 206.635 164.867 197.776 162.906 193.948C159.493 187.286 150.266 188.652 144.567 194.222C137.713 200.92 137.86 215.039 137.744 223.898C137.432 247.765 138.699 271.827 135.095 295.517C133.455 306.295 131.258 318.254 125.787 327.8C120.169 337.602 108.568 345.579 100.496 353.433C99.7528 354.156 105.49 361.493 106.923 363.965C108.127 366.043 109.289 368.147 110.469 370.241C111.766 369.447 112.99 368.508 114.183 367.562C114.834 367.045 115.482 366.524 116.126 365.998C144.466 342.821 161.649 309.757 165.76 273.614C168.124 252.822 167.033 231.807 165.683 210.926Z" fill="#11556B"/>
<path d="M114.184 367.561C118.232 364.213 125.121 358.501 127.89 354.032C128.238 352.517 128.117 350.91 127.979 349.349C127.717 346.385 127.423 343.423 127.098 340.464C126.825 337.975 125.948 332.556 122.28 333.186C118.879 333.77 118.729 339.482 118.329 341.995C117.68 346.073 115.867 350.636 115.558 354.753C115.467 355.969 114.503 364.663 114.184 367.561Z" fill="#272722"/>
<path d="M154.613 220.849C153.846 219.491 153.092 218.124 152.192 216.849C151.99 216.563 151.788 216.273 151.597 215.979C150.882 220.493 151.654 227.086 151.319 231.464C150.973 235.988 150.59 240.509 150.125 245.023C150.586 240.547 152.743 233.256 153.987 228.916C154.597 226.788 155.151 224.645 155.639 222.659C155.296 222.056 154.954 221.452 154.613 220.849Z" fill="#272722"/>
<path d="M139.67 385.725C135.321 385.748 123.419 384.248 119.089 384.658C121.701 384.205 113.131 291.236 112.28 284.743C111.151 276.133 110.022 267.513 109.561 258.841C109.03 248.843 109.392 238.798 110.642 228.865C112.132 217.023 115.195 204.737 123.385 196.056C126.081 193.198 129.606 190.698 133.534 190.774C137.803 190.857 141.52 194.056 143.447 197.867C145.375 201.678 145.847 206.036 146.24 210.288C147.397 222.796 148.141 235.344 148.464 247.901C148.731 258.29 150.157 267.544 149.201 278.116C147.627 295.508 146.769 312.836 144.31 330.159C143.672 334.655 140.839 385.719 139.67 385.725Z" fill="#11556B"/>
<path d="M96.9643 358.246C93.7343 359.496 83.8313 364.375 83.7093 368.48C83.6993 368.809 83.8973 369.105 84.0873 369.374C91.7133 380.208 99.3383 391.042 106.964 401.876C108.665 399.671 108.76 396.652 108.614 393.871C108.375 389.567 107.762 385.293 106.746 381.103C105.528 376.081 106.085 371.523 103.353 366.755C101.588 363.673 99.2693 360.95 96.9643 358.246Z" fill="#272722"/>
<path d="M158.279 182.198C158.255 182.016 158.231 181.834 158.206 181.652C156.536 169.098 154.79 156.555 152.967 144.022C152.687 142.094 152.48 139.836 152.183 137.497C151.532 134.459 150.688 131.462 149.555 128.53C148.897 126.826 147.931 125.509 147.034 123.963C146.897 123.728 146.819 123.441 146.765 123.135C145.755 122.202 144.572 121.445 143.131 120.968C141.103 120.297 139.151 119.578 137.068 119.057C135.483 118.66 133.887 118.261 132.257 118.146C127.66 117.821 123.092 119.624 120.998 123.716C117.512 130.528 112.466 136.339 112.589 144.325C112.648 148.172 113.234 152.057 112.537 155.841C111.623 160.803 108.547 165.316 108.499 170.361C108.437 176.926 113.245 181.302 119.208 182.706C125.438 184.172 129.75 189.6 135.649 192.361C141.184 194.951 147.753 195.95 153.419 193.66C154.808 193.099 156.154 192.321 157.08 191.144C158.994 188.71 158.687 185.266 158.279 182.198Z" fill="white"/>
<path d="M142.702 183.503C143.03 179.918 143.347 176.332 143.838 172.766C144.529 167.739 146.546 163.405 146.983 158.372C147.979 146.892 147.097 135.332 144.59 124.092C144.375 123.126 144.14 122.143 143.62 121.301C142.359 119.26 139.787 118.535 137.447 118.002C132.824 116.949 127.489 116.147 123.751 119.064C118.074 123.494 117.873 135.354 116.66 141.884C115.876 146.107 114.718 150.021 113.281 154.048C112.074 157.43 111.893 160.874 110.55 164.304C107.472 172.164 102.744 179.785 102.645 188.472C102.575 194.614 104.405 200.364 103.529 206.361C103.316 207.819 104.311 209.177 105.76 209.443C112.814 210.737 119.609 212.961 127.107 213.16C131.665 213.281 136.826 213.247 138.646 208.821C140.844 203.474 141.281 196.451 141.966 190.747C142.254 188.338 142.481 185.921 142.702 183.503Z" fill="black"/>
<path d="M129.289 168.229C127.181 163.821 126.33 159.032 126.451 154.162C126.557 149.886 127.312 145.665 127.933 141.437C124.987 143.009 122.869 146.712 120.766 149.131C118.016 152.295 115.123 155.91 114.45 160.178C113.457 166.483 120.85 172.212 125.307 175.341C130.471 178.966 137.634 184.435 143.934 185.273C143.168 184.209 142.299 183.236 141.391 182.297C136.699 178.164 132.031 173.964 129.289 168.229Z" fill="#272722"/>
<path d="M161.616 197.032C163.077 196.663 164.492 196.181 165.774 195.648C167.991 194.726 170.162 194.125 172.568 194.454C171.614 192.144 171.514 191.002 168.968 190.063C161.303 187.235 153.854 191.36 146.159 190.008C144.314 189.684 142.518 189.034 140.646 188.965C138.774 188.896 136.704 189.574 135.822 191.227C134.978 192.807 135.51 194.879 136.761 196.161C138.012 197.444 139.832 198.033 141.618 198.178C143.404 198.324 145.194 198.073 146.978 197.916C151.865 197.485 156.815 198.244 161.616 197.032Z" fill="#E38671"/>
<path d="M146.349 187.159C145.883 186.481 145.269 185.875 144.47 185.358C142.025 183.776 139.366 182.419 137.03 180.676C131.926 176.869 126.698 171.618 125.415 165.154C123.003 153.002 131.15 137.871 134.805 126.548C134.979 126.009 135.152 125.448 135.077 124.887C134.975 124.121 134.435 123.497 133.918 122.922C132.666 121.529 131.414 120.137 130.161 118.744C129.714 118.247 129.235 117.728 128.597 117.528C127.958 117.327 127.266 117.479 126.621 117.661C119.606 119.65 114.052 125.07 109.835 131.019C101.98 142.102 96.6184 156.181 99.7644 169.692C101.56 177.405 107.268 183.748 113.937 188.02C117.905 190.562 122.11 192.769 126.247 195.019C130.284 197.215 137.16 202.58 141.941 201.944C143.75 201.703 145.424 200.6 146.359 199.033C147.265 197.514 147.465 195.688 147.596 193.923C147.787 191.372 147.613 189.001 146.349 187.159Z" fill="black"/>
<path d="M147.035 123.963C146.356 122.794 146.867 120.534 146.94 119.207C147.013 117.894 147.121 116.577 147.311 115.277C147.492 113.52 147.844 111.769 148.332 110.037C149.728 105.079 153.988 105.919 156.036 102.018C157.338 99.5379 157.673 96.5099 157.057 93.7889C156.323 90.5479 156.958 87.4569 154.605 85.1559C150.481 81.1229 144.128 80.7289 140.038 85.2129C138.612 86.7769 137.723 88.7259 137.031 90.7439C136.821 91.3559 136.629 91.9749 136.446 92.5899C135.318 96.3829 134.418 100.244 133.755 104.145C132.946 108.898 132.36 114.01 129.24 117.686C128.813 118.112 133.637 122.053 133.959 122.333C135.916 124.033 137.941 125.773 140.398 126.597C142.855 127.422 145.881 127.113 147.59 125.164C147.624 125.125 147.651 125.079 147.684 125.038C147.468 124.687 147.249 124.332 147.035 123.963Z" fill="#E38671"/>
<path d="M127.976 103.624C128.787 106.994 130.922 113.221 135.046 108.967C137.329 106.611 138.141 102.926 139.291 99.9909C139.856 98.5489 140.586 94.6709 142.445 94.2089C143.153 94.0329 143.902 94.3319 144.624 94.2269C145.817 94.0529 146.599 92.8119 146.736 91.6149C146.889 90.2809 146.486 88.7929 147.232 87.6769C148.889 85.1979 154.682 87.2989 157.179 86.8719C157.116 85.6959 156.674 84.5759 155.989 83.6149C155.478 82.8979 154.832 82.2699 154.109 81.7729C145.867 76.1109 133.443 80.8929 129.299 89.3039C127.121 93.7229 126.833 98.8739 127.976 103.624Z" fill="#2C2A27"/>
<path d="M144.74 96.0249C145.11 97.8579 144.311 99.8929 142.689 101.293C141.937 101.942 140.878 102.325 139.933 102.019C136.378 100.868 137.706 95.0369 139.947 93.2609C140.419 92.8869 140.996 92.5779 141.596 92.6359C141.958 92.6709 142.294 92.8379 142.6 93.0339C143.824 93.8179 144.509 94.8829 144.74 96.0249Z" fill="#E38671"/>
<path d="M142.681 95.7428C142.554 95.2978 141.986 95.0988 141.543 95.2338C141.1 95.3688 140.772 95.7418 140.517 96.1278C140.15 96.6838 139.874 97.3388 139.948 98.0008C140.023 98.6628 140.537 99.3048 141.202 99.3468" fill="#2C2A27"/>
<path d="M138.992 84.061C140.012 84.659 141.306 84.763 142.408 84.337L138.992 84.061Z" fill="#FF9A00"/>
<path d="M132.78 96.1689C133.329 96.8799 133.543 97.8399 133.347 98.7169C133.214 99.3139 133.123 99.3059 132.699 99.7459" fill="#FF9A00"/>
<path d="M139.117 89.2428C140.644 89.3978 142.219 89.0388 143.528 88.2368L139.117 89.2428Z" fill="#FF9A00"/>
<path d="M155.632 83.2739C155.227 84.5409 153.907 85.4509 152.578 85.3799L155.632 83.2739Z" fill="#FF9A00"/>
<mask id="mask0_2099_962" style="mask-type:luminance" maskUnits="userSpaceOnUse" x="130" y="81" width="28" height="43">
<path d="M136.98 90.7259C140.556 83.4539 147.024 77.7409 154.604 85.1559C156.957 87.4569 156.322 90.5479 157.056 93.7889C157.672 96.5099 157.337 99.5379 156.035 102.018C153.987 105.919 149.728 105.078 148.331 110.037C147.432 113.228 146.528 116.583 147.268 119.815C147.364 120.234 147.485 120.685 147.313 121.079C147.211 121.314 147.015 121.496 146.817 121.659C144.413 123.635 140.968 123.836 137.925 123.181C135.975 122.761 133.641 122.049 132.032 120.817C129.527 118.898 130.646 118.161 131.638 115.45C133.435 110.538 133.511 105.215 134.108 100.076C134.434 97.2879 135.438 93.8619 136.98 90.7259Z" fill="white"/>
</mask>
<g mask="url(#mask0_2099_962)">
<path d="M153.67 104.902C152.712 105.516 151.562 105.784 150.424 105.815C149.287 105.846 148.155 105.651 147.045 105.397C147.313 106.434 148.047 107.322 148.971 107.863C149.895 108.404 150.994 108.611 152.062 108.539" fill="#2C2A27"/>
</g>
<path d="M154.118 93.5359C153.978 95.0379 154.987 96.5699 156.422 97.0349L154.118 93.5359Z" fill="#2C2A27"/>
<path d="M152.07 214.658C151.447 234.944 146.751 316.605 143.387 336.62" stroke="#272722" stroke-width="0.75" stroke-miterlimit="10"/>
<path d="M121.002 390.426C120.863 390.429 120.723 390.432 120.584 390.436C120.11 390.447 121.197 402.842 121.351 403.992C121.402 404.37 121.478 404.79 121.791 405.019C122.048 405.207 122.395 405.212 122.716 405.21C135.548 405.118 148.379 405.025 161.211 404.933C160.394 402.426 158.043 400.728 155.748 399.346C152.515 397.398 149.113 395.718 145.59 394.328C142.407 393.072 138.638 391.302 135.306 390.622C134.343 390.425 133.353 390.405 132.37 390.389C128.581 390.329 124.791 390.341 121.002 390.426Z" fill="#272722"/>
<path d="M144.087 391.169C144.493 392.483 144.199 393.993 143.329 395.058C142.459 396.124 141.039 396.714 139.67 396.579" fill="#FF9A00"/>
<path d="M147.837 393.792C148.165 394.847 147.927 396.058 147.224 396.913C146.521 397.768 145.373 398.242 144.266 398.133" fill="#FF9A00"/>
<path d="M141.168 389.596C141.651 390.93 141.023 392.501 139.9 393.367C138.776 394.233 137.264 394.47 135.857 394.291" fill="#FF9A00"/>
<path d="M101.309 377.767C102.964 380.172 106.634 380.884 109.069 379.274L101.309 377.767Z" fill="#FF9A00"/>
<path d="M102.631 382.506C104.712 384.125 107.972 383.966 109.884 382.15L102.631 382.506Z" fill="#FF9A00"/>
<path d="M104.426 385.962C105.81 387.432 108.41 387.507 109.877 386.119L104.426 385.962Z" fill="#FF9A00"/>
<path d="M145.275 127.607C144.779 125.801 143.974 124.111 142.671 122.692C139.455 119.188 134.153 118.569 130.44 115.563C130.242 115.402 130.018 115.232 129.763 115.245C129.607 115.253 129.464 115.33 129.327 115.405C126.938 116.713 124.549 118.021 122.16 119.329C128.164 123.655 134.006 128.25 139.181 133.542C140.46 134.85 146.065 140.8 146.06 135.455C146.059 132.896 145.97 130.138 145.275 127.607Z" fill="black"/>
<path d="M321.068 405.61C324.301 401.054 321.466 389.459 320.163 384.592C317.35 374.084 314.537 363.576 311.724 353.067C311.237 351.248 310.746 349.398 310.8 347.515C310.859 345.461 311.561 343.489 312.08 341.5C314.924 330.606 311.862 317.836 304.683 309.151C304.408 308.818 304.124 308.493 303.832 308.174C300.04 304.041 294.812 301.565 289.662 299.343C272.939 292.13 255.444 286.514 237.424 283.873C229.386 282.695 223.314 284.533 219.325 291.924C215.825 298.409 216.243 306.823 220.369 312.929C221.859 315.133 223.77 316.927 225.936 318.411H288.546C288.546 324.255 288.546 330.099 288.546 335.942C288.546 339.986 288.585 344.032 288.546 348.076C288.491 353.709 291.147 356.596 293.345 361.748C297.115 370.584 300.171 379.784 303.943 388.663C305.517 392.367 307.091 396.072 308.665 399.776C309.558 401.877 310.498 404.046 312.187 405.581C315.483 408.576 318.671 408.988 321.068 405.61Z" fill="#D1AD6D"/>
<path d="M335.677 348.179C333.32 340.519 330.963 332.86 328.606 325.2C325.802 316.087 322.968 306.904 318.414 298.528C312.499 287.65 304.789 280.245 292.932 276.947C280.138 273.388 266.236 273.234 253.876 268.234C248.883 266.214 244.263 263.327 239.19 261.516C234.117 259.705 228.265 259.076 223.495 261.576C219.291 263.78 216.586 268.048 214.597 272.358C214 273.652 213.415 275.018 212.862 276.434C210.221 283.202 208.302 291.141 209.14 298.039C209.897 304.268 210.491 313.202 214.865 318.047C217.842 321.345 222.281 322.788 226.639 323.81H276.089V325.887H277.335V328.739C277.503 328.849 277.68 328.944 277.84 329.066C283.54 333.399 283.476 345.535 284.829 351.982C286.934 362.012 289.039 372.042 291.144 382.073C290.739 380.144 332.459 369.214 336.101 366.99C343.127 362.698 337.824 355.156 335.677 348.179Z" fill="#FF9A00"/>
<path d="M139.936 201.676C127.687 198.905 113.515 187.04 104.824 179.892" stroke="#272722" stroke-width="0.75" stroke-miterlimit="10"/>
<path d="M151.975 99.5588C152.565 100.949 154.661 101.382 155.753 100.339L151.975 99.5588Z" fill="white"/>
<path d="M181.971 222.609L208.241 323.549" stroke="#272722" stroke-width="2" stroke-miterlimit="10"/>
<path opacity="0.13" d="M78.5675 405.11C116.86 413.152 155.393 419.883 194.007 425.28C214.093 428.087 234.139 431.642 254.253 433.945C259.885 434.59 305.842 440.571 298.146 431.159C289.785 420.942 256.6 416.026 243.369 414.029C208.976 408.838 174.551 404.816 140.111 400.738C123.61 398.784 107.091 396.423 90.5885 394.787C85.3265 394.265 69.2095 390.893 66.9145 396.08C64.8445 400.755 73.8135 404.111 78.5675 405.11Z" fill="#20232F"/>
<path d="M141.943 289.633C142.914 292.938 141.881 296.749 139.373 299.111L141.943 289.633Z" fill="#272722"/>
<path d="M252.213 241.006C252.471 241.959 252.869 242.843 253.477 243.611C255.396 246.036 259.019 246.407 262.001 245.59C264.983 244.773 267.613 243.02 270.467 241.832C271.772 241.288 273.261 240.864 274.576 241.384C275.29 241.666 275.872 242.199 276.416 242.741C279.65 245.968 282.069 250.323 279.349 254.759C277.873 257.165 275.398 258.785 272.855 260.01C266.396 263.123 258.939 264.162 251.894 262.832C248.792 262.246 245.699 261.171 243.296 259.123C238.527 255.058 239.11 247.449 239.04 241.728C238.956 234.781 239.676 227.86 240.227 220.945C240.394 218.85 240.854 216.288 242.85 215.631C244.848 214.973 246.774 216.797 247.888 218.582C250.373 222.564 251.388 227.099 251.733 231.73C251.939 234.51 251.418 238.079 252.213 241.006Z" fill="#6B3F3F"/>
<path d="M244.734 255.102C244.79 248.932 243.13 242.67 243.287 236.502C243.448 230.171 244.219 223.973 242.838 217.654C242.414 215.713 241.778 213.8 240.788 212.085C239.385 215.109 238.274 218.257 237.552 221.531C237.516 221.692 237.45 221.818 237.374 221.931C236.384 231.62 237.803 241.434 238.434 251.1C238.611 253.803 238.86 256.501 239.169 259.193C239.369 260.94 238.913 264.888 241.724 263.976C243.222 263.49 243.889 261.766 244.214 260.225C244.57 258.529 244.718 256.819 244.734 255.102Z" fill="#FFD385"/>
<path d="M247.962 254.864C246.895 248.7 246.192 242.227 246.346 236.2C246.507 229.869 247.278 223.671 245.897 217.352C245.394 215.047 244.624 212.762 243.271 210.828C239.123 204.901 231.57 207.327 225.701 209.103C221.98 210.23 218.256 211.513 214.999 213.636C205.002 220.151 199.077 233.619 197.796 245.107C196.177 259.627 200.831 272.713 205.235 286.111C205.397 286.603 207.538 294.318 208.285 294.191C209.138 294.017 209.991 293.841 210.843 293.66C216.451 292.466 222 290.93 227.136 288.33C232.376 285.678 238.321 282.796 243.019 278.778C241.242 269.517 239.766 260.243 239.149 250.799C238.459 240.235 237.791 229.943 237.962 218.21C237.984 216.706 240.87 218.189 240.667 219.664C239.246 229.99 240.818 240.478 241.493 250.8C242.069 259.61 243.41 268.266 245.04 276.905C245.853 276.073 251.986 266.796 252.474 267.234C250.577 265.53 249.583 263.028 249.055 260.532C248.665 258.688 248.295 256.791 247.962 254.864Z" fill="#824D4D"/>
<path d="M163.162 198.336C163.581 198.807 164.051 199.229 164.575 199.585C166.245 200.719 168.52 201.075 170.32 200.161C171.618 199.502 172.577 198.213 172.834 196.781C173.624 192.385 169.569 190.288 165.655 190.543C164.082 190.646 162.52 191.086 161.514 192.376C161.21 192.766 160.94 193.213 160.912 193.707C160.893 194.059 160.998 194.405 161.115 194.737C161.575 196.046 162.247 197.307 163.162 198.336Z" fill="#E38671"/>
<path d="M126.087 162.286C125.302 155.26 127.393 148.267 129.459 141.506" stroke="#272722" stroke-width="0.75" stroke-miterlimit="10"/>
<path d="M142.676 167.027C142.579 166.729 142.413 166.471 142.179 166.253C142.017 166.128 141.854 166.002 141.692 165.877C141.317 165.66 140.912 165.55 140.478 165.549C140.265 165.578 140.052 165.606 139.838 165.635C139.43 165.749 139.077 165.955 138.777 166.254C138.673 166.358 138.569 166.462 138.465 166.566C138.231 166.784 138.065 167.042 137.968 167.34C137.817 167.627 137.748 167.936 137.761 168.267C137.748 168.598 137.818 168.907 137.968 169.194C138.065 169.492 138.231 169.75 138.465 169.968C138.627 170.093 138.79 170.219 138.952 170.344C139.327 170.562 139.732 170.671 140.166 170.672C140.379 170.643 140.592 170.615 140.805 170.586C141.213 170.472 141.566 170.266 141.866 169.967L142.178 169.655C142.413 169.437 142.578 169.179 142.675 168.881C142.825 168.594 142.895 168.286 142.882 167.954C142.896 167.622 142.827 167.313 142.676 167.027Z" fill="#272722"/>
<path d="M142.347 154.334C139.251 154.334 139.246 159.145 142.347 159.145C145.443 159.145 145.448 154.334 142.347 154.334Z" fill="#272722"/>
<path d="M121.26 107.293C117.507 108.698 113.841 110.538 110.952 113.316C108.063 116.094 106.011 119.914 106.014 123.922C106.015 126.054 106.675 128.303 108.307 129.676C109.802 130.935 111.915 131.274 113.843 130.957C115.772 130.64 117.552 129.735 119.229 128.73C126.025 124.658 133.299 118.423 133.628 109.914C133.662 109.041 133.618 108.133 133.218 107.356C131.485 103.993 123.887 106.309 121.26 107.293Z" fill="#2C2A27"/>
<path d="M135.171 109.686C135.335 109.891 135.502 110.117 135.519 110.379C135.547 110.802 135.153 111.161 134.736 111.237C134.319 111.313 133.894 111.177 133.501 111.019C131.242 110.112 129.307 108.419 128.108 106.3C126.392 103.266 128.997 104.474 130.026 105.176C131.576 106.234 133.998 108.221 135.171 109.686Z" fill="#FF9A00"/>
<path d="M223.371 199.109C223.28 199.704 223.596 200.339 224.125 200.626C224.654 200.912 225.359 200.829 225.807 200.427" fill="white"/>
<path d="M227.079 187.786C227.6 189.06 227.433 190.592 226.65 191.724L227.079 187.786Z" fill="white"/>
<path d="M233.715 194.46C233.367 194.369 233.124 194.798 233.033 195.146C232.716 196.352 232.567 197.603 232.593 198.85C232.602 199.274 232.701 199.795 233.106 199.921" fill="white"/>
<path d="M250.691 286.76C254.956 282.721 260.441 284.735 265.345 286.211C271.246 287.988 276.332 287.253 282.379 286.643C285.73 286.305 289.915 289.292 287.784 293.111C287.324 293.935 286.595 294.574 285.839 295.139C284.939 295.812 283.975 296.406 282.939 296.84C276.106 299.694 268.461 296.041 261.452 298.544C257.196 300.064 248.377 300.62 247.534 294.167C247.259 292.058 248.066 289.909 249.37 288.229C249.803 287.671 250.244 287.183 250.691 286.76Z" fill="#E38671"/>
<path d="M283.584 248.682C283.536 248.701 283.487 248.721 283.439 248.74C280.727 249.841 278.276 251.571 275.47 252.405C274.276 252.76 272.977 252.943 271.792 252.555C270.608 252.167 269.586 251.087 269.588 249.84C269.59 248.381 270.218 246.822 271.179 245.738C273.662 242.939 278.304 243.906 280.749 241.062C281.124 240.626 281.364 240.093 281.67 239.606C282.139 238.861 282.762 238.228 283.38 237.601C285.903 235.042 289.68 232.16 293.453 232.305C295.758 232.394 295.21 235.481 295.313 237.134C295.348 237.704 295.384 238.279 295.318 238.846C295.09 240.818 293.762 242.374 292.367 243.681C290.948 245.01 289.618 246.336 287.797 247.132C286.426 247.732 284.975 248.13 283.584 248.682Z" fill="#E38671"/>
<path d="M208.664 235.914C206.679 245.85 205.289 256.066 206.695 266.1C208.101 276.135 212.589 286.066 220.576 292.3C226.514 296.934 233.999 299.254 241.489 300.055C247.566 300.704 257.602 302.182 263.323 299.444C268.994 296.73 268.938 289.352 265.168 285.097C261.256 280.682 254.908 279.102 249.462 277.592C244.791 276.297 240.01 274.685 236.504 271.338C234.042 268.987 232.367 265.91 231.222 262.704C227.911 253.432 228.839 243.274 228.276 233.444C228.137 231.018 227.824 228.406 226.174 226.623C224.392 224.697 221.405 224.259 218.878 224.968C213.352 226.519 209.753 230.464 208.664 235.914Z" fill="#6B3F3F"/>
<path d="M268.155 242.796C269.311 242.241 270.469 241.69 271.63 241.144C273.844 240.102 276.046 239.193 278.518 240.142C281.681 241.357 284.991 246.967 284.502 250.343C283.871 254.696 279.472 257.352 275.443 259.119C272.073 260.598 266.768 263.367 263.377 260.581C259.924 257.745 258.022 250.127 261.39 246.524C262.107 245.757 263.07 245.274 264.012 244.81C265.389 244.132 266.771 243.461 268.155 242.796Z" fill="#6B3F3F"/>
<path d="M226.972 362.972C231.203 362.972 234.633 358.902 234.633 353.882C234.633 348.862 231.203 344.792 226.972 344.792C222.74 344.792 219.311 348.862 219.311 353.882C219.311 358.902 222.74 362.972 226.972 362.972Z" fill="#272722"/>
<path d="M172.139 378.989L282.053 329.741" stroke="#272722" stroke-miterlimit="10"/>
<path d="M227.553 421.738L226.391 286.025" stroke="#272722" stroke-miterlimit="10"/>
<path d="M276.831 391.522L177.113 316.241" stroke="#272722" stroke-miterlimit="10"/>
<path d="M226.972 422.116C258.73 422.116 284.475 391.567 284.475 353.882C284.475 316.197 258.73 285.648 226.972 285.648C195.214 285.648 169.469 316.197 169.469 353.882C169.469 391.567 195.214 422.116 226.972 422.116Z" stroke="#8574AB" stroke-width="4" stroke-miterlimit="10"/>
<path d="M226.972 419.242C257.392 419.242 282.053 389.979 282.053 353.882C282.053 317.785 257.392 288.522 226.972 288.522C196.551 288.522 171.891 317.785 171.891 353.882C171.891 389.979 196.551 419.242 226.972 419.242Z" stroke="#272722" stroke-miterlimit="10"/>
<path d="M350.852 404.829C350.382 403.979 349.598 403.267 348.736 402.794C346.321 401.466 343.407 401.605 340.651 401.571C337.392 401.532 333.746 401.423 330.593 400.521C328.558 399.939 325.276 397.65 323.122 398.194C318.32 399.406 313.211 400.086 308.957 402.542C310.068 406.057 311.482 409.476 313.211 412.733C313.616 413.496 314.082 414.294 314.806 414.741C314.888 414.792 314.973 414.838 315.061 414.879C315.789 415.216 316.63 415.152 317.429 415.077C323.712 414.484 329.966 413.584 336.162 412.383C339.119 411.81 351.225 411.005 351.309 406.576C351.32 405.954 351.148 405.364 350.852 404.829Z" fill="#824D4D"/>
<path d="M360.091 408.125L308.576 419.241" stroke="#272722" stroke-width="4" stroke-miterlimit="10" stroke-linecap="round"/>
<path d="M237.33 183.126C238.342 180.954 239.567 178.881 241.347 177.303C244.106 174.856 247.85 173.906 251.422 174.873C254.143 175.61 259.158 178.548 259.784 181.582C260.102 183.123 259.868 184.718 259.634 186.274C259.302 188.476 258.97 190.678 258.639 192.88C258.415 194.368 258.186 195.874 257.599 197.26C257.012 198.646 256.018 199.92 254.642 200.528C251.647 201.852 249.015 202.664 247.669 206.028C246.706 208.437 245.945 210.952 245.582 213.525C245.321 215.375 246.301 219.509 245.592 220.982C244.106 224.068 238.112 223.766 235.529 222.602C232.584 221.275 230.513 218.594 228.567 216.015C227.523 214.631 226.478 213.247 225.434 211.863C228.966 207.552 230.585 203.016 232.077 197.713C233.282 193.432 234.746 189.224 236.457 185.119C236.735 184.454 237.023 183.786 237.33 183.126Z" fill="#E38671"/>
<path d="M247.565 187.933C248.201 187.111 248.516 186.094 248.899 185.128C249.282 184.162 249.783 183.182 250.648 182.607C251.651 181.941 252.941 181.945 254.145 181.972C256.368 182.023 261.638 183.255 261.916 179.766C262.001 178.698 261.471 177.654 260.722 176.888C258.418 174.531 254.679 174.69 251.444 174.062C248.368 173.465 245.509 172.035 242.453 171.341C237.981 170.325 234.401 171.566 231.887 175.366C231.445 176.035 231.09 176.776 230.511 177.331C229.5 178.301 228.014 178.524 226.657 178.874C225.074 179.282 223.524 179.94 222.3 181.024C221.076 182.108 220.206 183.657 220.184 185.292C220.171 186.279 220.746 187.123 220.579 188.07C220.406 189.056 219.435 189.911 218.629 190.402C217.436 191.128 216.043 191.568 215.054 192.554C213.901 193.704 213.493 195.459 213.71 197.073C213.927 198.687 214.701 200.178 215.634 201.513C217.614 204.345 220.526 206.693 223.936 207.246C227.012 207.745 230.223 206.718 232.709 204.838C235.195 202.959 237.004 200.29 238.242 197.429C239.034 195.598 239.626 193.646 240.812 192.041C241.662 190.891 242.808 189.966 244.101 189.357C245.225 188.83 246.787 188.939 247.565 187.933Z" fill="#8574AB"/>
<path d="M245.317 189.945C245.513 192.037 244.379 194.217 242.4 195.589C241.483 196.225 240.254 196.527 239.234 196.073C235.587 194.449 237.149 188.359 240.208 186.988C241.04 186.615 242.021 186.629 242.875 186.95C244.224 187.458 245.182 188.501 245.317 189.945Z" fill="#E38671"/>
<path d="M242.662 189.935C242.573 189.422 241.962 189.132 241.451 189.231C240.94 189.329 240.529 189.707 240.198 190.108C239.721 190.685 239.335 191.385 239.34 192.134C239.345 192.883 239.843 193.662 240.581 193.787" fill="#2C2A27"/>
<mask id="mask1_2099_962" style="mask-type:luminance" maskUnits="userSpaceOnUse" x="226" y="174" width="34" height="47">
<path d="M237.274 183.101C242.134 175.399 250.04 169.782 257.632 178.969C259.988 181.82 258.911 185.199 259.347 188.908C259.713 192.022 258.979 195.366 257.229 197.983C254.477 202.099 249.817 200.654 247.667 206.029C246.284 209.488 244.874 213.131 245.318 216.83C245.375 217.309 245.457 217.828 245.218 218.248C245.076 218.499 244.836 218.678 244.595 218.837C241.673 220.76 237.8 220.576 234.477 219.482C232.347 218.781 229.823 217.708 228.173 216.14C225.601 213.698 226.94 213.007 228.37 210.096C230.961 204.819 231.679 198.881 232.956 193.208C233.649 190.131 235.179 186.422 237.274 183.101Z" fill="white"/>
</mask>
<g mask="url(#mask1_2099_962)">
<path d="M254.245 200.926C253.101 201.498 251.784 201.662 250.509 201.561C249.234 201.461 247.992 201.108 246.783 200.693C246.959 201.883 247.674 202.964 248.642 203.678C249.61 204.392 250.814 204.754 252.016 204.8" fill="#2C2A27"/>
</g>
<path d="M234.621 177.641C235.318 178.599 236.6 179.093 237.76 178.849L234.621 177.641Z" fill="white"/>
<path d="M245.111 185.249C245.946 184.744 246.637 184.003 247.08 183.134L245.111 185.249Z" fill="white"/>
<path d="M252.16 177.607C253.172 178.748 255.093 178.925 256.296 177.988L252.16 177.607Z" fill="white"/>
<path d="M251.073 192.364C253.076 192.364 254.699 190.544 254.699 188.298C254.699 186.052 253.076 184.232 251.073 184.232C249.071 184.232 247.447 186.052 247.447 188.298C247.447 190.544 249.071 192.364 251.073 192.364Z" stroke="#272722" stroke-width="0.75" stroke-miterlimit="10"/>
<path d="M264.313 188.298C264.313 190.543 262.69 192.364 260.687 192.364C258.685 192.364 257.061 190.544 257.061 188.298C257.061 186.052 258.684 184.232 260.687 184.232C262.689 184.232 264.313 186.053 264.313 188.298Z" stroke="#272722" stroke-width="0.75" stroke-miterlimit="10"/>
<path d="M254.699 188.298H257.06" stroke="#272722" stroke-width="0.75" stroke-miterlimit="10"/>
<path opacity="0.24" d="M252.196 193.318C250.477 193.845 249.112 195.386 248.797 197.156L252.196 193.318Z" fill="#2C2A27"/>
<path d="M255.683 190.143C255.484 191.512 255.765 192.947 257.061 193.237L255.683 190.143Z" fill="#2C2A27"/>
<path d="M251.834 198.982C252.779 198.019 254.349 197.736 255.57 198.309L251.834 198.982Z" fill="#2C2A27"/>
<path d="M224.149 183.322C223.467 183.673 223.216 184.566 223.37 185.318C223.524 186.07 223.991 186.713 224.447 187.331" fill="white"/>
<path d="M232.675 190.487C232.913 191.994 232.352 193.604 231.229 194.637L232.675 190.487Z" fill="white"/>
<path d="M222.605 202.581C222.955 203.35 223.722 203.913 224.559 204.017C225.397 204.121 226.278 203.764 226.806 203.105" fill="white"/>
<path d="M230.5 353.882C230.5 356.194 228.92 358.069 226.971 358.069C225.022 358.069 223.443 356.194 223.443 353.882C223.443 351.57 225.023 349.695 226.971 349.695C228.92 349.695 230.5 351.569 230.5 353.882Z" fill="#8574AB"/>
<path d="M294.988 242.187H287.157L285.703 222.414H298.001L296.681 240.373C296.606 241.399 295.871 242.187 294.988 242.187Z" fill="#FFD385"/>
<path d="M284.551 222.414H299.633" stroke="#272722" stroke-width="0.75" stroke-miterlimit="10"/>
<path d="M290.532 235.985C291.063 235.779 291.733 235.595 292.148 235.986C292.485 236.304 292.457 236.875 292.211 237.268C291.965 237.661 291.557 237.918 291.163 238.162C289.643 239.102 288.124 240.042 286.604 240.982C284.534 242.262 283.278 240.029 284.63 238.436C285.728 237.14 288.998 236.58 290.532 235.985Z" fill="#E38671"/>
<path d="M253.465 194.493C254.345 195.798 256.474 195.994 257.577 194.87L253.465 194.493Z" fill="white"/>
<path d="M237.79 222.414C235.803 213.3 229.907 208.558 227.013 208.707C224.396 208.842 215.907 210.098 218.333 213.641C220.62 216.98 226.016 220.373 228.865 223.248C230.322 224.718 231.882 225.862 233.582 226.98C234.352 227.487 237.907 230.206 237.805 231.195C238.146 227.884 238.51 225.715 237.79 222.414Z" fill="#824D4D"/>
<path d="M245.969 212.2C242.444 216.134 238.078 225.233 240.823 232.431C242.224 229.484 244.839 224.947 248 223.474C248.221 223.371 248.462 223.297 248.707 223.256C250 223.042 251 221.967 250.851 220.665C250.476 217.361 248.414 214.736 245.969 212.2Z" fill="#824D4D"/>
<path d="M250.125 223.288C245.661 224.644 244.152 228.25 242.66 232.671" stroke="#272722" stroke-width="0.75" stroke-miterlimit="10"/>
<path d="M223.391 220.873C230.285 223.418 233.998 225.739 237.987 231.912" stroke="#272722" stroke-width="0.75" stroke-miterlimit="10"/>
<path d="M206.773 247.533C204.733 258.386 205.964 269.832 210.266 280.002" stroke="#272722" stroke-width="0.75" stroke-miterlimit="10"/>
<path d="M232.16 265.155C234.541 269.537 237.913 273.738 242.639 275.329" stroke="#272722" stroke-width="0.75" stroke-miterlimit="10"/>
<path opacity="0.13" d="M416.476 419.927C455.373 424.174 494.381 427.093 533.337 428.676C553.601 429.499 573.899 431.07 594.142 431.389C599.81 431.478 646.132 432.923 637.55 424.311C628.227 414.963 594.72 413.326 581.356 412.636C546.62 410.844 511.967 410.219 477.293 409.538C460.68 409.212 444.009 408.482 427.426 408.473C422.138 408.47 405.768 406.694 403.992 412.082C402.393 416.94 411.647 419.4 416.476 419.927Z" fill="#20232F"/>
<path d="M631.557 125.619C632.409 121.862 631.714 117.579 628.624 115.279C627.46 114.412 625.932 113.832 624.556 114.294C623.44 114.669 622.645 115.649 622.006 116.638C619.602 120.36 618.528 124.922 619.018 129.325C619.196 130.925 619.627 132.599 620.794 133.708C625.587 138.265 629.309 135.534 631.557 125.619Z" fill="#8574AB"/>
<path d="M649.414 279.509L651.851 259.692C652.575 253.806 657.886 249.588 663.783 250.217C669.305 250.805 673.494 255.465 673.494 261.018V274.081" stroke="#FF9A00" stroke-width="5" stroke-miterlimit="10"/>
<path d="M631.857 422.271L649.413 279.509" stroke="black" stroke-width="2" stroke-miterlimit="10"/>
<path d="M657.417 241.441C658.74 241.606 660.068 241.742 661.316 242.195C663.982 243.163 665.981 245.513 667.068 248.133C668.247 250.975 669.271 258.005 664.096 257.038C662.505 256.74 660.871 255.432 660.192 253.953C659.497 252.439 659.265 251.134 657.303 250.726C656.719 250.604 656.116 250.623 655.521 250.599C654.708 250.566 653.898 250.451 653.108 250.257C651.657 249.902 650.8 249.034 649.799 248.003C648.515 246.68 647.52 246.717 645.936 246.001C644.237 245.233 643.232 243.479 643.32 241.645C643.39 240.196 643.88 238.788 645.37 238.278C646.296 237.961 647.315 238.052 648.265 238.285C651.016 238.959 653.147 240.739 656.031 241.242C656.489 241.322 656.952 241.383 657.417 241.441Z" fill="#824D4D"/>
<path d="M646.655 248.367C649.027 245.606 650.848 242.436 652.597 239.227C652.52 239.008 652.392 238.806 652.191 238.664C649.712 236.908 647.233 235.153 644.754 233.397C644.555 233.256 644.337 233.109 644.093 233.119C643.777 233.132 643.538 233.399 643.34 233.646C641.287 236.194 637.422 239.189 638.882 242.606C639.135 243.199 643.487 246.419 645.884 248.166C646.116 248.334 646.39 248.391 646.655 248.367Z" fill="#00607C"/>
<path d="M531.225 157.182C532.157 152.834 533.292 148.376 535.998 144.848C541.758 137.337 548.053 140.049 550.369 148.435C553.611 160.172 555.773 172.352 557.833 184.343C559.196 192.279 561.621 203.261 556.058 210.154C553.432 213.408 548.961 215.305 544.92 214.232C542.167 213.501 539.905 211.548 537.993 209.438C532.217 203.065 528.108 193.899 528.246 185.178C528.39 176.021 528.279 166.019 531.225 157.182Z" fill="#C77764"/>
<path d="M541.882 390.173C542.128 385.12 539.749 382.927 533.328 381.661C530.347 381.074 527.308 382.286 524.664 383.783C523.582 384.396 522.485 385.107 521.882 386.194C521.279 387.282 521.257 388.586 521.265 389.83C521.319 398.283 522.36 413.768 523.761 422.104C524.097 424.1 524.198 419.139 525.451 420.73C528.941 425.16 536.747 425.055 538.279 420.791C539.562 417.217 541.734 393.225 541.882 390.173Z" fill="#E38671"/>
<path d="M558.701 419.417C552.612 416.746 547.292 414.168 541.702 410.766C536.31 407.484 527.604 408.896 521.517 409.812C521.289 409.846 521.05 409.886 520.865 410.023C520.679 410.161 520.859 415.524 520.834 416.289C520.765 418.322 520.704 421.725 521.639 423.605C523.294 426.93 527.228 426.908 530.498 427.034C536.934 427.282 543.37 427.53 549.806 427.778C554.073 427.942 558.736 427.986 562.101 425.357C563.102 424.575 563.987 423.207 563.355 422.105C563.088 421.639 562.605 421.345 562.134 421.088C561.012 420.475 559.864 419.927 558.701 419.417Z" fill="#171616"/>
<path d="M541.155 402.965C541.838 402.939 542.376 402.378 542.387 401.694C542.478 396.198 542.861 394.139 542.609 390.176C542.556 389.339 542.478 388.467 542.038 387.754C541.353 386.642 539.944 386.153 538.922 385.516C537.608 384.697 536.16 384.099 534.667 383.69C522.412 380.333 517.834 391.527 518.727 400.966C518.849 402.259 519.931 403.255 521.229 403.306C526.103 403.499 537.423 403.105 541.155 402.965Z" fill="#171616"/>
<path d="M510.298 328.631C510.271 335.97 509.743 343.302 509.51 350.635C509.067 364.584 506.72 387.662 517.838 397.518C523.759 402.767 541.881 400.805 545.464 395.273C553.537 382.811 546.451 360.726 547.604 346.191C548.87 330.235 548.405 313.843 548.099 297.853C547.403 261.488 543.782 225.028 534.318 189.825C533.683 187.462 532.98 184.979 531.236 183.263C528.714 180.781 524.524 180.618 521.339 182.159C518.154 183.7 515.846 186.626 514.135 189.724C508.304 200.284 509.165 212.702 507.077 224.087C504.666 237.238 503.741 250.154 503.658 263.638C503.586 275.449 504.469 287.284 506.576 298.912C508.138 307.529 510.042 315.849 510.257 324.672C510.292 325.992 510.303 327.312 510.298 328.631Z" fill="#FDB74C"/>
<path d="M436.215 364.366C438.848 364.628 433.169 364.454 433.151 364.22C432.929 361.274 433.915 358.391 434.682 355.538C435.4 352.866 436.28 345.953 436.211 343.185C432.512 342.643 422.239 347.046 418.469 347.625C414.222 348.277 408.592 349.907 408.044 355.207C407.544 360.053 406.548 365.685 410.789 366.319C411.711 366.457 431.336 363.881 436.215 364.366Z" fill="#E38671"/>
<path d="M424.893 367.949C427.447 371.349 433.397 367.568 437.589 366.857C438.416 366.717 439.275 366.548 439.939 366.037C440.915 365.286 441.272 363.951 441.752 362.893C442.562 361.105 443.14 359.212 443.353 357.261C444.445 347.274 436.426 343.515 428.433 343.761C424.887 343.87 422.08 346.806 422.191 350.351C422.382 356.398 422.988 365.413 424.893 367.949Z" fill="#171616"/>
<path d="M470.284 321.785C462.936 329.595 450.108 328.67 440.066 332.833C430.648 336.737 427.374 342.173 426.801 351.82C426.311 360.061 426.834 369.893 436.488 372.235C442.011 373.575 447.807 372.004 453.125 370.001C481.51 359.314 511.241 356.555 520.646 322.678C524.839 307.574 523.979 291.577 522.747 275.95C521.235 256.774 518.854 236.656 507.632 221.035C505.455 218.007 502.616 214.998 498.911 214.576C496.363 214.286 493.844 215.291 491.605 216.541C481.265 222.313 473.792 232.946 473.638 244.647C473.352 266.458 480.586 287.56 476.057 308.913C475.125 313.306 473.75 317.762 470.832 321.174C470.653 321.383 470.47 321.587 470.284 321.785Z" fill="#FDB74C"/>
<path d="M640.271 246.548C639.956 246.527 639.638 246.485 639.317 246.42C633.839 245.306 626.93 239.068 622.797 235.502C616.164 229.779 610.74 222.308 608.107 213.901C605.82 206.597 606.374 198.729 606.966 191.213C607.381 185.941 606.915 180.66 606.854 175.384C606.805 171.12 605.921 165.416 608.615 161.782C610.002 159.911 612.236 158.633 614.565 158.609C615.519 158.599 616.469 158.792 617.371 159.103C620.615 160.222 623.178 162.849 624.828 165.857C626.478 168.866 627.304 172.252 627.927 175.626C629.249 182.782 629.736 190.068 630.934 197.245C631.633 201.435 632.585 205.603 634.061 209.593C635.566 213.66 637.601 216.516 640.222 219.817C642.398 222.557 644.785 225.15 646.617 228.132C648.449 231.114 649.714 234.592 649.35 238.073C648.89 242.471 644.908 246.848 640.271 246.548Z" fill="#11556B"/>
<path d="M600.443 332.956C600.51 340.014 600.183 347.087 599.073 354.307C596.389 371.778 593.705 389.249 591.021 406.721C590.807 408.111 590.596 409.55 590.963 410.908C591.33 412.266 592.438 413.529 593.842 413.61C594.788 413.665 595.681 413.192 596.472 412.67C600.215 410.202 602.882 406.426 605.228 402.605C615.201 386.362 621.726 368.663 629.416 351.454C637.011 334.459 638.114 312.877 635.737 294.687C634.884 288.161 633.495 281.719 632.108 275.286C630.361 267.118 627.561 259.27 625.966 251.192C624.062 241.549 621.027 232.15 616.858 223.246C615.848 221.09 614.642 218.826 612.521 217.745C610.563 216.747 608.161 216.979 606.14 217.842C600.907 220.074 597.434 224.577 594.899 229.487C581.856 254.749 597.505 280.775 599.082 306.106C599.647 315.205 600.358 324.068 600.443 332.956Z" fill="#39A5C9"/>
<path d="M606.428 410.109C606.427 410.125 606.425 410.142 606.424 410.157C606.425 410.142 606.426 410.125 606.428 410.109Z" fill="#282540"/>
<path d="M606.231 412.246C606.22 412.366 606.209 412.482 606.199 412.6C606.209 412.483 606.22 412.366 606.231 412.246Z" fill="#282540"/>
<path d="M537.542 165.134C537.622 165.931 535.331 181.404 535.611 183.476C540.313 179.376 546.678 177.874 551.979 174.782C555.76 172.577 560.59 171.756 564.027 169.144C565.762 167.826 567.065 165.728 566.842 163.561C566.694 162.129 565.918 160.85 565.154 159.63C559.169 150.068 548.441 132.707 539.153 128.336C537.635 127.621 533.309 127.169 531.679 126.769C530.049 126.369 536.913 131.113 536.014 132.53C534.388 135.092 535.625 139.942 535.749 142.77C535.942 147.194 536.308 151.608 536.686 156.019C536.947 159.059 537.238 162.097 537.542 165.134Z" fill="#FF9A00"/>
<path d="M607.705 225.319C607.732 222.014 607.047 218.838 604.578 215.901C597.296 207.239 584.857 205.712 576.932 214.239C560.116 232.333 562.885 266.907 564.697 290.002C565.686 302.611 567.704 315.165 567.667 327.813C567.61 347.143 563.73 366.176 557.107 384.267C555.956 387.411 555.197 390.919 556.315 394.074C557.433 397.23 561.029 399.682 564.165 398.51C565.411 398.044 566.41 397.102 567.357 396.169C573.482 390.132 578.933 383.42 583.636 376.222C595.697 357.761 602.85 336.098 604.09 314.077C604.4 308.57 604.319 303.056 603.894 297.557C603.424 291.476 604.504 285.496 604.939 279.408C605.914 265.748 605.923 252.045 606.342 238.363C606.476 233.958 607.67 229.533 607.705 225.319Z" fill="#39A5C9"/>
<path d="M550.493 395.903C550.069 396.954 549.851 397.979 549.946 398.798C550.383 402.555 554.089 405.639 556.679 408C558.647 409.794 574.389 424.595 577.146 416.514C577.368 415.863 576.936 415.188 576.525 414.637C573.193 410.163 569.256 406.317 567.077 401.045C566.332 399.244 565.801 397.344 564.827 395.655C563.164 392.772 559.006 389.269 555.352 390.387C553.509 390.951 551.462 393.498 550.493 395.903Z" fill="#171616"/>
<path d="M589.243 415.115C588.882 417.641 589.419 420.013 591.764 420.414C593.377 420.69 595.017 420.765 596.652 420.84C603.277 421.143 611.501 423.125 618.001 422.378C619.618 422.192 623.873 421.465 624.152 419.22C624.519 416.277 618.947 415.344 616.754 414.831C612.52 413.984 606.398 413.376 602.679 411.054C601.192 410.126 599.939 408.809 598.325 408.127C596.374 407.303 594.008 407.553 592.272 408.766C590.975 409.672 589.62 412.478 589.243 415.115Z" fill="#171616"/>
<path d="M571.973 256.104C572.848 258.725 573.324 261.583 574.314 264.172C574.87 265.627 575.749 267.146 577.238 267.604C578.747 268.068 580.428 267.22 581.341 265.932C582.254 264.644 582.537 263.016 582.625 261.44C583.103 252.85 578.498 244.703 571.213 240.302C570.886 240.105 570.538 239.909 570.157 239.892C569.595 239.868 569.093 240.236 568.7 240.639C565.589 243.833 566.733 248.343 569.305 251.194C570.581 252.61 571.372 254.302 571.973 256.104Z" fill="#824D4D"/>
<path d="M567.481 250.551C571.031 248.39 574.363 245.868 577.748 243.424C576.162 241.07 574.576 238.717 572.989 236.363C572.871 236.188 572.735 236 572.53 235.95C572.362 235.909 572.188 235.971 572.026 236.033C568.883 237.241 564.045 239.14 562.681 242.59C562.639 242.695 562.608 242.818 562.582 242.95C564.08 245.568 565.793 248.052 567.481 250.551Z" fill="#00607C"/>
<path d="M616.61 131.7C616.584 131.565 616.816 131.699 616.814 131.836C616.795 132.956 615.636 133.744 614.521 133.769C613.406 133.794 612.344 133.265 611.336 132.75" fill="white"/>
<path d="M629.333 194.491C629.118 192.029 628.775 189.602 628.286 187.237C626.491 178.568 626.457 173.294 624.104 164.655C621.725 155.922 607.98 150.844 600.336 151.227C593.411 151.574 586.423 152.992 580.371 156.376C570.702 161.782 569.702 170.274 565.433 179.395C560.704 189.5 559.744 200.923 558.503 212.037C557.568 220.414 557.31 229.928 563.089 236.065C566.909 240.122 572.642 241.783 578.18 242.395C589.942 243.695 601.81 241.026 612.998 237.17C616.424 235.99 619.918 234.629 622.497 232.084C625.925 228.701 627.224 223.748 628.033 219.001C629.367 211.172 630.047 202.646 629.333 194.491Z" fill="#00607C"/>
<path d="M631.021 119.73C630.677 116.549 628.913 113.408 626.041 111.997C624.661 111.319 623.118 111.066 621.601 110.821C616.769 110.041 613.561 110.381 609.643 113.415C604.923 117.07 602.654 123.22 603.085 129.083C603.174 130.288 603.417 131.489 603.337 132.695C603.264 133.794 602.923 134.856 602.56 135.896C601.625 138.57 600.372 141.108 599.151 143.665C598.131 145.801 597.133 147.949 596.361 150.199C595.936 151.436 595.56 152.711 595.545 154.019C595.517 156.522 597.555 159.063 599.315 160.702C599.742 161.1 600.208 161.463 600.723 161.738C602.801 162.846 608.146 165.396 610.46 165.589C611.275 165.657 612.023 165.602 612.76 165.494C613.497 164.368 614.133 163.194 614.69 161.982C615.296 159.107 616.073 156.278 617.036 153.509C616.792 152.472 616.71 151.391 616.789 150.512C616.935 148.894 617.538 147.356 618.134 145.844C618.583 144.706 619.06 143.526 619.965 142.703C620.986 141.775 622.467 141.385 623.292 140.279C623.664 139.78 623.868 139.177 624.177 138.637C624.758 137.623 625.687 136.865 626.471 135.999C628.304 133.975 628.229 131.192 629.117 128.805C630.241 125.781 631.382 123.067 631.021 119.73Z" fill="#824D4D"/>
<path d="M614.959 119.565C615.253 117.638 615.607 115.714 615.681 113.779C615.715 112.877 615.651 111.936 615.218 111.143C613.4 107.808 607.916 111.508 605.985 112.914C604.697 113.852 603.406 114.866 602.606 116.244C602.006 117.278 601.717 118.461 601.483 119.633C601.118 121.465 600.421 123.824 600.591 125.685C600.818 128.173 602.235 130.903 602.815 133.367C602.897 133.714 603.132 134.157 603.47 134.045C603.598 134.003 603.685 133.886 603.762 133.776C604.838 132.254 605.599 131.17 607.007 130.018C608.138 129.093 609.234 128.031 610.102 126.858C611.629 124.795 614.362 125.504 614.606 122.425C614.682 121.471 614.813 120.518 614.959 119.565Z" fill="#8574AB"/>
<path d="M553.894 240.506C555.422 242.888 557.27 245.054 559.678 246.56C564.333 249.472 569.155 245.972 572.941 243.062C574.417 241.928 575.959 240.708 576.64 238.975C577.637 236.439 576.519 233.611 575.414 231.12C573.223 226.18 571.033 221.241 568.842 216.301C566.943 212.019 563.783 207.34 562.778 202.827C562.08 199.692 562.06 197.414 560.084 194.548C557.423 190.689 549.379 185.885 544.511 188.287C534.011 193.469 541.814 208.678 543.912 216.346C545.781 223.178 548.318 229.827 551.476 236.167C552.205 237.627 552.994 239.104 553.894 240.506Z" fill="#11556B"/>
<path d="M578.064 185.971C573.653 191.041 569.188 196.192 566.299 202.259C564.047 199.539 561.794 196.818 559.542 194.098C559.026 193.475 581.636 171.562 586.474 176.071C584.252 179.635 580.837 182.784 578.064 185.971Z" fill="#171616"/>
<path d="M561.477 199.828C561.987 198.532 562.502 197.238 563.183 196.025C566.328 190.423 572.458 187.346 577.991 184.082C582.303 181.538 586.5 178.645 589.691 174.784C593.419 170.273 598.782 155.389 589.633 152.824C587.286 152.166 584.79 152.878 582.49 153.687C571.635 157.504 561.628 163.573 552.889 171.059C544.974 177.839 539.28 185.614 543.043 196.195C545.306 202.558 554.46 213.431 559.779 203.68C560.452 202.447 560.962 201.136 561.477 199.828Z" fill="#11556B"/>
<path d="M541.892 390.121C541.888 390.138 541.884 390.156 541.881 390.173C541.885 390.156 541.888 390.138 541.892 390.121Z" fill="#282540"/>
<path d="M587.72 429.717C587.555 429.748 587.39 429.78 587.225 429.811L587.72 429.717Z" fill="#171616"/>
<path d="M522.597 104.647C522.571 104.51 522.805 104.648 522.802 104.786C522.773 105.919 521.594 106.707 520.466 106.723C519.338 106.738 518.267 106.195 517.252 105.665" fill="white"/>
<path d="M546.176 148.513C546.516 141.525 547.844 136.493 543.318 131.526C538.267 125.983 527.373 124.111 520.341 124.064C510.261 123.996 500.682 121.581 494.237 131.421C489.48 138.685 484.245 144.01 482.409 152.991C481.044 159.669 481.016 166.536 480.634 173.341C479.972 185.142 473.075 196.956 473.131 208.235C473.157 213.451 476.51 218.243 480.868 221.11C493.759 229.589 513.958 231.637 528.649 228.432C532.202 227.657 535.789 226.52 538.588 224.197C542.335 221.088 544.191 216.258 545.285 211.514C549.898 191.493 545.181 168.972 546.176 148.513Z" fill="#FF9A00"/>
<path d="M505.199 129.082C506.845 130.757 509.376 131.39 511.757 131.588C515.921 131.935 521.214 131.473 524.861 129.262C524.015 126.474 524.049 122.883 523.729 119.945C523.51 117.927 524.089 116.395 524.688 114.449C524.903 113.815 525.141 113.179 525.539 112.646C526.008 112.016 526.669 111.567 527.256 111.049C528.7 109.774 529.705 108.067 530.477 106.289C532.254 102.195 532.868 97.3759 531.201 93.1239C529.872 89.7349 526.397 85.7579 522.477 86.5979C520.814 86.9549 519.264 87.6999 517.84 88.6079C512.194 92.2059 508.727 98.3479 507.715 104.85C506.602 112.001 507.47 119.582 504.578 126.384C504.413 126.773 504.231 127.181 504.28 127.601C504.32 127.946 504.511 128.254 504.722 128.53C504.87 128.726 505.03 128.91 505.199 129.082Z" fill="#E38671"/>
<path d="M515.697 96.803C516.957 94.483 516.943 93.094 519.991 92.74C523.833 92.295 527.877 93.231 531.504 91.891C532.358 91.575 533.289 90.94 533.243 90.03C533.145 88.121 528.449 85.63 526.938 84.823C523.078 82.76 518.344 81.535 513.958 82.219C511.45 82.61 508.92 83.24 506.802 84.639C504.685 86.038 503.026 88.323 502.92 90.859C502.867 92.137 503.201 93.4181 503.051 94.6881C502.834 96.5231 501.653 98.073 500.812 99.7181C499.784 101.73 499.495 104.478 501.027 106.266C502.158 107.585 505.068 109.492 506.893 109.263C509.603 108.924 510.013 104.807 510.699 102.805C511.077 101.702 511.399 100.408 512.233 99.543C513.271 98.465 514.781 98.363 515.614 96.946C515.644 96.898 515.671 96.851 515.697 96.803Z" fill="#171616"/>
<path d="M525.592 112.851C525.599 112.838 525.602 112.824 525.609 112.811C525.671 112.702 525.743 112.604 525.822 112.513C525.844 112.488 525.869 112.465 525.892 112.441C526.034 112.249 526.173 112.054 526.329 111.874C525.602 112.275 524.862 112.67 524.058 112.892C523.221 113.124 522.461 113.187 521.585 113.109C520.056 112.974 518.565 112.497 517.123 111.934C519.258 113.824 521.582 115.49 524.027 116.943C524.256 115.495 524.79 114.075 525.592 112.851Z" fill="#171616"/>
<path d="M482.408 249.032C483.849 247.992 488.501 245.738 488.665 243.887C488.818 242.159 485.576 239.923 484.388 239.045C483.899 238.683 483.385 238.335 483.016 237.851C482.537 237.222 482.347 236.427 482.164 235.657C480.273 227.691 477.922 219.835 475.128 212.139C472.589 205.145 468.93 200.366 473.216 193.444C476.78 187.688 477.96 181.845 479.923 175.532C481.278 171.173 483.754 167.602 486.165 163.651C490.871 155.939 497.085 145.143 487.341 138.496C467.519 124.977 446.316 182.943 447.535 196.036C448.494 206.328 454.199 215.548 459.358 224.251C462.652 229.807 466.191 235.218 469.963 240.461C471.922 243.184 473.919 245.896 476.033 248.502C478.772 251.88 479.051 251.455 482.408 249.032Z" fill="#E38671"/>
<path d="M506.323 134.432C505.964 132.331 504.829 130.623 503.9 128.755C503.349 127.646 502.897 125.481 501.398 125.325C501.046 125.289 500.695 125.384 500.355 125.48C492.017 127.84 483.35 131.515 475.98 136.009C468.405 140.628 461.639 146.701 456.777 154.122C456.448 154.624 456.122 155.144 455.983 155.729C455.313 158.541 458.719 160.793 460.508 162.372C462.778 164.374 465.416 165.904 467.742 167.836C473.442 172.571 480.604 175.315 487.334 178.341C488.727 178.967 500.507 156.955 501.482 154.669C503.618 149.66 505.356 144.479 506.223 139.093C506.494 137.411 506.581 135.94 506.323 134.432Z" fill="#FF9A00"/>
<path d="M509.837 98.8C507.662 98.532 505.379 100.086 505.237 102.372C505.098 104.606 506.612 106.825 508.944 107.113C511.119 107.381 513.402 105.827 513.544 103.541C513.683 101.307 512.168 99.088 509.837 98.8Z" fill="#E38671"/>
<path d="M510.254 101.629C509.797 101.264 509.109 101.373 508.657 101.715C508.135 102.11 507.837 102.784 507.893 103.451C507.948 104.118 508.354 104.756 508.937 105.094" fill="#171616"/>
<path d="M546.958 177.491C546.524 170.311 544.409 164.817 542.756 157.816" stroke="black" stroke-width="0.75" stroke-miterlimit="10"/>
<path d="M491.456 160.79C490.079 162.566 488.728 164.362 487.417 166.187C485.272 169.17 483.422 172.133 480.766 174.7C480.789 178.557 480.353 182.435 479.648 186.243C484.988 178.537 488.746 169.786 491.456 160.79Z" fill="black"/>
<path d="M508.641 89.242C514.441 90.498 520.269 91.627 526.117 92.627C529.755 93.249 533.479 93.821 537.121 93.173C538.533 92.922 540.262 91.939 539.941 90.502C539.747 89.635 538.873 89.157 538.086 88.794C533.577 86.716 528.972 84.858 524.29 83.229" fill="#5D42A6"/>
<path d="M505.809 89.9869C509.227 90.4109 512.699 90.5099 516.146 90.2529L525.627 88.5249C527.71 87.8939 529.742 87.0799 531.681 86.0749C531.12 81.9889 528.937 78.4549 524.998 76.9509C521.585 75.6469 517.725 75.8009 514.245 76.9149C511.504 77.7919 507.236 79.5519 505.483 81.9699C504.904 82.7679 502.868 89.5419 503.887 89.7049C504.526 89.8069 505.166 89.9069 505.809 89.9869Z" fill="black"/>
<path d="M514.381 75.704C512.565 75.497 512.239 78.319 514.058 78.527C515.874 78.734 516.2 75.912 514.381 75.704Z" fill="#171616"/>
<path d="M603.861 252.101C604.054 264.248 604.246 276.394 604.439 288.541C604.724 306.498 604.948 324.869 599.203 341.885" stroke="black" stroke-miterlimit="10"/>
<path d="M619.18 156.991L619.682 172.559L609.635 168.478L607.93 164.655L619.18 156.991Z" fill="#171616"/>
<path d="M538.326 225.659C535.042 230.586 532.117 235.636 529.777 241.127C527.997 245.301 527.373 249.961 527.989 254.456C528.232 256.227 528.82 258.183 530.407 259.005C531.768 259.711 533.502 259.316 534.717 258.381C535.932 257.446 536.717 256.064 537.354 254.67C538.825 251.455 539.687 247.963 539.881 244.432C539.92 243.722 539.957 242.948 540.427 242.416C540.809 241.984 541.396 241.809 541.948 241.639C552.03 238.526 560.139 230.881 567.165 223.343C570.834 219.406 574.926 214.567 574.538 208.91C574.087 202.343 572.538 195.112 570.928 188.679C568.511 189.603 566.379 191.261 564.889 193.377C563.179 195.806 562.394 199.017 560.331 201.187C555.423 206.35 549.881 210.597 545.299 216.215C542.825 219.249 540.497 222.402 538.326 225.659Z" fill="#E38671"/>
<path d="M598.239 150.679L607.93 164.655L596.232 172.952L593.309 152.689C593.164 151.681 593.677 150.691 594.586 150.231L595.212 149.913C596.271 149.377 597.563 149.704 598.239 150.679Z" fill="#00607C"/>
<path d="M623.345 173.161C622.219 166.196 620.512 159.334 618.123 152.693C617.258 150.289 613.392 151.326 614.266 153.756C618.373 165.174 620.398 177.186 621.062 189.276C621.392 195.295 621.408 201.328 621.214 207.351C621.114 210.441 620.959 213.528 620.762 216.613C620.586 219.368 620.483 222.166 620.036 224.894C619.691 226.998 619.02 228.981 618.249 230.96C617.621 232.572 616.993 234.185 616.364 235.797C616.439 235.954 616.647 235.985 616.821 235.983C617.314 235.977 617.805 235.869 618.263 235.686C619.363 235.248 620.257 234.391 620.932 233.418C621.834 232.117 622.771 230.43 623.228 228.917C624.067 226.136 624.292 223.188 624.507 220.305C624.736 217.226 624.927 214.145 625.069 211.061C625.649 198.408 625.369 185.685 623.345 173.161Z" fill="#171616"/>
<path d="M613.551 124.717C613.684 123.081 612.107 121.723 610.49 121.442C608.41 121.08 606.158 122.122 605.088 123.942C604.018 125.762 604.203 128.237 605.532 129.878C606.402 130.953 607.831 131.673 609.177 131.356C610.573 131.027 611.512 129.719 612.104 128.413C612.697 127.107 613.095 125.677 614.012 124.575" fill="#824D4D"/>
<path d="M610.703 123.623C609.205 123.513 607.516 124.125 606.93 125.507C606.344 126.889 607.603 128.833 609.053 128.441" fill="#171616"/>
<path d="M596.232 172.952L607.93 164.655L613.113 167.636L596.232 172.952Z" fill="#171616"/>
<path d="M619.927 166.353C619.88 164.214 619.833 162.076 619.785 159.937C619.75 158.355 620.226 155.645 619.659 154.187C619.198 153.004 617.815 152.23 616.817 151.395C616.462 151.86 616.362 152.463 616.243 153.036C615.955 154.419 615.463 155.716 614.802 156.927C614.628 157.287 614.442 157.641 614.242 157.991C612.787 160.542 610.677 162.621 608.155 164.096C608.119 164.182 608.098 164.262 608.092 164.336C607.986 165.78 612.664 167.271 613.785 167.734C616.038 168.664 618.429 169.545 620.04 171.474C620.002 169.767 619.964 168.06 619.927 166.353Z" fill="#00607C"/>
<path d="M614.394 127.588C614.341 126.131 614.397 124.67 614.561 123.222C614.648 122.459 614.747 121.618 614.315 120.984C613.719 120.109 612.449 120.082 611.404 120.247C610.462 120.396 609.532 120.627 608.63 120.936C608.768 121.627 610.673 121.946 611.174 122.865C611.722 123.871 611.626 125.217 611.534 126.314C611.234 129.892 609.489 133.328 608.698 136.838C608.183 139.122 607.796 141.459 607.935 143.796C608.19 148.073 610.933 152.041 615.217 153.294C616.892 153.784 618.743 153.29 620.187 152.31C621.631 151.33 622.721 149.912 623.652 148.436C625.887 144.897 627.333 140.935 628.437 136.916C628.994 134.888 629.462 132.837 629.912 130.783C630.397 128.569 629.991 127.835 628.644 129.946C628.272 130.524 627.849 130.98 627.238 131.316C627.099 131.393 626.951 131.465 626.792 131.471C626.582 131.478 626.389 131.366 626.206 131.264C622.868 129.399 619.493 130.136 615.881 130.179C615.603 130.182 615.311 130.18 615.066 130.046C614.594 129.788 614.488 129.168 614.449 128.631C614.426 128.284 614.407 127.936 614.394 127.588Z" fill="#8574AB"/>
<path d="M521.209 105.803C522.58 107.406 525.326 107.554 526.862 106.108" stroke="black" stroke-width="0.75" stroke-miterlimit="10"/>
<path d="M416.769 362.228C416.859 363.132 416.916 364.039 416.835 364.942C416.737 366.037 416.437 367.103 416.138 368.161C415.378 370.855 414.618 373.548 413.858 376.242C412.576 380.786 411.289 385.345 409.442 389.69C409.114 390.462 408.712 391.287 407.954 391.647C406.954 392.122 405.709 391.549 405.063 390.65C403.12 387.946 403.566 383.182 403.341 380.082C403.031 375.802 402.722 371.523 402.412 367.243C402.081 362.668 399.765 355.436 402.402 351.178C403.735 349.038 410.034 347.574 412.328 347.693C415.415 347.852 414.959 348.027 415.546 351.19C416.164 354.521 416.305 358.019 416.68 361.387C416.71 361.668 416.741 361.948 416.769 362.228Z" fill="black"/>
<path d="M520.854 256.142C522.438 270.57 524.025 285.076 523.246 299.57C522.467 314.064 517.317 330.768 509.818 343.196" stroke="black" stroke-miterlimit="10"/>
<path d="M509.726 351.168C509.577 353.522 509.611 355.889 509.553 358.246C509.54 358.783 509.529 359.319 509.52 359.856C509.561 360.36 509.611 360.863 509.675 361.365C509.822 362.518 509.583 361.866 509.569 363.029C516.382 347.886 519.113 331.28 521.779 314.89C521.187 316.948 520.344 318.929 519.392 320.873C518.654 323.501 517.611 326.071 516.632 328.614C515.316 333.216 513.67 337.672 510.792 341.421C510.617 341.721 510.431 342.014 510.253 342.312C510.248 342.365 510.238 342.417 510.234 342.47C510.167 343.357 510.101 344.243 510.034 345.13C510.086 347.159 509.849 349.23 509.726 351.168Z" fill="black"/>
<path d="M513.8 317.703C513.545 319.963 511.859 321.997 509.686 322.667L513.8 317.703Z" fill="black"/>
<path d="M595.645 330.735C596.121 332.763 595.246 335.039 593.535 336.226L595.645 330.735Z" fill="black"/>
<path d="M624.691 328.243C625.044 330.067 626.173 331.727 627.74 332.726L624.691 328.243Z" fill="black"/>
<path d="M453.57 190.532C455.579 192.717 455.481 196.502 453.363 198.58L453.57 190.532Z" fill="black"/>
<path d="M473.713 251.951C482.46 252.254 491.049 245.462 493.966 235.936L473.713 251.951Z" fill="black"/>
<path opacity="0.39" d="M608.956 166.049C606.227 181.001 606.661 194.587 608.878 209.627C610.458 220.344 611.114 232.47 603.027 240.65" stroke="black" stroke-miterlimit="10"/>
<path opacity="0.39" d="M611.919 190.532C609.424 190.545 609.44 194.423 611.94 194.41C614.435 194.397 614.418 190.519 611.919 190.532Z" fill="black"/>
<path opacity="0.39" d="M612.835 201.41C610.34 201.423 610.356 205.301 612.856 205.288C615.351 205.275 615.334 201.397 612.835 201.41Z" fill="black"/>
<path opacity="0.39" d="M617.107 215.012C617.013 214.684 616.845 214.4 616.604 214.159C616.473 214.059 616.341 213.958 616.21 213.858C615.907 213.684 615.58 213.598 615.23 213.598L614.895 213.6C614.628 213.591 614.379 213.648 614.149 213.771C613.909 213.85 613.702 213.985 613.527 214.175C613.339 214.352 613.206 214.56 613.129 214.801C613.009 215.033 612.954 215.282 612.966 215.549C612.99 215.721 613.014 215.892 613.038 216.064C613.132 216.392 613.3 216.676 613.541 216.917C613.672 217.017 613.804 217.118 613.935 217.218C614.238 217.392 614.565 217.478 614.915 217.478L615.25 217.476C615.517 217.485 615.766 217.428 615.996 217.305C616.236 217.225 616.443 217.091 616.618 216.901C616.806 216.724 616.939 216.516 617.016 216.275C617.136 216.043 617.19 215.794 617.179 215.527C617.155 215.355 617.131 215.183 617.107 215.012Z" fill="black"/>
<path opacity="0.39" d="M612.835 228.038C610.34 228.051 610.356 231.929 612.856 231.916C615.351 231.903 615.334 228.025 612.835 228.038Z" fill="black"/>
<path d="M606.191 114.134C605.241 114.691 604.959 116.127 605.627 117.002L606.191 114.134Z" fill="white"/>
<path d="M611.092 112.102C611.594 111.93 612.157 112.266 612.42 112.727C612.683 113.188 612.721 113.739 612.753 114.269" fill="white"/>
<path d="M609.199 118.155C609.363 118.921 610.055 119.544 610.835 119.626L609.199 118.155Z" fill="white"/>
<path opacity="0.4" d="M613.637 150.09C613.846 150.979 614.637 151.702 615.542 151.828L613.637 150.09Z" fill="#171616"/>
<path d="M602.252 120.563C601.774 121.468 601.846 122.637 602.432 123.476L602.252 120.563Z" fill="white"/>
<path opacity="0.4" d="M624.321 144.811C624.18 145.864 622.931 147.704 621.541 147.704L624.321 144.811Z" fill="#171616"/>
<path d="M620.879 122.852C620.533 122.307 619.604 121.96 619.105 122.066C618.73 122.146 618.36 122.269 617.992 122.373C617.234 122.588 616.478 122.811 615.724 123.04C615.199 123.2 614.878 123.754 614.776 124.266C614.704 124.627 614.802 125.047 615.106 125.253C615.372 125.435 615.723 125.414 616.044 125.381C617.523 125.226 619.021 124.933 620.308 124.189C620.586 124.029 620.869 123.827 620.973 123.524C621.055 123.282 621.007 123.053 620.879 122.852Z" fill="#8574AB"/>
<path d="M630.663 125.265C630.481 125.124 630.296 124.989 630.112 124.851C629.482 124.382 628.852 123.912 628.221 123.443C627.884 123.192 627.563 122.923 627.148 122.809C626.595 122.658 625.965 122.841 625.612 123.297C625.17 123.869 625.288 124.571 625.731 125.1C625.98 125.397 626.342 125.62 626.66 125.841C627.338 126.314 628.061 126.717 628.818 127.05C629.073 127.162 629.309 127.228 629.589 127.151C629.609 127.145 629.628 127.128 629.648 127.121C629.779 127.183 629.92 127.224 630.067 127.222C630.525 127.215 631.001 126.921 631.108 126.45C631.214 125.981 631.034 125.551 630.663 125.265Z" fill="#8574AB"/>
<path opacity="0.4" d="M612.204 141.297C612.063 143.197 611.336 146.258 613.23 146.764L612.204 141.297Z" fill="#171616"/>
<path opacity="0.4" d="M617.68 141.686C617.884 140.45 620.039 140.45 621.065 141.796L617.68 141.686Z" fill="#171616"/>
<path d="M617.45 133.709C617.403 134.745 618.018 135.684 618.752 136.273C620.8 137.916 623.954 137.212 625.335 134.804" fill="white"/>
<path d="M613.212 125.094C613.038 125.215 612.938 125.284 612.764 125.406C612.612 127.258 614.14 128.976 616.244 129.281C618.348 129.586 620.25 128.366 620.566 126.537C620.428 126.37 620.35 126.275 620.212 126.109L613.212 125.094Z" stroke="black" stroke-width="0.75" stroke-miterlimit="10"/>
<path d="M624.296 126.486C624.122 126.607 624.022 126.676 623.848 126.798C623.696 128.65 625.224 130.368 627.328 130.673C629.432 130.978 631.334 129.758 631.65 127.929C631.512 127.762 631.434 127.667 631.296 127.501L624.296 126.486Z" stroke="black" stroke-width="0.75" stroke-miterlimit="10"/>
<path d="M616.678 125.597L626.405 126.792" stroke="black" stroke-width="0.75" stroke-miterlimit="10"/>
<path d="M596.351 167.678C595.898 161.43 594.164 155.343 590.411 150.306C589.178 150.87 587.921 151.381 586.665 151.891C586.707 151.953 586.74 152.016 586.79 152.076C594.518 161.409 592.58 174.972 591.569 186.098C590.418 198.762 588.843 211.386 586.838 223.943C585.828 230.264 584.695 236.564 583.475 242.848C584.13 242.774 584.799 242.787 585.447 242.847C586.13 242.91 586.806 243.015 587.478 243.145C589.783 231.168 591.726 219.125 593.277 207.027C594.128 200.389 594.862 193.737 595.48 187.073C596.074 180.65 596.818 174.133 596.351 167.678Z" fill="#171616"/>
<path d="M570.74 208.376C572.436 209.527 572.567 212.373 570.983 213.674L570.74 208.376Z" fill="#171616"/>
</svg>
