<svg width="825" height="769" viewBox="0 0 825 769" fill="none" xmlns="http://www.w3.org/2000/svg">
<path d="M646.566 272.008L646.849 272.15L647.099 271.955L653.698 266.799L668.015 276.369L668.022 276.374L668.028 276.378L678.055 282.642L685.641 302.633L682.448 316.229L659.291 346.582L647.461 353.451L647.194 353.606L647.213 353.916L648.14 367.999L629.628 384.56L629.496 384.678L629.468 384.853L627.254 398.59L618.666 410.026L593.27 412.492L583.447 397.646L590.582 381.271L590.67 381.069L590.58 380.868L579.411 355.727L592.356 323.085L592.423 322.915L592.366 322.743L584.283 298.36L601.982 291.056L602.302 290.924L602.291 290.577L601.918 279.307L612.611 269.877L627.724 262.511L646.566 272.008Z" fill="#11556B" stroke="#F9F9F9"/>
<path d="M487.794 251.64L497.299 271.291L497.446 271.594L497.782 271.573L529.357 269.556L529.401 269.553L529.444 269.542L548.7 264.856L558.21 276.407L560.025 291.618L560.065 291.95L560.386 292.04L583.269 298.485L591.359 322.885L578.404 355.554L578.326 355.749L578.412 355.941L589.577 381.073L582.59 397.11L560.847 391.756L560.385 391.642L560.249 392.098L551.584 421.044L529.569 411.455L529.223 411.305L528.984 411.595L520.653 421.654L504.928 422.63L499.773 414.036L505.368 397.881L505.505 397.484L505.137 397.281L490.023 388.914L481.385 375.465L481.209 375.19L480.884 375.242L458.521 378.859L448.043 369.573L450.568 350.555L450.586 350.421L450.533 350.296L438.737 322.115L442.489 300.773L453.505 268.796L453.586 268.562L453.448 268.356L442.509 252.022L448.816 235.625L469.203 233.036L487.794 251.64Z" fill="white" stroke="#F9F9F9"/>
<path d="M371.274 100.642L375.815 153.6L371.814 159.198L371.788 159.233L371.769 159.272L359.883 184.086L349.363 199.195L321.035 206.153L316.846 196.667L316.782 196.522L316.644 196.44L297.519 185.051L298.325 154.914L298.327 154.834L298.303 154.757L293.977 140.323L293.921 140.136L293.753 140.036L281.416 132.697L289.934 116.162L310.261 105.283L335.224 100.279L335.311 100.261L335.386 100.215L355.354 88.0227L371.274 100.642Z" fill="white" stroke="#F9F9F9"/>
<path d="M210.333 137.577L210.432 137.78L210.649 137.84L263.835 152.6L263.995 152.645L264.15 152.584L293.519 141.144L297.666 154.984L296.855 185.333L296.848 185.626L297.1 185.776L316.34 197.233L320.634 206.955L320.649 206.991L320.671 207.025L328.81 219.664L316.783 237.643L316.671 237.812L316.707 238.011L318.287 246.712L295.739 234.499L295.687 234.471L295.629 234.455L277.574 229.689L264.933 215.969L264.74 215.76L264.462 215.819L230.639 222.944L213.203 215.931L213.109 215.893L213.009 215.895L189.326 216.236L185.51 204.617L186.646 157.976L186.65 157.836L186.581 157.715L175.354 138.062L174.487 116.171L198.453 113.119L210.333 137.577Z" fill="#FF9A00" stroke="#F9F9F9"/>
<path d="M423.25 20.3848L423.274 20.5469L423.388 20.6631L435.034 32.4727L435.247 32.6885L435.536 32.6006L453.614 27.1123L460.897 48.6035L461.019 48.9629L461.398 48.9424L471.418 48.3936L481.505 62.0898L481.636 62.2666L481.855 62.29L502.674 64.499L512.59 71.5078L508.62 94.6738L485.442 87.333L485.326 87.2959L485.207 87.3164L455.753 92.373L422.295 83.6514L378.491 61.79L378.363 61.7266L378.221 61.7402L370.877 62.4336L366.655 58.1484L368.616 18.7324L376.537 12.9717L420.361 0.634766L423.25 20.3848Z" fill="#11556B" stroke="#F9F9F9"/>
<path d="M421.895 84.5693L421.942 84.5928L421.992 84.6055L455.606 93.3682L455.71 93.3955L455.817 93.377L485.254 88.3223L508.865 95.8008L513.681 97.4258L514.87 114.217L497.207 144.43L481.809 152.367L481.443 152.556L481.558 152.951L484.836 164.263L472.963 191.959L455.818 178.607L455.451 171.472L455.423 170.928L454.883 171.002L430.682 174.347L393.942 161.256L393.885 161.235L393.825 161.229L373.47 159.095L377.08 154.046L377.188 153.896L377.172 153.713L372.596 100.357L372.577 100.142L372.408 100.008L356.393 87.3125L370.984 63.4268L378.172 62.748L421.895 84.5693Z" fill="#FF9A00" stroke="#F9F9F9"/>
<path d="M549.653 108.456L549.716 108.545L549.811 108.6L578.761 125.052L564.092 141.845L564.044 141.9L564.014 141.966L554.613 162.604L554.536 162.772L554.587 162.949L560.13 182.243L552.531 194.276L552.387 194.503L552.497 194.748L559.557 210.343L559.622 210.489L559.759 210.569L582.634 223.964L600.916 244.73L600.532 256.829L600.526 257.03L600.659 257.179L611.621 269.415L601.081 278.713L600.905 278.868L600.912 279.104L601.28 290.264L583.631 297.548L560.978 291.167L559.186 276.144L559.168 275.998L559.075 275.885L549.273 263.978L549.073 263.736L548.769 263.81L529.246 268.561L498.054 270.553L488.658 251.129L488.621 251.053L488.562 250.993L469.942 232.361L474.855 214.15L474.875 214.072L474.871 213.991L473.673 192.843L485.826 164.493L485.897 164.329L485.847 164.157L482.633 153.068L497.795 145.253L497.924 145.187L497.997 145.061L515.813 114.587L515.891 114.454L515.88 114.3L514.687 97.4866L539.171 93.8899L549.653 108.456Z" fill="#39A5C9" stroke="#F9F9F9"/>
<path d="M739.2 174.369L721.018 202.229L720.957 202.322L720.942 202.432L717.144 228.955L708.64 247.943L708.568 248.104L708.613 248.275L711.901 260.729L707.002 284.114L706.969 284.273L707.035 284.422L711.651 294.689L702.188 306.954L686.542 302.19L678.932 282.131L678.872 281.974L678.729 281.885L668.919 275.755L686.656 233.963L686.726 233.798L686.675 233.626L681.736 216.94L691.256 193.614L691.427 193.195L691.027 192.983L671.173 182.473L678.176 170.851L702.672 178.945L703.099 179.086L703.284 178.678L708.041 168.209L724.501 166.898L739.2 174.369Z" fill="white" stroke="#F9F9F9"/>
<path d="M584.239 134.785L584.424 135.131L584.804 135.034L602.681 130.484L613.083 138.279L613.301 138.442L613.557 138.349L628.177 132.938L644.732 139.544L656.162 161.233L656.273 161.445L656.509 161.491L674.541 165.005L674.669 165.029L674.792 164.989L695.946 158.051L707.099 167.865L702.559 177.854L678.111 169.776L677.732 169.65L677.526 169.992L670.044 182.41L669.771 182.862L670.238 183.109L690.159 193.655L680.744 216.727L680.678 216.889L680.727 217.058L685.664 233.737L668.068 275.202L653.954 265.767L653.653 265.566L653.368 265.789L646.732 270.973L627.953 261.507L627.732 261.396L627.509 261.504L612.451 268.843L601.538 256.661L601.922 244.563L601.929 244.365L601.798 244.217L583.332 223.243L583.278 223.184L583.209 223.143L560.401 209.786L553.518 194.582L561.097 182.588L561.216 182.398L561.154 182.183L555.599 162.851L564.892 142.448L579.44 125.794L584.239 134.785Z" fill="#FF9A00" stroke="#F9F9F9"/>
<path d="M313.145 473.069L313.32 473.271L313.586 473.237L326.909 471.535L343.399 490.184L337.596 499.225L337.43 499.484L337.587 499.75L350.499 521.611L349.76 533.683L323.08 562.085L322.919 562.256L322.948 562.489L324.813 577.297L313.288 596.999L278.157 607.32L248.035 610.937L247.635 610.985L247.596 611.386L245.959 628.619L245.947 628.745L245.997 628.861L257.618 656.295L255.496 668.994L244.105 682.15L244.049 682.216L244.017 682.296L235.444 704.263L221.098 708.344L167.869 676.825L147.766 654.934L157.755 650.531L157.899 650.468L157.98 650.333L168.314 633.274L168.356 633.204L168.375 633.125L184.557 561.118L192.26 538.088L192.322 537.899L192.239 537.719L188.07 528.719L194.774 477.341L199.984 474.469L220.531 491.035L220.609 491.097L220.705 491.126L237.135 495.928L238.786 505.566L238.829 505.816L239.056 505.929L253.446 513.065L253.705 513.194L253.946 513.033L280.306 495.378L280.475 495.264L280.517 495.064L283.247 482.008L294.67 475.309L294.781 475.244L294.847 475.133L302.995 461.36L313.145 473.069Z" fill="#39A5C9" stroke="#F9F9F9"/>
<path d="M286.431 352L286.528 352.12L286.677 352.163L310.074 358.925L335.112 393.478L336.66 403.605L313.867 417.713L313.505 417.937L313.668 418.331L320.824 435.506L302.517 460.21L302.501 460.232L302.487 460.253L294.052 474.512L282.551 481.257L282.359 481.369L282.314 481.585L279.579 494.66L253.63 512.041L239.729 505.146L238.069 495.453L238.017 495.144L237.717 495.057L221.239 490.24L217.971 480.039L217.93 479.911L217.829 479.82L192.792 457.292L203.471 431.113L203.573 430.863L203.42 430.64L194.059 417.06L200.047 405.528L222.251 407.164L222.584 407.188L222.733 406.89L232.449 387.619L232.544 387.432L232.477 387.234L220.815 352.622L236.768 342.578L272.708 335.389L286.431 352Z" fill="#FF9A00" stroke="#F9F9F9"/>
<rect x="369.449" y="296.924" width="6.35544" height="6.35544" fill="#D9D9D9" stroke="#F9F9F9"/>
<path d="M402.629 402.264L418.851 423.333L420.79 438.795L408.474 452.474L408.215 452.763L408.43 453.086L416.677 465.49L414.117 487.729L396.391 504.478L396.31 504.554L396.269 504.657L388.066 525.344L373.809 529.238L351.347 521.078L338.604 499.505L344.445 490.406L344.649 490.088L344.399 489.805L327.484 470.675L327.308 470.477L327.046 470.51L313.724 472.211L303.557 460.482L321.797 435.874L321.966 435.646L321.856 435.384L314.755 418.339L337.29 404.391L351.118 407.747L351.243 407.777L351.368 407.743L375.516 401.127L402.629 402.264Z" fill="white" stroke="#F9F9F9"/>
<path d="M474.321 540.158L474.495 540.406L474.795 540.365L490.728 538.262L498.005 546.054L500.731 558.887L500.755 559.002L500.828 559.094L523.003 586.987L523.245 587.291L523.6 587.131L538.349 580.496L547.127 586.102L559.421 609.892L544.654 635.635L522.57 655.363L502.512 650.823L502.267 650.767L502.076 650.931L477.552 671.995L467.133 672.359L466.905 672.366L466.762 672.543L449.369 693.928L449.263 694.059L449.258 694.228L447.729 741.104L412.651 752.314L398.531 743.821L398.289 743.675L398.039 743.807L385.566 750.413L369.244 732.443L389.872 724.731L390.38 724.54L390.149 724.049L381.966 706.666L379.893 685.346L379.873 685.142L379.715 685.01L363.859 671.823L374.257 657.99L387.287 662.197L387.473 662.256L387.651 662.175L399.25 656.84L417.885 660.282L418.331 660.365L418.456 659.929L421.988 647.672L449.592 636.941L449.709 636.895L449.79 636.799L473.971 608.528L474.164 608.301L474.058 608.023L468.213 592.819L468.145 592.641L467.975 592.553L453.859 585.303L454.475 570.972L454.482 570.826L454.408 570.699L445.037 554.579L452.462 534.184L466.063 528.448L474.321 540.158Z" fill="white" stroke="#F9F9F9"/>
<path d="M373.619 530.232L373.768 530.287L373.921 530.245L388.079 526.377L395.653 556.087L395.755 556.489L396.169 556.463L410.971 555.508L411.206 555.493L411.344 555.302L429.587 530.027L444.055 554.88V554.881L453.469 571.075L452.847 585.581L452.833 585.9L453.119 586.047L467.348 593.355L473.017 608.103L449.111 636.054L421.395 646.831L421.164 646.921L421.095 647.159L417.62 659.216L399.276 655.828L399.12 655.8L398.976 655.866L387.41 661.184L374.225 656.928L373.886 656.819L373.672 657.104L362.775 671.603L362.489 671.984L362.854 672.288L378.917 685.647L380.98 706.85L380.989 706.936L381.025 707.015L389.013 723.983L368.399 731.69L339.518 718.3L339.398 718.244L339.266 718.255L329.024 719.121L300.749 705.495L300.142 705.202L300.038 705.868L298.073 718.466L266.483 715.099L266.374 715.089L266.27 715.123L254.548 719.081L236.418 704.516L244.917 682.739L256.344 669.542L256.437 669.435L256.459 669.297L258.628 656.315L258.653 656.173L258.595 656.038L246.966 628.587L248.553 611.882L278.32 608.308L278.362 608.303L278.401 608.292L313.761 597.902L313.952 597.846L314.052 597.675L325.762 577.656L325.848 577.51L325.828 577.341L323.97 562.597L350.614 534.237L350.737 534.105L350.747 533.925L351.466 522.185L373.619 530.232Z" fill="#FF9A00" stroke="#F9F9F9"/>
<path d="M458.036 379.764L458.213 379.921L458.447 379.884L480.721 376.281L489.251 389.562L489.319 389.667L489.429 389.729L504.286 397.951L498.752 413.929L498.739 413.969L498.732 414.01L494.75 437.76L487.235 456.374L487.125 456.645L487.308 456.874L502.788 476.167L507.251 494.322L507.361 494.767L507.814 494.697L524.686 492.069L535.063 502.976L515.925 534.099L498.547 545.167L491.284 537.392L491.109 537.204L490.853 537.238L474.963 539.334L466.648 527.544L466.417 527.215L466.045 527.372L451.874 533.347L451.672 533.432L451.597 533.636L444.383 553.455L430.065 528.86L429.677 528.196L429.227 528.819L410.671 554.525L396.52 555.437L388.963 525.794L397.158 505.128L414.936 488.331L415.069 488.206L415.089 488.024L417.692 465.424L417.713 465.243L417.612 465.09L409.476 452.854L421.687 439.294L421.84 439.125L421.812 438.898L419.828 423.076L419.811 422.941L419.728 422.833L403.548 401.819L422.036 383.68L447.44 370.374L458.036 379.764Z" fill="#11556B" stroke="#F9F9F9"/>
<path d="M582.571 398.135L592.603 413.296L592.768 413.546L593.068 413.517L618.983 411.001L619.202 410.98L619.334 410.803L627.766 399.573L641.803 414.919L642.286 415.447L642.615 414.811L647.729 404.946L666.737 398.44L675.295 408.299L673.005 421.37L672.958 421.637L673.157 421.823L685.688 433.472L675.681 457.879L675.579 458.126L675.73 458.348L686.887 474.876L686.942 474.957L687.023 475.01L698.304 482.574L696.242 495.226L679.602 506.959L666.424 509.109L666.342 509.122L666.269 509.161L647.684 519.052L647.64 519.075L647.601 519.107L619.885 541.978L619.855 542.003L619.829 542.032L594.238 570.912L593.836 571.366L594.359 571.675L607.121 579.181L593.033 589.982L573.026 581.455L572.822 581.368L572.621 581.46L557.73 588.268L547.721 585.294L538.66 579.509L538.432 579.363L538.186 579.474L523.544 586.059L501.685 558.563L499.026 546.048L516.561 534.88L516.657 534.818L516.718 534.72L536.116 503.173L536.318 502.845L536.053 502.566L525.232 491.19L525.051 491.001L524.792 491.041L508.112 493.637L503.734 475.821L503.707 475.714L503.638 475.628L488.272 456.476L495.698 438.085L495.719 438.034L495.728 437.98L499.493 415.512L504.229 423.406L504.385 423.666L504.689 423.647L520.932 422.638L521.148 422.626L521.285 422.459L529.514 412.521L551.701 422.186L552.219 422.411L552.38 421.871L561.07 392.84L582.571 398.135Z" fill="#39A5C9" stroke="#F9F9F9"/>
<path d="M820.296 665.445L824.478 702.967L816.893 716.284L816.826 716.402L816.828 716.539L817.216 742.219L808.581 767.314L780.135 753.481L774.64 739.961L778.528 723.849L778.585 723.618L778.439 723.429L762.99 703.211L766.425 672.402L791.47 653.504L807.282 650.298L820.296 665.445Z" fill="#11556B" stroke="#F9F9F9"/>
<path d="M393.661 162.218L430.462 175.331L430.577 175.372L430.698 175.355L454.479 172.067L454.832 178.888L454.844 179.115L455.023 179.256L472.682 193.008L473.867 213.968L468.988 232.057L448.394 234.671L448.097 234.709L447.989 234.987L441.596 251.612L419.327 253.445L412.819 240.057L412.676 239.762L412.349 239.775L388.856 240.767L385.584 227.672L385.551 227.539L385.455 227.442L366.418 208.079L361.184 184.42L372.862 160.037L393.661 162.218Z" fill="#11556B" stroke="#F9F9F9"/>
<path d="M276.939 230.474L277.037 230.582L277.178 230.619L295.313 235.406L318.444 247.935L316.29 277.895L293.013 300.076L284.828 296.449L284.314 296.221L284.148 296.758L272.513 334.408L236.481 341.616L236.39 341.634L236.313 341.683L219.949 351.986L219.616 352.196L219.742 352.569L231.462 387.356L221.99 406.141L199.791 404.507L199.61 404.494L199.461 404.601L194.896 407.917L160.549 386.681L158.618 376.854L158.594 376.73L158.513 376.632L143.059 357.894L153.458 340.772L153.654 340.45L153.399 340.173L135.826 321.118L128.177 302.941L148.523 297.344L148.805 297.267L148.875 296.984L151.352 287.086L172.213 284.333L172.309 284.321L172.392 284.274L213.814 261.11L214.115 260.942L214.064 260.601L210.701 237.722L213.427 217.099L230.406 223.929L230.548 223.986L230.697 223.955L264.39 216.856L276.939 230.474Z" fill="#11556B" stroke="#F9F9F9"/>
<path d="M120.813 209.066L121.067 209.413L121.448 209.214L143.21 197.877L162.558 198.683L184.615 205.099L188.491 216.898L188.605 217.247L188.973 217.242L212.444 216.902L209.701 237.661L209.692 237.73L209.702 237.798L213.023 260.405L171.986 283.354L150.884 286.14L150.547 286.184L150.464 286.514L147.976 296.457L127.627 302.054L110.026 286.07L109.853 285.912L109.619 285.946L89.9131 288.811L85.793 280.694L85.7148 280.54L85.5586 280.467L46.6533 262.345L46.543 262.294L46.4229 262.299L19.9883 263.324L16.3896 247.564L27.8574 235.776L28.2031 235.419L27.8496 235.071L0.588867 208.205L5.1377 197.073L27.3623 188.978L56.9219 188.558L70.7842 193.345L71.0928 193.452L71.3135 193.212L80.6885 183.117L98.5977 178.689L120.813 209.066Z" fill="#39A5C9" stroke="#F9F9F9"/>
<path d="M674.163 526.822L674.257 527.017L674.463 527.084L690.041 532.033L685.33 571.889L685.309 572.069L685.408 572.22L692.878 583.727L692.96 583.853L693.1 583.914L734.727 601.892L727.232 619.652L705.528 632.246L705.444 632.295L705.384 632.371L690.796 651.065L679.938 654.553L679.678 654.637L679.608 654.901L674.095 675.592L642.586 684.887L623.085 683.052L594.231 665.76L594.113 665.689L593.974 665.688L562.233 665.624L543.295 656.305L543.202 656.259L543.096 656.255L523.964 655.459L545.381 636.327L545.442 636.272L545.482 636.203L560.424 610.154L560.56 609.918L560.435 609.676L548.494 586.567L557.625 589.28L557.805 589.334L557.976 589.256L572.836 582.461L592.91 591.017L593.178 591.133L593.411 590.955L608.32 579.524L608.909 579.073L608.269 578.697L595.39 571.12L620.551 542.724L648.197 519.911L666.278 510.288L674.163 526.822Z" fill="#FF9A00" stroke="#F9F9F9"/>
<path d="M365.472 208.434L365.503 208.574L365.604 208.677L384.646 228.044L387.987 241.404L388.085 241.8L388.493 241.782L412.063 240.788L418.578 254.19L418.728 254.498L419.069 254.469L441.698 252.606L452.479 268.705L441.532 300.484L441.519 300.521L441.512 300.56L437.728 322.087L437.703 322.231L437.759 322.366L449.558 350.556L447.05 369.448L421.506 382.83L421.441 382.864L421.388 382.916L402.686 401.264L375.481 400.124L375.403 400.121L375.328 400.141L351.227 406.744L337.648 403.448L336.083 393.207L336.065 393.087L335.994 392.989L310.783 358.199L310.682 358.059L310.517 358.011L287.103 351.243L273.46 334.728L284.936 297.59L292.913 301.126L293.218 301.26L293.46 301.03L317.12 278.484L317.26 278.351L317.275 278.158L319.464 247.684L319.469 247.622L319.458 247.559L317.726 238.029L329.824 219.947L330.006 219.675L329.828 219.399L321.891 207.071L350.129 200.135L350.313 200.091L350.42 199.936L360.416 185.581L365.472 208.434Z" fill="#39A5C9" stroke="#F9F9F9"/>
</svg>
