<svg width="864" height="808" viewBox="0 0 864 808" fill="none" xmlns="http://www.w3.org/2000/svg">
<path d="M715.566 272.008L715.849 272.15L716.099 271.955L722.698 266.799L737.015 276.369L737.022 276.374L737.028 276.378L747.055 282.642L754.641 302.633L751.448 316.229L728.291 346.582L716.461 353.451L716.194 353.606L716.213 353.916L717.14 367.999L698.628 384.56L698.496 384.678L698.468 384.853L696.254 398.59L687.666 410.026L662.27 412.492L652.447 397.646L659.582 381.271L659.67 381.069L659.58 380.868L648.411 355.727L661.356 323.085L661.423 322.915L661.366 322.743L653.283 298.36L670.982 291.056L671.302 290.924L671.291 290.577L670.918 279.307L681.611 269.877L696.724 262.511L715.566 272.008Z" fill="#11556B" stroke="#F9F9F9"/>
<path d="M556.794 251.64L566.299 271.291L566.446 271.594L566.782 271.573L598.357 269.556L598.401 269.553L598.444 269.542L617.7 264.856L627.21 276.407L629.025 291.618L629.065 291.95L629.386 292.04L652.269 298.485L660.359 322.885L647.404 355.554L647.326 355.749L647.412 355.941L658.577 381.073L651.59 397.11L629.847 391.756L629.385 391.642L629.249 392.098L620.584 421.044L598.569 411.455L598.223 411.305L597.984 411.595L589.653 421.654L573.928 422.63L568.773 414.036L574.368 397.881L574.505 397.484L574.137 397.281L559.023 388.914L550.385 375.465L550.209 375.19L549.884 375.242L527.521 378.859L517.043 369.573L519.568 350.555L519.586 350.421L519.533 350.296L507.737 322.115L511.489 300.773L522.505 268.796L522.586 268.562L522.448 268.356L511.509 252.022L517.816 235.625L538.203 233.036L556.794 251.64Z" fill="#FDB74C" stroke="#F9F9F9"/>
<path d="M440.274 100.642L444.815 153.6L440.814 159.198L440.788 159.233L440.769 159.272L428.883 184.086L418.363 199.195L390.035 206.153L385.846 196.667L385.782 196.522L385.644 196.44L366.519 185.051L367.325 154.914L367.327 154.834L367.303 154.757L362.977 140.323L362.921 140.136L362.753 140.036L350.416 132.697L358.934 116.162L379.261 105.283L404.224 100.279L404.311 100.261L404.386 100.215L424.354 88.0227L440.274 100.642Z" fill="#FDB74C" stroke="#F9F9F9"/>
<path d="M279.333 137.577L279.432 137.78L279.649 137.84L332.835 152.6L332.995 152.645L333.15 152.584L362.519 141.144L366.666 154.984L365.855 185.333L365.848 185.626L366.1 185.776L385.34 197.233L389.634 206.955L389.649 206.991L389.671 207.025L397.81 219.664L385.783 237.643L385.671 237.812L385.707 238.011L387.287 246.712L364.739 234.499L364.687 234.471L364.629 234.455L346.574 229.689L333.933 215.969L333.74 215.76L333.462 215.819L299.639 222.944L282.203 215.931L282.109 215.893L282.009 215.895L258.326 216.236L254.51 204.617L255.646 157.976L255.65 157.836L255.581 157.715L244.354 138.062L243.487 116.171L267.453 113.119L279.333 137.577Z" fill="#FF9A00" stroke="#F9F9F9"/>
<path d="M492.25 20.3848L492.274 20.5469L492.388 20.6631L504.034 32.4727L504.247 32.6885L504.536 32.6006L522.614 27.1123L529.897 48.6035L530.019 48.9629L530.398 48.9424L540.418 48.3936L550.505 62.0898L550.636 62.2666L550.855 62.29L571.674 64.499L581.59 71.5078L577.62 94.6738L554.442 87.333L554.326 87.2959L554.207 87.3164L524.753 92.373L491.295 83.6514L447.491 61.79L447.363 61.7266L447.221 61.7402L439.877 62.4336L435.655 58.1484L437.616 18.7324L445.537 12.9717L489.361 0.634766L492.25 20.3848Z" fill="#11556B" stroke="#F9F9F9"/>
<path d="M490.895 84.5693L490.942 84.5928L490.992 84.6055L524.606 93.3682L524.71 93.3955L524.817 93.377L554.254 88.3223L577.865 95.8008L582.681 97.4258L583.87 114.217L566.207 144.43L550.809 152.367L550.443 152.556L550.558 152.951L553.836 164.263L541.963 191.959L524.818 178.607L524.451 171.472L524.423 170.928L523.883 171.002L499.682 174.347L462.942 161.256L462.885 161.235L462.825 161.229L442.47 159.095L446.08 154.046L446.188 153.896L446.172 153.713L441.596 100.357L441.577 100.142L441.408 100.008L425.393 87.3125L439.984 63.4268L447.172 62.748L490.895 84.5693Z" fill="#FF9A00" stroke="#F9F9F9"/>
<path d="M618.653 108.456L618.716 108.545L618.811 108.6L647.761 125.052L633.092 141.845L633.044 141.9L633.014 141.966L623.613 162.604L623.536 162.772L623.587 162.949L629.13 182.243L621.531 194.276L621.387 194.503L621.497 194.748L628.557 210.343L628.622 210.489L628.759 210.569L651.634 223.964L669.916 244.73L669.532 256.829L669.526 257.03L669.659 257.179L680.621 269.415L670.081 278.713L669.905 278.868L669.912 279.104L670.28 290.264L652.631 297.548L629.978 291.167L628.186 276.144L628.168 275.998L628.075 275.885L618.273 263.978L618.073 263.736L617.769 263.81L598.246 268.561L567.054 270.553L557.658 251.129L557.621 251.053L557.562 250.993L538.942 232.361L543.855 214.15L543.875 214.072L543.871 213.991L542.673 192.843L554.826 164.493L554.897 164.329L554.847 164.157L551.633 153.068L566.795 145.253L566.924 145.187L566.997 145.061L584.813 114.587L584.891 114.454L584.88 114.3L583.687 97.4866L608.171 93.8899L618.653 108.456Z" fill="#39A5C9" stroke="#F9F9F9"/>
<path d="M808.2 174.369L790.018 202.229L789.957 202.322L789.942 202.432L786.144 228.955L777.64 247.943L777.568 248.104L777.613 248.275L780.901 260.729L776.002 284.114L775.969 284.273L776.035 284.422L780.651 294.689L771.188 306.954L755.542 302.19L747.932 282.131L747.872 281.974L747.729 281.885L737.919 275.755L755.656 233.963L755.726 233.798L755.675 233.626L750.736 216.94L760.256 193.614L760.427 193.195L760.027 192.983L740.173 182.473L747.176 170.851L771.672 178.945L772.099 179.086L772.284 178.678L777.041 168.209L793.501 166.898L808.2 174.369Z" fill="#FDB74C" stroke="#F9F9F9"/>
<path d="M653.239 134.785L653.424 135.131L653.804 135.034L671.681 130.484L682.083 138.279L682.301 138.442L682.557 138.349L697.177 132.938L713.732 139.544L725.162 161.233L725.273 161.445L725.509 161.491L743.541 165.005L743.669 165.029L743.792 164.989L764.946 158.051L776.099 167.865L771.559 177.854L747.111 169.776L746.732 169.65L746.526 169.992L739.044 182.41L738.771 182.862L739.238 183.109L759.159 193.655L749.744 216.727L749.678 216.889L749.727 217.058L754.664 233.737L737.068 275.202L722.954 265.767L722.653 265.566L722.368 265.789L715.732 270.973L696.953 261.507L696.732 261.396L696.509 261.504L681.451 268.843L670.538 256.661L670.922 244.563L670.929 244.365L670.798 244.217L652.332 223.243L652.278 223.184L652.209 223.143L629.401 209.786L622.518 194.582L630.097 182.588L630.216 182.398L630.154 182.183L624.599 162.851L633.892 142.448L648.44 125.794L653.239 134.785Z" fill="#FF9A00" stroke="#F9F9F9"/>
<path d="M382.145 473.069L382.32 473.271L382.586 473.237L395.909 471.535L412.399 490.184L406.596 499.225L406.43 499.484L406.587 499.75L419.499 521.611L418.76 533.683L392.08 562.085L391.919 562.256L391.948 562.489L393.813 577.297L382.288 596.999L347.157 607.32L317.035 610.937L316.635 610.985L316.596 611.386L314.959 628.619L314.947 628.745L314.997 628.861L326.618 656.295L324.496 668.994L313.105 682.15L313.049 682.216L313.017 682.296L304.444 704.263L290.098 708.344L236.869 676.825L216.766 654.934L226.755 650.531L226.899 650.468L226.98 650.333L237.314 633.274L237.356 633.204L237.375 633.125L253.557 561.118L261.26 538.088L261.322 537.899L261.239 537.719L257.07 528.719L263.774 477.341L268.984 474.469L289.531 491.035L289.609 491.097L289.705 491.126L306.135 495.928L307.786 505.566L307.829 505.816L308.056 505.929L322.446 513.065L322.705 513.194L322.946 513.033L349.306 495.378L349.475 495.264L349.517 495.064L352.247 482.008L363.67 475.309L363.781 475.244L363.847 475.133L371.995 461.36L382.145 473.069Z" fill="#39A5C9" stroke="#F9F9F9"/>
<path d="M355.431 352L355.528 352.12L355.677 352.163L379.074 358.925L404.112 393.478L405.66 403.605L382.867 417.713L382.505 417.937L382.668 418.331L389.824 435.506L371.517 460.21L371.501 460.232L371.487 460.253L363.052 474.512L351.551 481.257L351.359 481.369L351.314 481.585L348.579 494.66L322.63 512.041L308.729 505.146L307.069 495.453L307.017 495.144L306.717 495.057L290.239 490.24L286.971 480.039L286.93 479.911L286.829 479.82L261.792 457.292L272.471 431.113L272.573 430.863L272.42 430.64L263.059 417.06L269.047 405.528L291.251 407.164L291.584 407.188L291.733 406.89L301.449 387.619L301.544 387.432L301.477 387.234L289.815 352.622L305.768 342.578L341.708 335.389L355.431 352Z" fill="#FF9A00" stroke="#F9F9F9"/>
<rect x="438.449" y="296.924" width="6.35544" height="6.35544" fill="#D9D9D9" stroke="#F9F9F9"/>
<path d="M471.629 402.264L487.851 423.333L489.79 438.795L477.474 452.474L477.215 452.763L477.43 453.086L485.677 465.49L483.117 487.729L465.391 504.478L465.31 504.554L465.269 504.657L457.066 525.344L442.809 529.238L420.347 521.078L407.604 499.505L413.445 490.406L413.649 490.088L413.399 489.805L396.484 470.675L396.308 470.477L396.046 470.51L382.724 472.211L372.557 460.482L390.797 435.874L390.966 435.646L390.856 435.384L383.755 418.339L406.29 404.391L420.118 407.747L420.243 407.777L420.368 407.743L444.516 401.127L471.629 402.264Z" fill="#FDB74C" stroke="#F9F9F9"/>
<path d="M543.321 540.158L543.495 540.406L543.795 540.365L559.728 538.262L567.005 546.054L569.731 558.887L569.755 559.002L569.828 559.094L592.003 586.987L592.245 587.291L592.6 587.131L607.349 580.496L616.127 586.102L628.421 609.892L613.654 635.635L591.57 655.363L571.512 650.823L571.267 650.767L571.076 650.931L546.552 671.995L536.133 672.359L535.905 672.366L535.762 672.543L518.369 693.928L518.263 694.059L518.258 694.228L516.729 741.104L481.651 752.314L467.531 743.821L467.289 743.675L467.039 743.807L454.566 750.413L438.244 732.443L458.872 724.731L459.38 724.54L459.149 724.049L450.966 706.666L448.893 685.346L448.873 685.142L448.715 685.01L432.859 671.823L443.257 657.99L456.287 662.197L456.473 662.256L456.651 662.175L468.25 656.84L486.885 660.282L487.331 660.365L487.456 659.929L490.988 647.672L518.592 636.941L518.709 636.895L518.79 636.799L542.971 608.528L543.164 608.301L543.058 608.023L537.213 592.819L537.145 592.641L536.975 592.553L522.859 585.303L523.475 570.972L523.482 570.826L523.408 570.699L514.037 554.579L521.462 534.184L535.063 528.448L543.321 540.158Z" fill="#FDB74C" stroke="#F9F9F9"/>
<path d="M442.619 530.232L442.768 530.287L442.921 530.245L457.079 526.377L464.653 556.087L464.755 556.489L465.169 556.463L479.971 555.508L480.206 555.493L480.344 555.302L498.587 530.027L513.055 554.88V554.881L522.469 571.075L521.847 585.581L521.833 585.9L522.119 586.047L536.348 593.355L542.017 608.103L518.111 636.054L490.395 646.831L490.164 646.921L490.095 647.159L486.62 659.216L468.276 655.828L468.12 655.8L467.976 655.866L456.41 661.184L443.225 656.928L442.886 656.819L442.672 657.104L431.775 671.603L431.489 671.984L431.854 672.288L447.917 685.647L449.98 706.85L449.989 706.936L450.025 707.015L458.013 723.983L437.399 731.69L408.518 718.3L408.398 718.244L408.266 718.255L398.024 719.121L369.749 705.495L369.142 705.202L369.038 705.868L367.073 718.466L335.483 715.099L335.374 715.089L335.27 715.123L323.548 719.081L305.418 704.516L313.917 682.739L325.344 669.542L325.437 669.435L325.459 669.297L327.628 656.315L327.653 656.173L327.595 656.038L315.966 628.587L317.553 611.882L347.32 608.308L347.362 608.303L347.401 608.292L382.761 597.902L382.952 597.846L383.052 597.675L394.762 577.656L394.848 577.51L394.828 577.341L392.97 562.597L419.614 534.237L419.737 534.105L419.747 533.925L420.466 522.185L442.619 530.232Z" fill="#FF9A00" stroke="#F9F9F9"/>
<path d="M527.036 379.764L527.213 379.921L527.447 379.884L549.721 376.281L558.251 389.562L558.319 389.667L558.429 389.729L573.286 397.951L567.752 413.929L567.739 413.969L567.732 414.01L563.75 437.76L556.235 456.374L556.125 456.645L556.308 456.874L571.788 476.167L576.251 494.322L576.361 494.767L576.814 494.697L593.686 492.069L604.063 502.976L584.925 534.099L567.547 545.167L560.284 537.392L560.109 537.204L559.853 537.238L543.963 539.334L535.648 527.544L535.417 527.215L535.045 527.372L520.874 533.347L520.672 533.432L520.597 533.636L513.383 553.455L499.065 528.86L498.677 528.196L498.227 528.819L479.671 554.525L465.52 555.437L457.963 525.794L466.158 505.128L483.936 488.331L484.069 488.206L484.089 488.024L486.692 465.424L486.713 465.243L486.612 465.09L478.476 452.854L490.687 439.294L490.84 439.125L490.812 438.898L488.828 423.076L488.811 422.941L488.728 422.833L472.548 401.819L491.036 383.68L516.44 370.374L527.036 379.764Z" fill="#11556B" stroke="#F9F9F9"/>
<path d="M651.571 398.135L661.603 413.296L661.768 413.546L662.068 413.517L687.983 411.001L688.202 410.98L688.334 410.803L696.766 399.573L710.803 414.919L711.286 415.447L711.615 414.811L716.729 404.946L735.737 398.44L744.295 408.299L742.005 421.37L741.958 421.637L742.157 421.823L754.688 433.472L744.681 457.879L744.579 458.126L744.73 458.348L755.887 474.876L755.942 474.957L756.023 475.01L767.304 482.574L765.242 495.226L748.602 506.959L735.424 509.109L735.342 509.122L735.269 509.161L716.684 519.052L716.64 519.075L716.601 519.107L688.885 541.978L688.855 542.003L688.829 542.032L663.238 570.912L662.836 571.366L663.359 571.675L676.121 579.181L662.033 589.982L642.026 581.455L641.822 581.368L641.621 581.46L626.73 588.268L616.721 585.294L607.66 579.509L607.432 579.363L607.186 579.474L592.544 586.059L570.685 558.563L568.026 546.048L585.561 534.88L585.657 534.818L585.718 534.72L605.116 503.173L605.318 502.845L605.053 502.566L594.232 491.19L594.051 491.001L593.792 491.041L577.112 493.637L572.734 475.821L572.707 475.714L572.638 475.628L557.272 456.476L564.698 438.085L564.719 438.034L564.728 437.98L568.493 415.512L573.229 423.406L573.385 423.666L573.689 423.647L589.932 422.638L590.148 422.626L590.285 422.459L598.514 412.521L620.701 422.186L621.219 422.411L621.38 421.871L630.07 392.84L651.571 398.135Z" fill="#39A5C9" stroke="#F9F9F9"/>
<path d="M462.661 162.218L499.462 175.331L499.577 175.372L499.698 175.355L523.479 172.067L523.832 178.888L523.844 179.115L524.023 179.256L541.682 193.008L542.867 213.968L537.988 232.057L517.394 234.671L517.097 234.709L516.989 234.987L510.596 251.612L488.327 253.445L481.819 240.057L481.676 239.762L481.349 239.775L457.856 240.767L454.584 227.672L454.551 227.539L454.455 227.442L435.418 208.079L430.184 184.42L441.862 160.037L462.661 162.218Z" fill="#11556B" stroke="#F9F9F9"/>
<path d="M345.939 230.474L346.037 230.582L346.178 230.619L364.313 235.406L387.444 247.935L385.29 277.895L362.013 300.076L353.828 296.449L353.314 296.221L353.148 296.758L341.513 334.408L305.481 341.616L305.39 341.634L305.313 341.683L288.949 351.986L288.616 352.196L288.742 352.569L300.462 387.356L290.99 406.141L268.791 404.507L268.61 404.494L268.461 404.601L263.896 407.917L229.549 386.681L227.618 376.854L227.594 376.73L227.513 376.632L212.059 357.894L222.458 340.772L222.654 340.45L222.399 340.173L204.826 321.118L197.177 302.941L217.523 297.344L217.805 297.267L217.875 296.984L220.352 287.086L241.213 284.333L241.309 284.321L241.392 284.274L282.814 261.11L283.115 260.942L283.064 260.601L279.701 237.722L282.427 217.099L299.406 223.929L299.548 223.986L299.697 223.955L333.39 216.856L345.939 230.474Z" fill="#11556B" stroke="#F9F9F9"/>
<path d="M189.813 209.066L190.067 209.413L190.448 209.214L212.21 197.877L231.558 198.683L253.615 205.099L257.491 216.898L257.605 217.247L257.973 217.242L281.444 216.902L278.701 237.661L278.692 237.73L278.702 237.798L282.023 260.405L240.986 283.354L219.884 286.14L219.547 286.184L219.464 286.514L216.976 296.457L196.627 302.054L179.026 286.07L178.853 285.912L178.619 285.946L158.913 288.811L154.793 280.694L154.715 280.54L154.559 280.467L115.653 262.345L115.543 262.294L115.423 262.299L88.9883 263.324L85.3896 247.564L96.8574 235.776L97.2031 235.419L96.8496 235.071L69.5889 208.205L74.1377 197.073L96.3623 188.978L125.922 188.558L139.784 193.345L140.093 193.452L140.313 193.212L149.688 183.117L167.598 178.689L189.813 209.066Z" fill="#39A5C9" stroke="#F9F9F9"/>
<path d="M743.163 526.822L743.257 527.017L743.463 527.084L759.041 532.033L754.33 571.889L754.309 572.069L754.408 572.22L761.878 583.727L761.96 583.853L762.1 583.914L803.727 601.892L796.232 619.652L774.528 632.246L774.444 632.295L774.384 632.371L759.796 651.065L748.938 654.553L748.678 654.637L748.608 654.901L743.095 675.592L711.586 684.887L692.085 683.052L663.231 665.76L663.113 665.689L662.974 665.688L631.233 665.624L612.295 656.305L612.202 656.259L612.096 656.255L592.964 655.459L614.381 636.327L614.442 636.272L614.482 636.203L629.424 610.154L629.56 609.918L629.435 609.676L617.494 586.567L626.625 589.28L626.805 589.334L626.976 589.256L641.836 582.461L661.91 591.017L662.178 591.133L662.411 590.955L677.32 579.524L677.909 579.073L677.269 578.697L664.39 571.12L689.551 542.724L717.197 519.911L735.278 510.288L743.163 526.822Z" fill="#FF9A00" stroke="#F9F9F9"/>
<path d="M434.472 208.434L434.503 208.574L434.604 208.677L453.646 228.044L456.987 241.404L457.085 241.8L457.493 241.782L481.063 240.788L487.578 254.19L487.728 254.498L488.069 254.469L510.698 252.606L521.479 268.705L510.532 300.484L510.519 300.521L510.512 300.56L506.728 322.087L506.703 322.231L506.759 322.366L518.558 350.556L516.05 369.448L490.506 382.83L490.441 382.864L490.388 382.916L471.686 401.264L444.481 400.124L444.403 400.121L444.328 400.141L420.227 406.744L406.648 403.448L405.083 393.207L405.065 393.087L404.994 392.989L379.783 358.199L379.682 358.059L379.517 358.011L356.103 351.243L342.46 334.728L353.936 297.59L361.913 301.126L362.218 301.26L362.46 301.03L386.12 278.484L386.26 278.351L386.275 278.158L388.464 247.684L388.469 247.622L388.458 247.559L386.726 238.029L398.824 219.947L399.006 219.675L398.828 219.399L390.891 207.071L419.129 200.135L419.313 200.091L419.42 199.936L429.416 185.581L434.472 208.434Z" fill="#39A5C9" stroke="#F9F9F9"/>
<g clip-path="url(#clip0_2176_388)">
<path d="M107.025 622.212C107.025 622.212 107.872 639.437 108.531 641.037C109.19 642.637 111.637 648.943 111.637 648.943L117.661 636.99L113.143 620.519L107.025 622.212Z" fill="#874538"/>
<path d="M96.6448 468.491C84.043 487.321 92.5932 486.516 100.067 546.57L106.792 625.307L112.359 624.83C112.359 624.83 115.814 551.252 114.361 543.001C112.909 534.75 103.424 481.696 103.424 481.696L96.6448 468.491Z" fill="#874538"/>
<path d="M97.1309 464.16C97.1309 464.16 88.8964 468.881 87.173 488.217C87.173 488.217 89.2559 492.868 100.203 496.784C111.15 500.701 97.1309 464.16 97.1309 464.16Z" fill="#FDB74C"/>
<path d="M120.59 662.326C118.839 662.228 117.102 661.895 115.438 661.337C113.394 660.65 111.338 659.497 110.408 657.55C109.74 656.153 109.742 654.541 109.758 652.992C110.019 627.376 113.851 600.054 119.935 575.104C128.51 539.938 149.333 596.485 149.333 596.485C149.786 597.716 147.189 602.51 146.776 603.696C144.743 609.536 142.777 615.401 140.902 621.293C136.761 634.318 136.188 650.284 126.775 660.515C126.303 661.029 125.803 661.542 125.177 661.852C124.574 662.151 123.89 662.243 123.218 662.296C122.344 662.365 121.466 662.376 120.59 662.326Z" fill="#CFD8DC"/>
<path d="M189.491 635.884C189.039 643.825 187.567 651.704 184.7 659.143C183.885 661.259 182.933 663.376 181.389 665.037C178.457 668.191 173.445 669.186 169.532 667.392C163.03 664.41 163.577 657.369 163.129 651.375C162.566 643.844 161.7 636.271 160.539 628.809C160.508 628.61 155.58 596.949 151.686 594.644C149.335 593.252 130.355 542.03 130.355 542.03L171.384 543.939C171.384 543.939 195.284 563.797 189.009 599.147C189.009 599.147 189.034 599.51 189.066 600.145C189.281 604.368 188.893 608.058 188.561 612.173C188.162 617.114 189.458 622.329 189.603 627.305C189.686 630.16 189.655 633.026 189.491 635.884Z" fill="#CFD8DC"/>
<path d="M122.326 542.208C122.326 542.208 110.028 568.256 111.078 614.762C111.078 614.762 133.26 624.212 145.413 619.168L152.184 603.992L158.901 624.374C158.901 624.374 182.622 628.959 189.965 619.657C189.965 619.657 199.938 561.199 177.573 536.09L122.326 542.208Z" fill="#1D1D1D"/>
<path d="M177.57 536.084C177.57 536.084 157.499 554.843 122.331 542.213C122.331 542.213 119.119 522.24 107.547 513.428C95.9755 504.616 89.1798 488.109 95.896 465.942C95.896 465.942 97.3648 462.791 103.219 459.03C107.389 456.367 113.813 453.372 123.545 451.022C129.556 449.573 134.785 449.044 139.23 449.279C152.036 449.945 158.576 456.857 160.065 465.942C162.061 478.181 170.697 522.866 177.57 536.084Z" fill="#FDB74C"/>
<path d="M106.631 624.348C106.631 624.348 105.505 632.302 106.702 634.167C107.899 636.032 110.598 641.525 111.257 643.383C111.257 643.383 113.458 642.292 109.811 635.616C109.811 635.616 113.568 627.625 111.777 623.185C110.684 620.472 110.416 616.196 110.416 616.196L106.631 624.348Z" fill="#874538"/>
<path d="M139.23 449.279C138.348 450.591 136.88 452.667 135.059 455.035C129.693 462.045 121.118 471.484 114.851 470.348C110.054 469.466 107.019 466.255 105.178 463.201C104.257 461.673 103.631 460.165 103.219 459.03C107.389 456.367 113.813 453.372 123.545 451.022C129.556 449.573 134.785 449.044 139.23 449.279Z" fill="#A8604F"/>
<path d="M139.23 449.279C138.348 450.591 136.88 452.667 135.059 455.035C127.795 458.991 118.004 463.338 118.004 463.338L115.713 466.158L113.754 464.16C110.464 464.474 107.312 463.749 105.178 463.201C104.257 461.673 103.631 460.165 103.219 459.03C107.389 456.367 113.813 453.372 123.545 451.022C129.556 449.573 134.785 449.044 139.23 449.279Z" fill="#874538"/>
<path d="M81.3243 420.057C74.1992 423.958 82.6941 439.609 95.8752 442.888C109.059 446.165 92.9549 413.69 81.3243 420.057Z" fill="#263237"/>
<path d="M104.392 404.633C104.392 404.633 79.3855 409.81 83.7493 426.997C88.1131 444.185 100.988 457.497 110.206 450.738C123.176 441.23 125.472 403.458 104.392 404.633Z" fill="#A8604F"/>
<path d="M99.0167 423.376C98.8773 423.446 98.708 423.451 98.5594 423.375C96.897 422.52 95.3015 423.662 95.2865 423.674C95.0619 423.84 94.7474 423.79 94.5838 423.566C94.4191 423.343 94.4675 423.027 94.6921 422.863C94.7762 422.801 96.8083 421.344 99.0202 422.481C99.2679 422.608 99.3646 422.911 99.2379 423.158C99.1861 423.255 99.1077 423.33 99.0167 423.376Z" fill="#263237"/>
<path d="M88.0693 426.756C87.9771 426.802 87.87 426.821 87.7605 426.802C85.9289 426.497 84.7815 428.021 84.7342 428.087C84.5695 428.311 84.255 428.358 84.0315 428.195C83.808 428.031 83.7585 427.718 83.9209 427.494C83.9831 427.408 85.4727 425.402 87.9253 425.81C88.1995 425.856 88.3838 426.116 88.3388 426.389C88.3124 426.553 88.2087 426.686 88.0693 426.756Z" fill="#263237"/>
<path d="M95.5043 444.412C95.5043 444.412 99.8485 444.609 104.33 439.611C104.33 439.611 104.05 443.937 100.057 445.149C96.0618 446.36 95.5043 444.412 95.5043 444.412Z" fill="#1D1D1D"/>
<path d="M100.467 417.058C100.467 417.058 108.809 420.373 113.177 428.44C113.177 428.44 114.184 422.093 118.196 424.763C122.21 427.433 118.034 437.177 118.034 437.177C118.034 437.177 130.267 430.949 122.74 414.821C119.57 408.026 107.762 407.01 100.467 417.058Z" fill="#263237"/>
<path d="M115.85 434.021C116.761 439.279 114.967 450.355 107.202 452.01C107.202 452.01 110.565 454.75 109.222 458.677C109.222 458.677 109.819 465.1 116.752 462.014C125.425 458.154 127.602 451.911 127.602 451.911C119.443 446.068 118.64 433.465 118.64 433.465C117.557 435.652 115.85 434.021 115.85 434.021Z" fill="#874538"/>
<path d="M100.633 429.485C101.119 430.463 101.012 431.505 100.393 431.813C99.7747 432.122 98.8773 431.579 98.3912 430.603C97.9039 429.626 98.011 428.583 98.6308 428.274C99.2494 427.966 100.146 428.508 100.633 429.485Z" fill="#1D1D1D"/>
<path d="M101.057 428.911C101.057 428.911 99.2978 427.035 98.4995 427.431C97.7011 427.827 97.2576 430.019 97.2576 430.019L95.2497 429.812L96.9178 429.554C96.9178 429.554 97.1298 427.221 98.3935 426.936C99.6573 426.651 101.057 428.911 101.057 428.911Z" fill="#1D1D1D"/>
<path d="M91.1302 433.209C91.6175 434.186 91.5103 435.229 90.8906 435.538C90.2708 435.846 89.3745 435.304 88.8884 434.327C88.4011 433.35 88.5082 432.307 89.128 431.999C89.7466 431.69 90.644 432.233 91.1302 433.209Z" fill="#1D1D1D"/>
<path d="M91.5552 432.636C91.5552 432.636 89.7961 430.759 88.9978 431.156C88.1994 431.552 87.7548 433.743 87.7548 433.743L85.7468 433.537L87.4149 433.279C87.4149 433.279 87.6269 430.946 88.8906 430.66C90.1544 430.376 91.5552 432.636 91.5552 432.636Z" fill="#1D1D1D"/>
<path d="M94.3488 436.131C94.3488 436.131 91.925 437.107 91.197 438.329C90.4701 439.551 94.4018 440.965 94.4018 440.965" stroke="#874538" stroke-width="0.64" stroke-miterlimit="10"/>
<path d="M112.828 422.048C112.828 422.048 100.721 421.464 98.0859 417.602C95.4513 413.741 93.8558 420.383 88.3469 419.227C82.838 418.07 80.7679 423.394 80.7679 423.394C80.7679 423.394 75.6853 422.976 76.4387 416.382C77.1921 409.788 81.5697 413.996 83.2401 407.939C84.9105 401.882 90.9873 397.019 96.8901 399.075C102.794 401.13 102.982 399.075 109.006 398.597C115.03 398.118 119.719 399.05 120.104 404.608C120.489 410.165 128.319 409.036 127.605 416.19C126.888 423.341 122.486 436.19 112.828 422.048Z" fill="#263237"/>
<path d="M115.593 405.929C115.593 405.929 113.146 392.375 125.194 388.987C137.241 385.599 134.529 398.023 136.827 401.034C139.124 404.047 144.395 401.975 145.524 407.622C146.653 413.27 140.065 416.256 145.524 418.622C150.983 420.988 154.936 426.28 151.171 432.199C147.406 438.118 153.618 438.639 153.618 438.639C153.618 438.639 149.128 443.867 146.29 438.639C143.453 433.411 148.912 433.766 140.817 431.895C132.722 430.023 131.028 421.74 133.288 416.093C135.547 410.446 124.44 412.705 124.251 413.834C124.062 414.963 115.593 405.929 115.593 405.929Z" fill="#263237"/>
<path d="M172.549 666.395C179.084 665.859 181.642 659.417 183.442 653.729C185.243 648.04 189.253 657.03 187.637 664.97C186.02 672.91 189.055 679.209 187.48 687.648C186.297 693.988 183.373 699.902 181.992 702.453C181.548 703.272 180.696 703.787 179.764 703.809L173.239 703.966C172.017 703.996 170.929 703.176 170.641 701.987C169.259 696.27 166.692 680.415 168.452 677.497C171.03 673.225 168.368 665.283 168.368 665.283C168.368 665.283 169.735 666.627 172.549 666.395Z" fill="#3B484C"/>
<path d="M171.569 701.702C171.569 701.702 171.078 710.147 171.928 712.344C172.778 714.541 172.778 714.541 172.778 714.541C172.778 714.541 170.637 734.36 171.42 736.31C172.203 738.26 176.09 745.749 177 750.711C177.91 755.674 173.716 766.52 172.277 767.393C170.837 768.267 159.694 768.646 159.694 768.646L160.153 770.808C160.153 770.808 173.053 770.946 174.746 770.808C176.438 770.67 183.408 756.482 183.677 751.423C183.948 746.365 179.115 736.566 178.696 734.52C178.277 732.474 181.354 702.41 181.354 702.41C181.354 702.41 178.248 699.077 171.569 701.702Z" fill="#263237"/>
<path d="M114.971 660.692C121.446 661.724 125.46 656.072 128.56 650.974C131.66 645.877 133.42 655.562 129.965 662.89C126.51 670.219 127.962 677.058 124.429 684.882C121.775 690.76 117.531 695.81 115.583 697.96C114.957 698.65 114.007 698.948 113.096 698.749L106.72 697.353C105.526 697.091 104.664 696.037 104.667 694.814C104.682 688.932 105.953 672.921 108.357 670.503C111.875 666.965 111.175 658.619 111.175 658.619C111.175 658.619 112.183 660.247 114.971 660.692Z" fill="#3B484C"/>
<path d="M105.708 694.876C105.708 694.876 103.155 702.842 103.459 705.178C103.763 707.515 103.763 707.515 103.763 707.515C103.763 707.515 96.9777 726.258 97.2749 728.339C97.5721 730.42 104.645 744.08 104.35 749.117C104.057 754.153 98.5859 762.089 97.094 763.305C95.7888 764.368 86.1281 767.681 77.9973 768.653C77.4593 768.718 77.2416 770.808 77.783 770.808C86.8815 770.808 99.8404 765.836 100.824 765.28C102.742 764.198 109.205 756.243 110.668 751.393C112.131 746.543 104.689 730.414 104.767 728.328C104.846 726.24 115.482 697.482 115.482 697.482C115.482 697.482 112.956 694.311 105.708 694.876Z" fill="#263237"/>
<path d="M154.297 450.745C154.297 450.745 148.989 460.534 153.823 469.534C158.657 478.535 162.987 472.585 162.987 472.585L201.306 483.053C201.306 483.053 198.923 486.32 193.219 497.045C186.325 510.011 176.888 530.884 175.459 534.952C174.029 539.02 180.816 538.582 180.816 538.582C180.816 538.582 197.088 518.851 206.648 505.389C215.535 492.877 221.818 482.293 220.825 480.284C216.256 471.037 200.758 464.713 183.989 460.227C167.223 455.74 164.129 451.947 154.297 450.745Z" fill="#A8604F"/>
<path d="M177.343 531.337C177.343 531.337 174.08 534.65 174.666 538.135C175.254 541.62 183.905 547.124 186.807 546.54C189.709 545.956 193.989 540.161 193.989 540.161C193.989 540.161 192.142 538.848 190.526 540.939C188.91 543.03 188.91 543.03 188.91 543.03L190.893 535.704C190.893 535.704 188.829 534.776 188.693 536.643C188.557 538.51 186.906 539.916 186.906 539.916C186.906 539.916 185.307 537.563 183.679 535.689C182.053 533.816 177.343 531.337 177.343 531.337Z" fill="#874538"/>
<path d="M177.569 529.824C177.569 529.824 174.17 534.042 173.619 535.884C173.067 537.725 173.739 539.931 177.481 542.867C181.222 545.804 184.943 546.562 186.81 546.541C188.675 546.52 188.897 544.217 188.268 542.98C187.639 541.743 182.976 540.22 182.976 540.22C182.976 540.22 184.677 537.386 183.131 533.529C181.584 529.673 177.569 529.824 177.569 529.824Z" fill="#A8604F"/>
<path d="M139.23 449.279C148.754 447.894 157.163 449.225 171.885 454.056C171.885 454.056 166.091 473.531 161.751 481.853C161.751 481.853 151.245 478.671 147.474 468.88C143.704 459.089 139.23 449.279 139.23 449.279Z" fill="#FDB74C"/>
<path d="M284.701 497.721L268.429 573.21L263.805 768.348" stroke="#8BBDDB" stroke-width="4.5245" stroke-miterlimit="10"/>
<path d="M249.553 561.596C249.638 564.143 250.501 564.94 251.447 566.549C252.411 568.147 254.886 568.348 254.886 568.348C256.709 569.556 260.018 569.527 260.018 569.527C261.703 570.562 264.632 569.692 266.281 567.981C267.405 566.79 268.76 562.342 269.236 557.822C269.454 555.763 269.497 553.675 269.234 551.89C269.234 551.89 266.558 542.221 259.263 547.294C256.345 549.324 254.185 551.605 252.673 553.793C250.384 557.061 249.501 560.062 249.553 561.596Z" fill="#A8604F"/>
<path d="M282.978 487.863L269.282 478.083C263.046 482.812 256.449 550.209 256.449 550.209L269.089 554.157C269.695 536.773 281.533 515.197 282.641 507.616C283.527 501.557 283.118 489.624 282.978 487.863Z" fill="#A8604F"/>
<path d="M251.41 561.485C251.445 562.073 251.493 562.661 251.548 563.247C251.646 564.299 251.768 565.366 252.182 566.338C252.507 567.101 253.212 568.217 254.109 568.357C254.474 568.415 254.712 568.319 255.078 568.468C255.5 568.639 255.883 568.862 256.322 569C257.497 569.37 258.784 569.537 260.017 569.526C261.702 570.561 264.63 569.69 266.28 567.98C267.403 566.788 268.759 562.341 269.235 557.821C268.599 557.751 267.78 557.62 266.854 557.431C264.841 557.028 262.612 553.937 262.612 553.937C262.239 553.931 261.867 553.926 261.494 553.921C258.561 553.878 255.594 553.934 252.673 553.787C252.28 554.421 252.001 554.864 251.808 555.629C251.601 556.448 251.478 557.288 251.412 558.13C251.33 559.246 251.344 560.367 251.41 561.485Z" fill="#874538"/>
<path d="M283.194 402.559C266.879 407.112 265.167 416.082 265.647 427.66C266.126 439.239 266.422 458.077 265.647 462.211C264.871 466.347 268.134 471.115 266.879 472.622C265.625 474.127 266.628 478.083 266.628 478.083C266.628 478.083 264.62 481.74 264.118 483.205C263.616 484.67 265.647 487.03 265.647 487.03C265.647 487.03 274.088 485.326 283.159 492.905C283.159 492.905 285.955 491.699 285.202 489.942C284.448 488.185 284.197 474.054 288.214 471.33C292.23 468.607 288.214 423.581 288.214 423.581L283.194 402.559Z" fill="#1D1D1D"/>
<path d="M356.247 766.981C356.362 768.552 356.771 769.716 356.771 769.716H387.665C388.058 768.815 388.337 767.915 388.533 766.981C391.577 752.197 366.621 734.106 366.621 734.106L364.531 742.8C364.531 742.8 365.284 756.716 359.766 759.614C356.46 761.349 356.035 764.624 356.247 766.981Z" fill="#0E3944"/>
<path d="M388.533 766.981H356.247C356.362 768.552 356.771 769.716 356.771 769.716H387.665C388.058 768.815 388.337 767.914 388.533 766.981Z" fill="#ADBEC4"/>
<path d="M361.178 758.505C361.178 758.505 374.195 755.538 380.129 759.38V757.231C380.129 757.231 369.181 751.91 361.178 758.505Z" fill="#ADBEC4"/>
<path d="M363.758 755.204C363.758 755.204 372.068 751.405 380.13 755.204L379.21 753.037C379.21 753.037 369.581 749.395 363.758 755.204Z" fill="#ADBEC4"/>
<path d="M372.428 528.013C372.428 557.402 381.871 663.434 382.884 670.995C384.827 685.488 383.745 710.557 386.415 725.918C389.295 742.486 388.534 757.292 388.534 757.292C388.534 757.292 372.522 744.35 363.453 753.965L359.704 740.851L362.479 730.526L357.227 715.349C360.943 708.714 334.048 566.87 334.048 566.87C334.048 566.87 331.324 566.413 331.321 566.412C335.073 567.043 333.54 619.217 333.244 621.694C332.965 624.036 332.627 626.461 333.33 628.713C333.671 629.806 334.257 630.866 334.216 632.011C334.174 633.156 333.093 634.367 332.018 633.971C331.252 634.343 331.647 635.572 332.354 636.049C333.06 636.525 333.999 636.752 334.422 637.49C335.144 638.752 333.876 639.883 334.024 641.089C334.396 644.143 337.313 646.933 338.69 649.629C340.513 653.193 341.372 657.476 343.859 660.626C344.325 661.216 344.852 661.803 345.009 662.538C345.135 663.129 345.003 663.742 344.871 664.332C344.123 667.681 342.927 671.557 339.686 672.68C338.978 672.926 338.201 673.021 337.583 673.444C336.892 673.919 336.515 674.725 335.946 675.34C334.245 677.178 331.329 676.95 328.852 676.578C320.242 675.285 316.752 670.162 311.023 664.005C308.053 660.812 305.028 659.478 303.58 654.972C301.67 649.027 300.559 642.778 300.202 636.548C299.56 625.338 298.912 614.128 298.252 602.919C296.843 578.973 296.156 554.788 293.545 530.931L372.428 528.013Z" fill="#1D1D1D"/>
<path d="M274.69 447.158C278.819 464.028 283.921 481.664 286.546 485.528C291.575 492.915 290.07 514.784 291.737 517.438C293.403 520.092 289.068 535.414 289.068 535.414C323.706 552.505 374.655 532.745 374.655 532.745C374.655 532.745 368.373 512.277 370.393 507.691C371.69 504.727 370.261 486.987 368.284 471.814C367.193 463.483 365.925 455.933 364.863 451.995C361.855 440.906 361.855 412.387 323.16 403.598C284.467 394.825 269.485 407.359 268.482 413.979C268.009 417.12 270.943 431.821 274.69 447.158Z" fill="white"/>
<path d="M287.515 498.581L285.148 513.684C285.06 514.246 284.839 514.779 284.506 515.24L283.194 517.049C283.194 517.049 279.555 510.02 272.15 507.762C264.746 505.503 261.276 510.693 261.276 510.693L261.251 510.655C260.62 509.718 260.34 508.591 260.459 507.469L262.052 492.397C262.089 492.028 262.259 491.679 262.541 491.44C269.517 485.518 283.099 487.971 287.305 496.921C287.547 497.436 287.604 498.02 287.515 498.581Z" fill="#0E3944"/>
<path d="M270.2 564.988L249.059 559.593" stroke="#8BBDDB" stroke-width="4.5246" stroke-miterlimit="10" stroke-linecap="round" stroke-linejoin="round"/>
<path d="M265.535 553.123C266.667 555.839 258.881 556.389 257.44 557.48C255.997 558.571 257.521 561.676 257.55 562.945C257.578 564.215 257.348 565.127 256.228 565.329C255.108 565.531 253.752 561.303 252.364 559.883C250.976 558.464 251.243 555.521 251.497 553.935C251.749 552.348 257.586 547.709 257.586 547.709C257.586 547.709 264.447 550.518 265.535 553.123Z" fill="#A8604F"/>
<path d="M253.327 565.663C253.327 565.663 258.16 564.072 258.498 563.574C258.837 563.078 260.892 561.288 261.824 561.441C262.756 561.594 262.02 563.35 262.02 563.35C262.02 563.35 263.057 561.751 264.151 562.031C264.794 562.195 264.323 564.419 264.323 564.419C264.323 564.419 264.653 563.594 265.535 563.659C266.52 563.73 266.597 565.789 266.597 565.789C267.108 565.173 267.307 565.031 267.611 565.237C268.471 565.822 268.052 567.633 267.362 568.193C266.672 568.753 264.34 570.152 263.681 569.985C263.022 569.818 261.347 570.607 260.674 570.388C260.002 570.17 259.96 569.567 259.188 569.74C258.417 569.913 256.815 569.142 256.815 569.142C256.815 569.142 254.457 569.058 253.42 568.551C252.384 568.044 251.448 566.548 251.448 566.548L251.468 562.291C251.467 562.293 252.552 565.466 253.327 565.663Z" fill="#A8604F"/>
<path d="M261.287 762.493H266.417C266.742 762.493 267.006 762.756 267.006 763.081V770.281C267.006 770.606 266.742 770.87 266.417 770.87H261.287C260.963 770.87 260.699 770.606 260.699 770.281V763.081C260.699 762.756 260.963 762.493 261.287 762.493Z" fill="#0E3944"/>
<path d="M274.69 447.158C280.382 423.49 300.569 409.054 300.569 409.054L315.198 411.901C327.85 428.697 360.468 484.23 368.284 471.814C367.193 463.483 365.925 455.933 364.863 451.995C361.855 440.906 361.855 412.387 323.16 403.598C284.467 394.825 269.485 407.359 268.482 413.979C268.009 417.12 270.943 431.821 274.69 447.158Z" fill="#1D1D1D"/>
<path d="M320.682 401.084C322.339 401.324 330.292 404.524 330.38 406.195C330.654 411.432 316.134 414.827 306.911 414.09C297.688 413.352 290.857 406.089 292.594 403.596C294.394 401.017 305.308 398.853 320.682 401.084Z" fill="#1D1D1D"/>
<path d="M386.605 454.289C386.605 454.289 404.547 480.989 406.118 484.838C407.689 488.686 372.763 540.652 372.763 540.652L371.043 547.711C371.043 547.711 361.255 547.369 354.477 542.374C354.477 542.374 356.234 536.125 358.995 533.113C361.757 530.101 369.789 514.385 372.048 507.685C374.307 500.985 382.087 483.618 382.087 483.618L367.792 468.207L386.605 454.289Z" fill="#A8604F"/>
<path d="M323.16 403.597C323.16 403.597 348.329 407.571 355.482 413.678C358.745 416.465 361.551 419.873 364.357 423.102C366.745 425.849 369.261 428.576 371.558 431.37C373.695 433.97 376.222 436.184 378.371 438.768C379.852 440.55 380.981 442.627 382.63 444.256C383.818 445.43 385.251 446.345 386.376 447.579C388.005 449.369 388.985 451.817 391.061 453.062C391.462 453.303 391.915 453.51 392.159 453.909C392.391 454.288 392.382 454.759 392.394 455.202C392.421 456.205 392.373 457.598 393.334 458.095C394.264 458.575 395.485 457.828 396.414 458.53C397.142 459.082 397.15 460.185 396.881 461.059C396.613 461.932 396.136 462.766 396.127 463.681C397.569 463.456 398.627 465.221 398.418 466.665C398.21 468.108 397.241 469.306 396.569 470.602C395.858 471.975 395.469 473.498 394.747 474.866C393.111 477.964 390.188 479.545 387.382 481.393C385.971 482.323 384.789 483.27 383.116 483.791C382.323 484.039 378.627 484.947 378.032 484.055C377.704 483.563 377.576 482.941 377.684 482.36C377.724 482.145 377.794 481.924 377.733 481.716C377.642 481.408 377.306 481.249 376.999 481.161C376.278 480.956 375.514 480.935 374.793 480.726C374.073 480.517 373.354 480.052 373.156 479.329C373.053 478.957 373.099 478.55 372.959 478.19C372.799 477.779 372.424 477.498 372.089 477.211C369.602 475.089 368.547 471.781 366.784 469.027C364.658 465.706 361.532 463.224 358.58 460.679C357.074 459.381 355.575 458.063 354.248 456.579C353.033 455.22 352.129 453.666 350.802 452.424C347.517 449.35 345.34 444.784 343.108 440.919C337.427 431.078 332.138 421.007 326.917 410.917C325.655 408.482 324.399 406.044 323.16 403.597Z" fill="#1D1D1D"/>
<path d="M301.209 390.521C301.735 394.287 301.574 397.911 301.286 401.586C301.286 401.586 293.829 403.103 294.41 405.114C297.281 415.045 328.577 413.397 327.042 406.15C326.677 404.426 320.971 402.56 320.971 402.56C319.907 397.571 318.778 388.192 323.16 381.319C323.16 381.319 321.784 381.289 319.595 381.372L301.209 390.521Z" fill="#874538"/>
<path d="M294.382 356.211C294.382 356.211 288.802 351.654 293.849 350.17C293.849 350.17 291.72 344.592 294.16 343.68C296.601 342.767 299.092 345.01 300.445 342.62C301.799 340.229 304.751 336.4 309.969 340.152C315.186 343.904 318.089 337.746 320.332 339.736C322.575 341.728 321.204 344.946 324.864 345.427C328.524 345.909 331.948 346.76 331.117 350.424C330.285 354.089 334.314 354.33 334.503 356.565C334.692 358.8 332.974 359.449 332.821 361.354C332.667 363.258 335.375 364.069 334.404 366.93C333.433 369.792 330.661 369.383 330.88 371.435C331.099 373.486 332.92 378.023 330.293 378.667C327.668 379.311 326.683 383.932 323.62 383.275C320.557 382.619 294.382 356.211 294.382 356.211Z" fill="#0E3944"/>
<path d="M327.03 372.098C327.693 390.41 301.552 398.285 296.643 389.559C295.071 386.763 293.51 379.002 292.935 373.646C292.8 372.431 292.705 371.204 292.649 369.973C292.28 361.629 293.766 353.331 298.558 351.492C315.236 345.084 326.215 349.64 327.03 372.098Z" fill="#A8604F"/>
<path d="M309.333 366.604C309.348 367.853 308.797 368.873 308.104 368.882C307.409 368.89 306.835 367.884 306.819 366.635C306.804 365.387 307.355 364.367 308.048 364.358C308.743 364.35 309.318 365.356 309.333 366.604Z" fill="#1D1D1D"/>
<path d="M297.918 367.69C297.933 368.94 297.382 369.958 296.689 369.967C295.995 369.975 295.42 368.969 295.405 367.721C295.39 366.472 295.941 365.452 296.634 365.443C297.328 365.434 297.902 366.44 297.918 367.69Z" fill="#1D1D1D"/>
<path d="M310.591 360.292C310.829 360.312 311.072 360.214 311.23 360.013C311.481 359.692 311.425 359.229 311.105 358.977C309.083 357.393 306.212 357.884 306.09 357.907C305.69 357.978 305.423 358.359 305.493 358.76C305.563 359.16 305.94 359.427 306.347 359.359C306.369 359.355 308.7 358.967 310.196 360.14C310.314 360.23 310.451 360.281 310.591 360.292Z" fill="#0E3944"/>
<path d="M293.875 362.477C293.885 362.478 293.891 362.478 293.9 362.478C294.307 362.497 294.652 362.183 294.671 361.776C294.697 361.217 296.017 360.936 296.717 360.911C297.125 360.896 297.443 360.555 297.428 360.148C297.414 359.742 297.066 359.418 296.668 359.438C295.417 359.479 293.277 360.004 293.197 361.707C293.181 362.104 293.481 362.444 293.875 362.477Z" fill="#0E3944"/>
<path d="M297.49 379.092C297.49 379.092 297.928 379.844 301.864 379.344C305.801 378.845 308.305 377.788 308.305 377.788C308.305 377.788 307.737 385.708 301.816 385.739C296.905 385.765 297.49 379.092 297.49 379.092Z" fill="#1D1D1D"/>
<path d="M321.792 372.387C321.792 372.387 322.182 365.753 318.165 361.913C314.148 358.074 317.639 352.424 317.639 352.424C317.639 352.424 301.545 349.702 294.381 356.211C294.381 356.211 289.021 346.784 304.333 342.935C319.644 339.088 344.516 350.981 323.619 383.276L327.029 372.098L321.792 372.387Z" fill="#0E3944"/>
<path d="M322.309 371.557C322.309 371.557 325.915 367.241 329.322 369.827C332.73 372.41 327.132 380.334 323.477 380.079C319.822 379.826 322.309 371.557 322.309 371.557Z" fill="#A8604F"/>
<path d="M300.647 366.008C300.647 366.008 296.063 372.534 296.661 374.039C297.259 375.545 300.647 375.419 300.647 375.419" stroke="#874538" stroke-width="0.64" stroke-miterlimit="10"/>
<path d="M587.644 746.116C582.076 746.116 577.545 751.668 577.545 758.493C577.545 765.317 582.076 770.87 587.644 770.87C593.214 770.87 597.745 765.317 597.745 758.493C597.746 751.668 593.214 746.116 587.644 746.116Z" fill="#263237"/>
<path d="M587.644 766.444C584.569 766.444 581.97 762.804 581.97 758.493C581.97 754.182 584.569 750.542 587.644 750.542C590.72 750.542 593.319 754.182 593.319 758.493C593.32 762.804 590.721 766.444 587.644 766.444Z" fill="#475154"/>
<path d="M586.26 759.092V745.104H596.279L591.022 759.912C590.674 760.89 589.749 761.543 588.711 761.543C587.357 761.543 586.26 760.447 586.26 759.092Z" fill="#BAC3C6"/>
<path d="M641.926 764.904C619.184 764.904 600.684 736.097 600.684 700.69C600.684 665.283 619.185 636.476 641.926 636.476C664.667 636.476 683.167 665.283 683.167 700.69C683.167 736.097 664.667 764.904 641.926 764.904ZM641.926 640.506C620.942 640.506 603.872 667.506 603.872 700.69C603.872 733.876 620.943 760.874 641.926 760.874C662.909 760.874 679.98 733.875 679.98 700.69C679.98 667.504 662.908 640.506 641.926 640.506Z" fill="#CFD8DC"/>
<path d="M612.047 702.233H602.342C601.668 702.233 601.122 701.541 601.122 700.69C601.122 699.839 601.668 699.148 602.342 699.148H612.047C612.721 699.148 613.267 699.839 613.267 700.69C613.267 701.543 612.721 702.233 612.047 702.233Z" fill="#BAC3C6"/>
<path d="M685.263 702.233H682.065C681.391 702.233 680.845 701.541 680.845 700.69C680.845 699.839 681.391 699.148 682.065 699.148H685.263C685.937 699.148 686.483 699.839 686.483 700.69C686.483 701.543 685.937 702.233 685.263 702.233Z" fill="#BAC3C6"/>
<path d="M650.097 644.355C647.336 644.355 640.74 640.619 639.997 640.192C639.384 639.84 639.112 638.927 639.39 638.151C639.668 637.374 640.393 637.028 641.005 637.384C643.627 638.886 648.414 641.271 650.097 641.271C650.771 641.271 651.317 641.962 651.317 642.814C651.317 643.664 650.771 644.355 650.097 644.355Z" fill="#BAC3C6"/>
<path d="M640.502 764.137C640.037 764.137 639.594 763.801 639.389 763.231C639.111 762.456 639.383 761.542 639.996 761.19C640.74 760.762 647.335 757.026 650.095 757.026C650.769 757.026 651.315 757.718 651.315 758.569C651.315 759.42 650.769 760.111 650.095 760.111C648.411 760.111 643.625 762.496 641.004 763.998C640.842 764.093 640.67 764.137 640.502 764.137Z" fill="#BAC3C6"/>
<path d="M604.794 700.69C604.794 661.993 625.117 630.51 650.097 630.51C675.077 630.51 695.399 661.993 695.399 700.69C695.399 739.387 675.077 770.87 650.097 770.87C625.115 770.87 604.794 739.387 604.794 700.69ZM610.636 700.69C610.636 735.315 628.338 763.483 650.095 763.483C671.853 763.483 689.555 735.313 689.555 700.69C689.555 666.067 671.853 637.897 650.095 637.897C628.338 637.897 610.636 666.066 610.636 700.69Z" fill="#263237"/>
<path d="M650.097 637.157C628.016 637.157 610.053 665.657 610.053 700.689C610.053 735.721 628.016 764.221 650.097 764.221C672.177 764.221 690.14 735.721 690.14 700.689C690.14 665.658 672.177 637.157 650.097 637.157ZM658.351 689.739L674.42 663.748C676.809 668.053 678.781 672.994 680.246 678.394L659.498 692.581C659.172 691.571 658.787 690.619 658.351 689.739ZM651.265 683.414V646.07C654.927 646.282 658.438 647.479 661.705 649.517L653.056 684.001C652.478 683.726 651.88 683.523 651.265 683.414ZM648.927 683.414C648.258 683.533 647.608 683.752 646.982 684.066L638.029 649.816C641.425 647.601 645.094 646.294 648.926 646.072L648.927 683.414ZM640.627 692.81L619.752 679.111C621.232 673.429 623.278 668.243 625.773 663.748L641.843 689.739C641.373 690.684 640.968 691.716 640.627 692.81ZM639.918 695.674C639.709 696.809 639.573 697.993 639.51 699.213H617.086C617.184 693.179 617.865 687.382 619.056 681.985L639.918 695.674ZM639.51 702.167C639.577 703.471 639.726 704.736 639.96 705.941L619.228 720.119C617.935 714.514 617.189 708.473 617.087 702.167H639.51ZM640.694 708.799C641.021 709.809 641.405 710.761 641.841 711.641L625.772 737.632C623.383 733.327 621.411 728.387 619.946 722.986L640.694 708.799ZM648.927 717.967V755.31C645.265 755.098 641.754 753.901 638.487 751.864L647.136 717.38C647.715 717.653 648.312 717.856 648.927 717.967ZM651.265 717.967C651.934 717.847 652.584 717.628 653.21 717.315L662.163 751.565C658.767 753.779 655.099 755.086 651.266 755.309V717.967H651.265ZM659.566 708.569L680.441 722.268C678.961 727.95 676.915 733.136 674.42 737.632L658.351 711.641C658.821 710.695 659.225 709.663 659.566 708.569ZM660.276 705.705C660.484 704.57 660.62 703.387 660.684 702.167H683.106C683.008 708.2 682.327 713.997 681.136 719.394L660.276 705.705ZM660.684 699.212C660.616 697.908 660.467 696.643 660.233 695.438L680.966 681.261C682.258 686.864 683.004 692.906 683.106 699.212H660.684ZM672.966 661.299L656.884 687.31C656.35 686.584 655.773 685.941 655.157 685.396L663.794 650.963C667.202 653.545 670.297 657.054 672.966 661.299ZM635.956 651.295L644.902 685.526C644.338 686.045 643.803 686.638 643.308 687.31L627.226 661.299C629.78 657.237 632.721 653.841 635.956 651.295ZM627.226 740.08L643.308 714.069C643.841 714.795 644.42 715.438 645.034 715.983L636.396 750.416C632.991 747.835 629.895 744.327 627.226 740.08ZM664.237 750.084L655.291 715.853C655.855 715.334 656.39 714.741 656.885 714.069L672.967 740.08C670.412 744.142 667.471 747.539 664.237 750.084Z" fill="#808B8E"/>
<path d="M652.192 713.522C656.526 713.522 660.04 707.777 660.04 700.69C660.04 693.603 656.526 687.858 652.192 687.858C647.858 687.858 644.345 693.603 644.345 700.69C644.345 707.777 647.858 713.522 652.192 713.522Z" fill="#475154"/>
<path d="M757.862 703.874H655.376C653.617 703.874 652.192 702.448 652.192 700.69C652.192 698.931 653.618 697.506 655.376 697.506H757.862C759.621 697.506 761.046 698.932 761.046 700.69C761.047 702.448 759.621 703.874 757.862 703.874Z" fill="#475154"/>
<path d="M655.291 703.13C655.254 703.13 655.218 703.13 655.183 703.129C653.967 703.075 652.977 702.135 652.859 700.924L645.623 625.817C645.558 625.133 645.784 624.452 646.247 623.943C646.709 623.435 647.365 623.143 648.053 623.143H669.221C669.947 623.143 670.633 623.466 671.098 624.023C671.562 624.581 671.753 625.315 671.621 626.029L657.688 701.136C657.473 702.296 656.46 703.13 655.291 703.13ZM650.741 628.023L656.055 683.184L666.288 628.023H650.741Z" fill="#475154"/>
<path d="M762.497 698.728L712.505 661.773L759.188 627.552C760.275 626.755 760.51 625.227 759.714 624.141C758.917 623.052 757.389 622.822 756.303 623.615L708.395 658.735L660.893 623.621C659.81 622.819 658.281 623.048 657.48 624.133C656.678 625.217 656.908 626.744 657.991 627.546L704.272 661.757L653.846 698.722C652.759 699.52 652.524 701.047 653.321 702.133C653.799 702.787 654.54 703.131 655.291 703.131C655.792 703.131 656.298 702.977 656.732 702.659L708.383 664.795L759.597 702.652C760.033 702.974 760.541 703.13 761.046 703.13C761.793 703.13 762.532 702.788 763.01 702.14C763.811 701.058 763.581 699.529 762.497 698.728Z" fill="#475154"/>
<path d="M666.457 619.49H636.947C630.849 619.49 625.619 623.842 624.512 629.839L605.453 733.015C604.346 739.004 599.123 743.352 593.032 743.352H575.47" stroke="#808B8E" stroke-width="4.2368" stroke-miterlimit="10" stroke-linecap="round" stroke-linejoin="round"/>
<path d="M773.332 600.344L771.168 630.328C770.599 638.43 763.847 644.694 755.729 644.694H644.756C642.316 644.694 640.51 642.384 641.128 640.008C641.307 639.341 641.649 638.723 642.136 638.252C642.608 637.795 643.21 637.454 643.877 637.292L657.347 634.055C664.474 632.33 670.086 626.832 671.941 619.738L676.333 602.981C678.156 596.067 684.403 591.251 691.546 591.251H764.855C765.328 591.251 765.783 591.283 766.239 591.381C770.485 592.063 773.642 595.903 773.332 600.344Z" fill="#8B383E"/>
<path d="M766.434 593.902L764.27 623.87C763.701 631.972 756.949 638.252 748.83 638.252H642.136C642.608 637.795 643.21 637.454 643.877 637.292L657.347 634.055C664.474 632.33 670.086 626.832 671.941 619.738L676.333 602.981C678.156 596.067 684.403 591.251 691.546 591.251H764.855C765.328 591.251 765.783 591.283 766.239 591.381C766.418 592.177 766.499 593.039 766.434 593.902Z" fill="#6D2E36"/>
<path d="M678.966 516.509C668.841 530.816 674.541 567.337 671.691 571.102C668.841 574.866 665.645 574.49 667.431 577.502C669.218 580.515 664.554 580.515 664.062 583.526C663.57 586.538 662.131 586.172 657.956 591.25C653.781 596.327 638.031 615.691 638.031 615.691L660.04 623.218L708.168 583.901L678.966 516.509Z" fill="#BAC3C6"/>
<path d="M579.077 738.55C579.1 740.155 579.281 741.282 579.281 741.282L625.658 740.613C625.645 739.696 625.616 738.78 625.553 737.88C624.854 725.758 620.872 715.287 620.872 715.287L609.21 710.477C608.297 716.467 605.783 720.318 602.594 722.853C601.753 723.537 600.876 724.106 599.966 724.594C599.543 724.829 599.122 725.048 598.682 725.251C597.722 725.707 596.729 726.081 595.735 726.39C591.66 727.693 587.522 728.014 584.631 728.499C579.697 729.339 579.026 735.063 579.077 738.55Z" fill="#0E3944"/>
<path d="M579.077 738.55C579.1 740.155 579.281 741.282 579.281 741.282L625.658 740.613C625.646 739.696 625.616 738.78 625.553 737.88L579.077 738.55Z" fill="#ADBEC4"/>
<path d="M599.965 724.593L606.428 726.563L607.753 724.186L602.592 722.852C601.751 723.536 600.874 724.106 599.965 724.593Z" fill="#ADBEC4"/>
<path d="M595.734 726.39L600.114 729.209L602.767 728.123L598.681 725.251C597.721 725.707 596.728 726.081 595.734 726.39Z" fill="#ADBEC4"/>
<path d="M717.255 595.731C717.255 595.731 684.843 593.333 679.98 594.578C675.116 595.825 630.94 607.119 622.908 611.637C620.548 612.965 618.834 615.339 617.406 617.574C615.454 620.633 615.548 622.892 615.205 626.432C614.5 633.698 613.604 640.982 611.66 648.036C610.933 650.675 610.052 653.343 610.197 656.077C610.261 657.268 610.517 658.445 610.512 659.637C610.502 661.318 609.973 662.946 609.539 664.57C608.755 667.51 608.278 670.523 607.801 673.528C607.25 677.003 606.7 680.476 606.15 683.95C605.791 686.22 605.434 688.557 605.955 690.794C606.546 693.326 606.813 694.362 605.929 696.789C605.254 698.641 605.108 700.584 604.827 702.539C604.52 704.672 604.262 707.003 603.233 708.921C601.839 711.52 601.747 712.649 602.971 715.661C603.278 716.419 603.559 717.339 603.085 718.006C602.834 718.357 602.425 718.551 602.063 718.786C600.166 720.013 598.411 722.04 601.311 722.722C603.672 723.277 606.463 723.107 608.887 723.288C610.126 723.38 611.369 723.473 612.581 723.748C614.114 724.096 615.57 724.73 616.964 725.46C619.177 726.618 621.258 728.027 623.156 729.649C627.218 733.121 628.18 726.297 627.337 723.569C627.026 722.563 626.643 721.557 626.613 720.506C626.543 718.031 628.773 715.727 631.249 715.716C630.097 707.132 632.008 698.466 633.909 690.017C634.766 686.205 635.624 682.392 636.481 678.58C636.778 677.257 637.103 675.878 637.978 674.841C638.557 674.155 639.367 673.631 639.715 672.802C639.942 672.262 639.942 671.656 639.899 671.072C639.715 668.569 638.824 665.956 639.771 663.632C640.342 662.232 641.502 661.173 642.546 660.079C646.19 656.264 648.72 651.576 650.894 646.811C651.829 644.762 652.359 642.664 653.155 640.604C653.899 638.68 655.375 637.011 656.259 635.127C657.124 633.285 657.307 631.12 658.227 629.343C659.368 627.143 662.018 625.868 664.066 624.691C674.116 618.919 718.793 617.974 718.793 617.974L717.255 595.731Z" fill="#0D527C"/>
<path d="M653.024 738.286C653.138 739.857 653.548 741.019 653.548 741.019H684.442C684.835 740.118 685.114 739.219 685.31 738.286C688.355 723.502 667.825 705.411 667.825 705.411L661.309 714.105C661.309 714.105 662.062 728.021 656.544 730.918C653.237 732.655 652.811 735.929 653.024 738.286Z" fill="#0E3944"/>
<path d="M685.31 738.286H653.024C653.138 739.857 653.548 741.019 653.548 741.019H684.442C684.835 740.119 685.113 739.219 685.31 738.286Z" fill="#ADBEC4"/>
<path d="M657.956 729.81C657.956 729.81 670.972 726.843 676.906 730.685V728.536C676.906 728.536 665.957 723.215 657.956 729.81Z" fill="#ADBEC4"/>
<path d="M660.535 726.509C660.535 726.509 668.845 722.709 676.907 726.509L675.987 724.342C675.987 724.342 666.357 720.7 660.535 726.509Z" fill="#ADBEC4"/>
<path d="M759.878 597.593C755.434 589.925 673.142 598.208 650.095 607.621C627.05 617.034 629.921 637.628 635.955 651.295C637.655 655.146 639.109 659.038 640.867 662.848C642.666 666.746 644.728 670.518 646.456 674.45C648.665 679.475 650.337 684.886 650.032 690.367C649.919 692.394 649.539 694.453 649.988 696.433C650.57 698.999 652.449 701.041 654.257 702.955C655.346 704.109 656.437 705.262 657.527 706.417C657.963 706.877 658.403 707.344 658.7 707.904C659.348 709.12 659.23 710.631 658.712 711.908C658.161 713.27 654.829 716.361 655.58 717.854C655.732 718.158 656.016 718.371 656.291 718.569C656.797 718.933 657.312 719.283 657.836 719.621C658.386 719.975 658.973 720.341 659.278 720.92C659.696 721.713 659.118 722.66 658.588 723.225C658.437 723.387 658.209 723.483 658.124 723.686C658.041 723.886 658.127 724.111 658.214 724.309C658.453 724.861 658.816 725.501 659.417 725.517C659.726 725.525 660.008 725.357 660.275 725.199C664.598 722.649 669.891 721.897 674.786 722.922C676.971 723.38 679.731 724.164 681.379 725.731C683.243 727.503 684.411 729.755 685.91 731.782C685.984 731.883 686.068 731.981 686.181 732.031C686.4 732.128 686.663 732.007 686.815 731.822C686.966 731.636 687.036 731.399 687.12 731.175C687.471 730.242 688.126 729.461 688.753 728.686C688.919 728.48 689.094 728.245 689.073 727.981C689.058 727.787 688.94 727.62 688.82 727.467C688.509 727.071 688.162 726.703 687.784 726.37C687.603 726.211 687.41 726.052 687.302 725.837C687.201 725.639 687.183 725.41 687.176 725.187C687.156 724.606 687.205 724.008 687.442 723.477C687.906 722.44 689.342 721.993 690.225 721.35C691.069 720.736 691.965 720.052 692.52 719.15C693.784 717.097 692.395 715.045 690.942 713.521C686.537 708.897 677.287 640.257 679.652 640.505C682.019 640.753 683.106 637.157 683.106 637.157C683.106 637.157 747.452 638.105 754.816 634.352C762.179 630.6 759.878 597.593 759.878 597.593Z" fill="#105E99"/>
<path d="M758.709 628.023C758.709 628.023 766.489 618.928 765.776 615.904C765.064 612.88 762.45 602.219 766.495 597.833C770.541 593.446 774.439 534.832 761.046 513.246C747.654 491.66 720.755 487.139 711.112 490.53C701.47 493.919 684.07 506.971 678.965 516.509C673.859 526.048 679.421 544.872 683.166 554.159C686.911 563.445 688.668 579.797 686.409 582.791C684.15 585.785 676.696 585.921 676.909 591.249C676.909 591.249 669.323 592.334 669.406 597.327C669.406 597.327 681.891 599.087 687.162 601.848C692.434 604.61 702.192 596.327 726.805 603.605C751.42 610.885 758.709 628.023 758.709 628.023Z" fill="#CFD8DC"/>
<path d="M704.888 484.339L709.706 503.327C709.706 503.327 715.162 505.898 726.729 498.112C726.729 498.112 720.587 483.665 726.025 473.395C726.025 473.395 724.651 473.476 722.474 473.736C722.474 473.736 720.289 485.028 704.888 484.339Z" fill="#EF6E4B"/>
<path d="M729.138 463.892C729.364 486.363 705.345 489.29 699.748 480.989C697.953 478.33 696.284 473.48 695.279 468.188C695.048 466.987 694.852 465.772 694.698 464.55C693.655 456.263 694.466 447.872 699.095 445.652C715.201 437.917 728.912 441.42 729.138 463.892Z" fill="#FF8B66"/>
<path d="M711.055 459.845C711.17 461.089 710.705 462.149 710.013 462.213C709.322 462.278 708.668 461.322 708.553 460.078C708.436 458.833 708.903 457.774 709.594 457.709C710.285 457.645 710.94 458.601 711.055 459.845Z" fill="#1D1D1D"/>
<path d="M699.764 461.847C699.88 463.091 699.414 464.152 698.723 464.216C698.031 464.28 697.377 463.324 697.262 462.08C697.146 460.836 697.612 459.776 698.303 459.711C698.995 459.648 699.648 460.604 699.764 461.847Z" fill="#1D1D1D"/>
<path d="M707.308 452.149C707.308 452.149 709.907 451.465 711.799 452.715" stroke="#8B383E" stroke-width="1.28" stroke-miterlimit="10" stroke-linecap="round" stroke-linejoin="round"/>
<path d="M697.937 454.456C697.937 454.456 695.265 454.762 695.315 456.24" stroke="#8B383E" stroke-width="1.28" stroke-miterlimit="10" stroke-linecap="round" stroke-linejoin="round"/>
<path d="M701.569 458.146C701.569 458.146 701.687 463.877 698.537 468.457C698.537 468.457 698.412 470.879 702.766 469.974" stroke="#DB614D" stroke-width="0.64" stroke-miterlimit="10"/>
<path d="M695.254 450.881C695.254 450.881 699.736 444.93 713.604 446.49C713.604 446.49 715.674 454.736 719.874 457.185C724.075 459.634 725.69 466.662 725.69 466.662C725.69 466.662 726.081 463.169 727.874 462.786C729.667 462.402 727.353 473.691 727.353 473.691C727.353 473.691 734.179 472.659 734.516 453.807C734.822 436.762 720.19 441.098 720.19 441.098C720.19 441.098 716.671 434.073 700.486 437.688L701.657 438.31C701.657 438.31 694.166 439.484 691.509 445.784L692.769 445.656C692.769 445.658 691.337 448.994 695.254 450.881Z" fill="#8B383E"/>
<path d="M724.388 463.733C724.388 463.733 727.633 459.141 731.239 461.441C734.845 463.742 729.904 472.092 726.24 472.133C722.577 472.176 724.388 463.733 724.388 463.733Z" fill="#FF8B66"/>
<path d="M695.589 469.711C695.866 470.099 696.063 470.222 696.225 470.666C696.42 471.2 696.499 471.778 696.703 472.316C697.095 473.347 697.645 474.319 698.334 475.18C698.385 475.244 698.453 475.313 698.532 475.298C698.64 475.277 698.657 475.134 698.656 475.026C698.644 474.157 699.032 473.291 699.689 472.722C700.447 472.065 701.357 472.006 702.304 471.948C703.385 471.88 704.396 471.706 705.436 471.397C706.389 471.115 707.466 471.186 708.459 471.141C708.987 471.117 709.521 471.094 710.038 471.205C710.95 471.401 711.734 472.005 712.318 472.733C712.903 473.461 713.309 474.313 713.703 475.158C713.757 475.274 713.824 475.401 713.947 475.436C714.066 475.469 714.186 475.4 714.29 475.333C716.221 474.065 717.612 472.125 718.755 470.116C720.041 467.852 721.068 465.45 722.015 463.024C722.263 462.391 722.932 460.127 723.852 460.637C724.463 460.976 724.697 462.461 724.921 463.087C724.921 463.087 727.551 473.793 726.367 477.372L725.59 477.011C725.59 477.011 725.849 481.476 719.558 484.856C713.183 488.281 708.694 488.273 708.694 488.273L709.622 489.198C709.622 489.198 699.509 489.96 696.847 482.887L696.725 484.576C696.725 484.576 692.677 475.541 695.589 469.711Z" fill="#8B383E"/>
<path d="M735.444 494.7C735.444 494.7 722.127 505.429 715.232 506.371C708.337 507.312 702.096 497.334 702.096 497.334C702.096 497.334 715.113 483.97 735.444 494.7Z" fill="#EF6E4B"/>
<path d="M711.716 474.892C711.716 474.892 707.302 476.1 704.888 474.593C704.888 474.593 702.781 476.35 700.651 476.224C700.651 476.224 700.717 478.671 705.863 478.295C711.009 477.919 711.716 474.892 711.716 474.892Z" fill="white"/>
<path d="M685.267 746.116C679.698 746.116 675.167 751.668 675.167 758.493C675.167 765.317 679.697 770.87 685.267 770.87C690.837 770.87 695.368 765.317 695.368 758.493C695.368 751.668 690.837 746.116 685.267 746.116Z" fill="#263237"/>
<path d="M685.267 766.444C682.191 766.444 679.594 762.804 679.594 758.493C679.594 754.182 682.191 750.542 685.267 750.542C688.343 750.542 690.942 754.182 690.942 758.493C690.942 762.804 688.343 766.444 685.267 766.444Z" fill="#475154"/>
<path d="M683.883 759.092V745.104H693.901L688.645 759.912C688.298 760.89 687.372 761.543 686.335 761.543C684.979 761.543 683.883 760.447 683.883 759.092Z" fill="#263237"/>
<path opacity="0.3" d="M683.883 759.092V745.104H693.901L688.645 759.912C688.298 760.89 687.372 761.543 686.335 761.543C684.979 761.543 683.883 760.447 683.883 759.092Z" fill="white"/>
<path d="M761.045 703.13C759.893 703.13 758.889 702.32 758.655 701.178L743.283 626.072C743.136 625.354 743.32 624.606 743.784 624.039C744.247 623.47 744.942 623.142 745.675 623.142H768.469C769.158 623.142 769.815 623.433 770.278 623.945C770.74 624.455 770.966 625.138 770.898 625.823L763.475 700.93C763.357 702.131 762.379 703.065 761.173 703.126C761.13 703.129 761.087 703.13 761.045 703.13ZM748.665 628.023L760.204 684.402L765.776 628.023H748.665Z" fill="#475154"/>
<path d="M759.878 770.87C734.898 770.87 714.575 739.387 714.575 700.69C714.575 661.993 734.898 630.51 759.878 630.51C784.858 630.51 805.18 661.993 805.18 700.69C805.18 739.387 784.858 770.87 759.878 770.87ZM759.878 637.897C738.12 637.897 720.418 666.067 720.418 700.69C720.418 735.314 738.12 763.483 759.878 763.483C781.636 763.483 799.337 735.313 799.337 700.69C799.337 666.065 781.636 637.897 759.878 637.897Z" fill="#263237"/>
<path d="M719.834 700.69C719.834 735.722 737.799 764.222 759.878 764.222C781.958 764.222 799.922 735.722 799.922 700.69C799.922 665.658 781.959 637.158 759.878 637.158C737.797 637.157 719.834 665.658 719.834 700.69ZM750.476 692.581L729.729 678.394C731.193 672.995 733.165 668.053 735.554 663.748L751.624 689.739C751.187 690.619 750.802 691.571 750.476 692.581ZM756.917 684L748.268 649.516C751.535 647.479 755.047 646.282 758.71 646.069V683.412C758.094 683.523 757.497 683.726 756.917 684ZM761.047 646.07C764.881 646.293 768.548 647.6 771.944 649.814L762.992 684.064C762.366 683.751 761.715 683.532 761.046 683.412L761.047 646.07ZM768.132 689.739L784.201 663.748C786.696 668.243 788.741 673.429 790.223 679.111L769.347 692.81C769.006 691.716 768.602 690.684 768.132 689.739ZM790.918 681.984C792.11 687.382 792.79 693.178 792.888 699.212H770.465C770.402 697.992 770.265 696.808 770.057 695.673L790.918 681.984ZM792.888 702.167C792.787 708.473 792.04 714.515 790.748 720.118L770.015 705.941C770.249 704.735 770.399 703.47 770.466 702.167H792.888ZM790.027 722.986C788.563 728.386 786.59 733.327 784.201 737.632L768.132 711.641C768.568 710.761 768.952 709.809 769.279 708.799L790.027 722.986ZM762.838 717.379L771.488 751.863C768.22 753.9 764.708 755.097 761.047 755.309V717.965C761.662 717.856 762.259 717.653 762.838 717.379ZM758.71 755.309C754.876 755.086 751.209 753.779 747.813 751.565L756.765 717.314C757.391 717.628 758.041 717.847 758.711 717.967V755.309H758.71ZM751.624 711.641L735.554 737.632C733.059 733.136 731.013 727.95 729.533 722.268L750.408 708.568C750.749 709.663 751.154 710.695 751.624 711.641ZM728.838 719.394C727.647 713.996 726.966 708.2 726.868 702.167H749.291C749.354 703.386 749.49 704.57 749.699 705.705L728.838 719.394ZM726.868 699.212C726.971 692.906 727.716 686.864 729.009 681.26L749.741 695.438C749.507 696.644 749.358 697.909 749.291 699.212H726.868ZM746.179 650.964L754.816 685.397C754.201 685.942 753.624 686.585 753.09 687.311L737.008 661.3C739.677 657.053 742.773 653.544 746.179 650.964ZM782.747 661.298L766.665 687.309C766.171 686.638 765.635 686.043 765.071 685.526L774.017 651.295C777.252 653.84 780.194 657.237 782.747 661.298ZM773.577 750.416L764.94 715.983C765.555 715.438 766.132 714.795 766.666 714.069L782.748 740.08C780.079 744.327 776.984 747.834 773.577 750.416ZM737.008 740.08L753.09 714.069C753.586 714.741 754.12 715.334 754.684 715.853L745.738 750.084C742.503 747.538 739.561 744.142 737.008 740.08Z" fill="#808B8E"/>
<path d="M762.663 713.522C766.997 713.522 770.511 707.777 770.511 700.69C770.511 693.603 766.997 687.858 762.663 687.858C758.329 687.858 754.816 693.603 754.816 700.69C754.816 707.777 758.329 713.522 762.663 713.522Z" fill="#BAC3C6"/>
<path d="M797.927 702.232H807.633C808.307 702.232 808.853 701.541 808.853 700.69C808.853 699.839 808.307 699.147 807.633 699.147H797.927C797.253 699.147 796.707 699.839 796.707 700.69C796.707 701.541 797.253 702.232 797.927 702.232Z" fill="#BAC3C6"/>
<path d="M724.711 702.232H727.908C728.582 702.232 729.128 701.541 729.128 700.69C729.128 699.839 728.582 699.147 727.908 699.147H724.711C724.037 699.147 723.491 699.839 723.491 700.69C723.491 701.541 724.038 702.232 724.711 702.232Z" fill="#BAC3C6"/>
<path d="M759.878 644.354C762.638 644.354 769.234 640.618 769.977 640.19C770.59 639.839 770.862 638.926 770.584 638.15C770.307 637.373 769.581 637.027 768.969 637.383C766.347 638.885 761.561 641.27 759.878 641.27C759.204 641.27 758.658 641.961 758.658 642.812C758.658 643.663 759.204 644.354 759.878 644.354Z" fill="#BAC3C6"/>
<path d="M769.473 764.135C769.937 764.135 770.38 763.8 770.584 763.23C770.862 762.455 770.591 761.541 769.977 761.19C769.234 760.761 762.638 757.025 759.878 757.025C759.204 757.025 758.658 757.716 758.658 758.568C758.658 759.419 759.204 760.11 759.878 760.11C761.563 760.11 766.348 762.495 768.969 763.997C769.133 764.092 769.303 764.135 769.473 764.135Z" fill="#BAC3C6"/>
<path d="M726.807 700.69C726.807 665.283 745.308 636.476 768.049 636.476C790.79 636.476 809.29 665.283 809.29 700.69C809.29 736.097 790.789 764.904 768.049 764.904C745.307 764.904 726.807 736.097 726.807 700.69ZM729.995 700.69C729.995 733.876 747.065 760.874 768.049 760.874C789.033 760.874 806.103 733.875 806.103 700.69C806.103 667.504 789.033 640.506 768.049 640.506C747.065 640.506 729.995 667.504 729.995 700.69Z" fill="#CFD8DC"/>
<path d="M773.686 567.982C777.784 567.982 780.932 571.612 780.351 575.669L777.445 595.982C776.833 600.255 773.173 603.429 768.858 603.429H739.687C735.085 603.429 731.113 606.649 730.159 611.15L704.191 733.775C703.009 739.358 698.081 743.351 692.375 743.351H577.511" stroke="#808B8E" stroke-width="4.2368" stroke-miterlimit="10" stroke-linecap="round" stroke-linejoin="round"/>
<path d="M754.258 629.56C754.864 631.26 758.542 643.142 758.132 645.445C758.119 645.531 758.106 645.616 758.078 645.705C757.546 647.945 755.232 650.384 754.598 651.943C753.933 653.563 752.342 654.066 751.22 655.454C750.101 656.856 746.821 657.616 746.821 657.616C746.821 657.616 742.246 662.319 741.746 660.253C741.133 657.674 743.81 654.895 743.81 654.895L745.148 648.624C745.148 648.624 742.462 640.919 740.927 641.175C739.394 641.446 740.513 644.624 740.175 647.362C739.961 649.171 737.973 649.224 737.973 649.224L736.987 644.502C736.987 644.502 736.158 637.631 736.825 636.193C737.478 634.756 741.108 629.499 741.108 629.499L746.821 616.406L758.165 623.141C758.165 623.141 753.64 627.863 754.258 629.56Z" fill="#FF8B66"/>
<path d="M758.078 645.705C757.546 647.945 755.232 650.385 754.598 651.943C753.933 653.563 752.342 654.066 751.22 655.454C750.101 656.856 746.821 657.616 746.821 657.616C747.905 656.415 749.232 650.495 749.745 650.06C750.259 649.624 750.73 650.356 751.748 650.185C752.766 650.015 752.874 647.902 753.949 648.071C755.025 648.241 756.065 648.192 756.624 646.702C756.868 646.061 757.459 645.836 758.078 645.705Z" fill="#EF6E4B"/>
<path d="M752.276 502.829C780.42 532.886 787.846 550.583 790.964 555.946C794.68 562.332 794.918 570.725 790.964 579.76C787.011 588.796 766.698 616.008 765.842 618.163C764.986 620.318 766.491 622.492 763.668 622.492C760.844 622.492 760.693 626.478 759.262 627.685C757.832 628.893 756.377 629.457 756.162 631.152C755.949 632.846 744.259 624.002 742.668 623.248C741.077 622.492 744.621 617.993 745.296 616.665C745.972 615.338 743.308 608.75 747.651 607.244C751.996 605.739 749.36 601.408 751.996 598.773C754.631 596.137 766.472 573.547 767.517 571.288C768.561 569.029 744.466 540.603 744.466 540.603C744.466 540.603 741.83 530.249 744.09 517.073C746.35 503.897 752.276 502.829 752.276 502.829Z" fill="#BAC3C6"/>
<path d="M451.171 455.099L452.601 463.371L447.877 464.595L446.088 456.218L451.171 455.099Z" fill="#164353"/>
<path d="M467.862 490.135L463.156 497.413C463.156 497.413 460.458 490.007 456.819 491.891C453.18 493.775 456.568 510.985 461.714 511.737C466.858 512.49 469.273 506.153 469.901 504.02C470.529 501.886 467.862 490.135 467.862 490.135Z" fill="#164353"/>
<path d="M456.898 442.874C456.898 442.874 456.898 442.874 455.143 450.869C453.404 458.875 452.197 458.13 448.179 459.966C444.423 461.688 440.523 455.175 439.654 452.056C438.902 449.426 433.534 445.006 433.503 442.664C433.49 441.718 434.191 442.131 435.696 443.733C437.467 445.612 439.73 446.726 439.73 446.726C440.628 443.997 433.548 437.837 434.949 435.064C435.636 433.719 440.414 443.906 442.169 443.875C442.169 443.875 442.588 442.915 440.647 437.729C439.536 434.751 438.365 431.695 439.066 430.933C440.349 429.555 441.595 436.193 445.713 442.663C445.713 442.663 445.087 439.254 444.294 436.136C443.558 433.291 442.574 430.709 443.871 430.501C444.935 430.327 445.961 434.798 446.724 437.623C448.155 442.884 450.343 446.423 451.606 448.165C452.2 449.006 452.602 449.421 452.602 449.421C455.063 441.415 456.898 442.874 456.898 442.874Z" fill="#CFD8DC"/>
<path d="M452.601 449.421C452.601 449.421 449.46 451.197 449.073 453.926C449.073 453.926 447.521 450.045 451.605 448.165C452.2 449.006 452.601 449.421 452.601 449.421Z" fill="#BAC3C6"/>
<path d="M466.824 507.807C466.424 506.357 466.163 504.869 466.047 503.367C465.899 501.446 465.989 499.514 466.077 497.588C466.18 495.383 465.755 492.698 466.238 490.561C466.625 488.845 467.971 487.057 468.798 485.515C470.804 481.769 472.824 478.029 474.869 474.305C477.796 468.98 480.494 462.515 484.561 457.928C491.914 449.632 508.419 442.852 510.066 452.388C511.025 457.933 496.944 474.935 490.158 484.244C486.636 489.076 483.223 493.984 479.654 498.781C477.662 501.459 475.637 504.114 473.52 506.694C473.106 507.2 468.849 513.097 467.856 510.764C467.446 509.803 467.102 508.814 466.824 507.807Z" fill="#CFD8DC"/>
<path d="M451.907 461.32C452.739 461.053 453.626 461.528 453.861 462.37C456.489 471.777 460.767 486.137 461.27 487.939C462.137 491.043 463.759 494.079 462.196 497.042C461.32 498.704 461.723 500.718 462.068 502.565C462.414 504.412 462.622 506.51 461.469 507.995C461.064 508.516 460.524 508.912 459.987 509.297C459.39 509.725 458.73 510.169 457.996 510.137C457.501 510.115 457.043 509.875 456.616 509.624C450.728 506.169 449.657 499.012 449.366 492.577C448.927 482.873 447.66 471.48 446.785 464.274C446.695 463.541 447.142 462.847 447.846 462.621L451.907 461.32Z" fill="#BAC3C6"/>
<path d="M500.675 447.744C489.197 449.347 479.22 461.771 479.22 461.771L481.877 494.337L500.675 447.744Z" fill="#0D527C"/>
<path d="M475.247 553.58C476.724 576.229 502.273 574.99 502.273 574.99C502.273 574.99 501.911 471.33 494.912 467.371C487.911 463.412 470.817 485.645 475.247 553.58Z" fill="#0D527C"/>
<path d="M504.945 412.599C504.945 412.599 504.259 438.814 511.8 456.83C519.341 474.846 547.691 475.956 551.833 472.262C555.977 468.569 549.024 440.579 548.643 426.275C548.264 411.97 551.729 408.982 546.427 399.266C541.126 389.551 504.945 412.599 504.945 412.599Z" fill="#1D1D1D"/>
<path d="M500.097 768.245C502.247 766.027 509.662 756.526 509.796 751.753C509.986 745.006 509.852 735.735 509.541 725.632H520.166C519.741 736.652 519.705 750.383 519.86 754.536C520.087 755.233 520.861 759.853 521.244 760.524C521.824 761.538 521.336 769.201 521.336 769.201L499.837 768.333C499.922 768.306 499.991 768.285 500.034 768.273C500.072 768.258 500.086 768.256 500.097 768.245Z" fill="#EF6E4B"/>
<path d="M509.82 737.276C509.371 708.761 503.675 665.594 502.891 658.444C502.384 653.824 498.411 641.761 493.1 624.121C480.782 583.209 479.98 553.69 484.201 527.047L511.721 527.682C516.487 548.839 543.489 571.673 525.119 596.145C524.378 605.283 519.164 636.27 521.376 649.918C523.986 666.022 525.545 673.905 524.566 692.608C524.158 700.393 519.935 724.797 519.955 737.276H509.82Z" fill="#EBEBEB"/>
<path d="M527.305 727.718H539.865C538.451 740.698 537.405 751.719 537.405 751.719L538.778 770.87H525.092C525.999 765.137 528.572 747.957 528.053 740.712C527.747 736.456 527.504 732.108 527.305 727.718Z" fill="#FF8B66"/>
<path d="M547.923 620.853C546.824 629.962 544.776 636.055 543.958 643.72C542.767 654.88 549.593 671.047 545.167 689.019C543.072 697.527 540.035 725.616 538.452 741.152H528.076C528.068 741.004 528.062 740.851 528.053 740.711C525.341 702.9 525.936 659.3 523.934 642.16C523.091 634.936 518.065 623.204 516.105 613.881C516.095 613.835 510.139 586.765 506.059 584.495C489.352 575.196 484.201 527.047 484.201 527.047L525.266 528.957C525.266 528.957 550.53 548.828 546.808 584.2C546.808 584.2 546.86 584.563 546.937 585.199C549.13 601.85 548.919 612.598 547.923 620.853Z" fill="white"/>
<path d="M539.673 756.066C539.673 756.066 539.164 751.352 532.681 751.901C526.199 752.451 527.008 757.196 527.008 757.196C527.008 757.196 525.971 756.432 525.167 757.196C524.364 757.959 525.56 764.502 524.008 765.878C522.456 767.255 523.23 770.871 523.23 770.871H542.279C542.279 770.871 542.974 766.223 540.964 764.502C538.953 762.778 543.313 756.582 539.673 756.066Z" fill="#808B8E"/>
<path d="M522.743 770.87C522.743 770.87 523.791 756.719 521.027 753.022C521.027 753.022 517.967 757.88 513.782 757.88C511.058 757.88 509.959 751.613 507.629 753.022C505.584 754.258 504.21 757.794 498.718 761.414C493.227 765.035 488.765 764.005 488.422 770.87H522.743Z" fill="#808B8E"/>
<path d="M556.547 616.162C556.388 617.526 559.963 619.044 559.963 619.044C559.963 619.044 561.215 621.446 563.06 621.446C564.904 621.446 568.678 615.201 565.728 611.977C562.777 608.751 557.043 611.908 556.547 616.162Z" fill="#DD8866"/>
<path d="M503.145 449.174C503.145 449.174 515.117 445.976 524.966 447.744C532.196 449.043 543.984 444.255 550.408 452.356C560.053 464.515 544.363 486.93 536.107 498.545C533.029 502.876 531.547 522.347 530.235 533.87C530.235 533.87 502.84 536.302 484.041 528.08L483.221 497.777C483.221 497.777 469.681 472.697 503.145 449.174Z" fill="#39A5C9"/>
<path d="M539.105 447.11C539.105 447.11 523.842 470.466 521.28 497.75C518.718 525.034 546.789 580.206 546.789 580.206C546.789 580.206 550.769 579.382 553.445 573.893C553.445 573.893 543.368 527.121 549.808 497.752C555.742 470.684 565.405 447.11 539.105 447.11Z" fill="#105E99"/>
<path d="M510.111 447.744C510.111 447.744 482.285 463.604 478.168 497.75C474.05 531.896 475.247 553.581 475.247 553.581C475.247 553.581 466.09 468.424 500.675 447.746C500.675 447.746 507.157 446.315 510.111 447.744Z" fill="#105E99"/>
<path d="M566.552 602.438C566.552 602.438 573.377 611.559 572.675 613.627C571.973 615.694 566.552 618.084 566.552 618.084C566.552 618.084 565.516 621.809 563.06 621.446C563.06 621.446 564.145 619.24 563.358 616.947C562.571 614.653 558.865 613.98 558.865 613.98L556.547 616.162C556.547 616.162 556.395 606.28 557.904 603.399C559.415 600.517 566.552 602.438 566.552 602.438Z" fill="#FF8B66"/>
<path d="M554.743 453.948C549.566 448.415 544.318 459.308 541.024 471.859C537.731 484.41 546.425 523.454 545.295 538.765C544.745 546.218 557.904 603.399 557.904 603.399C557.904 603.399 563.1 606.419 566.817 603.125C566.817 603.125 562.343 540.965 559.712 528.951C559.712 528.951 564.503 464.38 554.743 453.948Z" fill="#FF8B66"/>
<path d="M527.276 388.828C527.276 388.828 515.882 388.652 508.441 395.624C501 402.596 502.467 413.331 507.395 415.123C512.323 416.917 531.157 401.119 531.157 401.119L527.276 388.828Z" fill="#1D1D1D"/>
<path d="M536.935 395.778C536.935 395.778 512.68 387.657 507.796 404.733C502.911 421.811 507.347 439.822 518.733 438.617C534.752 436.921 555.774 405.383 536.935 395.778Z" fill="#FF8B66"/>
<path d="M524.72 419.763C524.827 420.786 523.878 421.725 522.599 421.86C521.32 421.995 520.196 421.275 520.088 420.253C519.979 419.23 520.93 418.291 522.209 418.156C523.487 418.02 524.612 418.74 524.72 419.763Z" fill="#FE6F02"/>
<path d="M522.836 409.293C522.681 409.284 522.531 409.202 522.441 409.061C521.432 407.484 519.476 407.667 519.458 407.672C519.179 407.702 518.933 407.5 518.905 407.224C518.875 406.947 519.076 406.7 519.353 406.67C519.456 406.658 521.951 406.421 523.292 408.519C523.441 408.754 523.372 409.065 523.138 409.215C523.044 409.273 522.938 409.299 522.836 409.293Z" fill="#1D1D1D"/>
<path d="M511.657 406.701C511.555 406.695 511.452 406.657 511.367 406.586C509.935 405.399 508.175 406.14 508.1 406.172C507.844 406.284 507.548 406.166 507.438 405.912C507.327 405.657 507.441 405.361 507.696 405.249C507.794 405.207 510.094 404.221 512.011 405.809C512.224 405.987 512.254 406.305 512.078 406.519C511.97 406.648 511.813 406.71 511.657 406.701Z" fill="#1D1D1D"/>
<path d="M509.194 424.598C509.194 424.598 512.855 426.958 519.253 424.89C519.253 424.89 517.33 432.473 513.262 431.51C509.196 430.547 509.194 424.598 509.194 424.598Z" fill="black"/>
<path d="M527.276 404.555C527.276 404.555 532.827 411.627 532.542 420.812C532.542 420.812 536.612 415.825 538.74 420.159C540.869 424.492 532.344 430.823 532.344 430.823C532.344 430.823 546.072 431.597 547.684 413.842C548.362 406.362 538.653 399.533 527.276 404.555Z" fill="#1D1D1D"/>
<path d="M532.043 426.989C530.182 432.001 523.047 440.683 515.491 438.202C515.491 438.202 517.39 445.674 514.247 448.398C514.247 448.398 510.927 454.179 518.484 455.003C527.936 456.033 533.201 448.398 533.201 448.398C529.083 439.228 534.739 427.914 534.739 427.914C532.699 429.262 532.043 426.989 532.043 426.989Z" fill="#EF6E4B"/>
<path d="M510.401 422.063L510.85 421.05C510.666 420.966 509.064 420.191 509.707 418.628C509.903 418.153 510.173 417.852 510.509 417.731C511.104 417.518 511.78 417.882 511.786 417.887L512.323 416.918C512.278 416.894 511.215 416.313 510.15 416.685C509.499 416.912 509.006 417.424 508.683 418.207C507.829 420.281 509.434 421.635 510.401 422.063Z" fill="black" fill-opacity="0.25"/>
<path d="M531.843 421.05C531.843 421.05 535.28 416.32 537.311 416.901C539.342 417.481 541.127 420.066 538.665 424.744C536.203 429.421 531.157 428.314 531.157 428.314L531.843 421.05Z" fill="#FF8B66"/>
<path d="M512.323 393.848C512.323 393.848 506.047 398.674 515.401 405.806C524.756 412.937 536.94 406.656 536.94 406.656L547.617 414.462C547.617 414.462 551.181 405.762 544.368 395.626C537.557 385.489 517.861 388.176 512.323 393.848Z" fill="#1D1D1D"/>
<path d="M521.747 414.245C521.675 415.337 521.058 416.185 520.367 416.14C519.675 416.095 519.172 415.174 519.243 414.083C519.315 412.992 519.932 412.143 520.623 412.188C521.315 412.233 521.818 413.154 521.747 414.245Z" fill="black"/>
<path d="M522.403 413.963C522.403 413.963 521.826 411.452 520.936 411.393C520.045 411.334 518.557 413.007 518.557 413.007L516.922 411.817L518.496 412.434C518.496 412.434 519.855 410.522 521.092 410.913C522.331 411.301 522.403 413.963 522.403 413.963Z" fill="black"/>
<path d="M511.645 412.681C511.573 413.772 510.956 414.621 510.265 414.576C509.572 414.531 509.07 413.609 509.142 412.518C509.213 411.428 509.83 410.578 510.523 410.623C511.213 410.668 511.715 411.589 511.645 412.681Z" fill="black"/>
<path d="M512.301 412.398C512.301 412.398 511.724 409.886 510.834 409.827C509.943 409.769 508.455 411.44 508.455 411.44L506.82 410.25L508.394 410.868C508.394 410.868 509.753 408.955 510.99 409.346C512.229 409.735 512.301 412.398 512.301 412.398Z" fill="black"/>
<path d="M552.011 450.599C559.414 456.688 566.817 488.879 566.817 488.879L539.861 502.244C539.861 502.244 531.196 467.419 551.706 451.606" fill="#0D527C"/>
</g>
<defs>
<clipPath id="clip0_2176_388">
<rect width="864" height="576" fill="white" transform="translate(0 232)"/>
</clipPath>
</defs>
</svg>
