<svg width="112" height="112" viewBox="0 0 112 112" fill="none" xmlns="http://www.w3.org/2000/svg">
<path d="M6.10863 0.266541L0.262695 6.11248L105.888 111.737L111.73 105.896L79.8633 74.0334C85.9936 64.9497 92.5627 52.7419 92.5627 39.75C92.5627 21.8344 77.9783 7.24998 60.0627 7.24998C54.0356 7.25266 48.1273 8.92712 42.995 12.0871C37.8626 15.2471 33.7074 19.7688 30.9914 25.1494L6.10863 0.266541ZM60.0627 15.375C73.5055 15.375 84.4377 26.3072 84.4377 39.75C84.4377 50.0322 79.2661 60.1884 74.0255 68.1875L48.0011 42.1631C48.7689 36.0531 53.6846 31.625 60.0627 31.625C64.4421 31.625 68.5696 34.0219 70.7268 37.8447L77.7102 33.7822C75.9387 30.6625 73.3725 28.0677 70.2728 26.2617C67.173 24.4556 63.6502 23.5028 60.0627 23.5C51.6208 23.5 44.5114 28.3872 41.3996 35.5615L37.2111 31.3731C38.923 26.687 42.0326 22.6396 46.1196 19.7784C50.2066 16.9171 55.0737 15.38 60.0627 15.375ZM36.3214 53.335L35.6877 53.8428V56C35.6877 61.8094 40.6236 64.0437 43.9386 65.5225C46.9855 66.8712 47.8752 67.4237 47.8752 68.1875C47.8752 70.9825 43.4796 72.25 39.3683 72.25V80.375C47.3349 80.375 53.0793 77.2347 55.1105 72.25L36.3214 53.335ZM27.5627 80.375V84.4375C27.5627 95.6419 36.6708 104.75 47.8752 104.75C59.6808 104.75 64.1252 97.275 67.6799 91.2909C68.533 89.865 69.3293 88.5162 70.2189 87.2284L64.3771 81.3906C64.2836 81.5328 64.2186 81.7725 64.1252 81.8984C62.8414 83.6615 61.7283 85.4856 60.6964 87.2325C57.3002 92.9281 55.0658 96.625 47.8752 96.625C41.1639 96.625 35.6877 91.1487 35.6877 84.4375V80.375H27.5627Z" fill="#ACACAC"/>
</svg>
