<svg width="96" height="82" viewBox="0 0 96 82" fill="none" xmlns="http://www.w3.org/2000/svg">
<path d="M41.6148 8.9754C41.6936 4.28145 37.9524 0.412304 33.2584 0.333427C28.5645 0.254549 24.6953 3.99581 24.6165 8.68976C24.5376 13.3837 28.2788 17.2528 32.9728 17.3317C37.6667 17.4106 41.5359 13.6693 41.6148 8.9754Z" fill="#ACACAC"/>
<path d="M27.4994 52.7C26.6994 52.2 25.7994 51.6 24.9994 50.9C24.5994 53.8 24.1994 57.4 23.4994 58.7C21.5994 62.6 15.1994 75.8 15.0994 75.9C14.0994 77.9 14.9994 80.3 16.8994 81.2C17.4994 81.5 18.0994 81.6 18.5994 81.6C20.0994 81.6 21.4994 80.8 22.1994 79.4C22.2994 79.3 28.6994 66.1 30.5994 62.2C31.3994 60.7 31.7994 58.6 32.1994 56.4C30.8994 55.2 29.5994 54.1 28.3994 53.3C28.1994 53.1 27.8994 52.9 27.4994 52.7Z" fill="#ACACAC"/>
<path d="M94.5998 49.2L87.6998 46C87.1998 45.8 86.6998 45.4 86.2998 44.9L84.7998 43.1C84.2998 42.6 83.4998 42.7 83.1998 43.4C82.3998 45.6 80.9998 49.7 80.3998 51H80.2998C79.6998 50.8 79.0998 50.9 78.6998 51.3C77.3998 51.1 63.2998 48.8 57.0998 43.4C57.6998 42.2 57.2998 40.6 56.1998 39.7C53.6998 37.7 49.7998 34.2 48.7998 32.6C48.4998 32.2 48.1998 31.4 47.7998 30.6C46.0998 27 42.8998 20 35.6998 20C35.6998 20 31.7998 19.9 30.5998 19.9C22.3998 19.8 17.0998 26.9 15.8998 29.5C14.6998 32 11.9998 40.2 11.4998 42C11.1998 43.1 11.4998 44.2 12.2998 45L0.59979 79.2C0.39979 79.8 0.69979 80.5 1.29979 80.7C1.39979 80.7 1.59979 80.8 1.69979 80.8C2.19979 80.8 2.69979 80.5 2.79979 80L14.3998 45.9C15.6998 45.9 16.9998 45 17.3998 43.6C17.8998 41.9 20.4998 34.1 21.4998 32.1C21.7998 31.5 22.6998 30.1 24.0998 28.8C22.6998 34.6 23.1998 42.4 23.4998 45.7C23.6998 47.9 27.3998 50 29.5998 51.6C33.0998 54 38.4998 59.5 39.6998 62C40.5998 63.9 44.2998 74.4 46.0998 79.1C46.6998 80.7 48.1998 81.6 49.7998 81.6C50.2998 81.6 50.7998 81.5 51.1998 81.3C53.1998 80.5 54.2998 78.2 53.4998 76.2C53.2998 75.6 48.0998 61.3 46.9998 58.7C45.9998 56.5 41.9998 51.6 39.3998 48.7C39.2998 48.6 39.2998 48.6 39.1998 48.5C39.0998 47.1 39.1998 37.1 40.7998 30.1C41.2998 31 41.7998 32 42.2998 33.1C42.7998 34.1 43.1998 35 43.5998 35.7C45.4998 38.7 51.1998 43.4 52.2998 44.3C52.8998 44.8 53.5998 45 54.1998 45C54.6998 45 55.1998 44.9 55.5998 44.6C61.9998 50.2 75.2998 52.5 77.8998 53C77.8998 53.2 77.9998 53.4 78.1998 53.6C77.1998 54.6 75.9998 55.4 74.9998 55.5C73.0998 55.7 59.9998 56.4 59.9998 56.4L56.9998 54.2C56.3998 53.8 55.6998 53.9 55.1998 54.4C54.9998 54.6 54.8998 54.9 54.8998 55.2C54.8998 55.5 54.9998 55.9 55.2998 56.1L57.7998 58.4C57.7998 58.4 57.2998 60.2 57.0998 63.1C56.9998 66 58.9998 70.1 59.2998 71.7C59.5998 73.3 59.3998 77.5 59.4998 78.9C59.5998 80.3 60.3998 81.4 61.2998 81.4H64.4998C65.3998 81.4 66.1998 80.6 65.9998 79.7L65.8998 79.2C65.7998 78.5 65.1998 77.9 64.4998 77.8L63.3998 77.7L64.5998 74.9C65.1998 73.5 65.4998 72.1 65.5998 70.6L65.6998 67.8C67.1998 67.8 68.6998 67.8 70.1998 67.9C72.8998 68.1 76.7998 68.1 80.1998 68.1L80.7998 73.2V79C80.6998 80.5 81.8998 81.7 83.3998 81.7H86.0998C87.1998 81.7 87.9998 80.7 87.6998 79.7C87.5998 79.3 87.4998 78.9 87.2998 78.7C86.5998 78 84.8998 77.9 84.8998 77.9C84.8998 77.9 86.2998 69.7 86.7998 67.4C87.1998 65.1 86.9998 59.7 87.1998 57.8C87.1998 57.7 87.1998 57.6 87.1998 57.5C87.7998 57.5 88.2998 57.2 88.5998 56.6L88.8998 56C89.1998 55.3 88.8998 54.4 88.0998 54.1C88.1998 53.8 88.2998 53.6 88.2998 53.6L93.4998 54.2C94.2998 54.3 94.9998 53.8 95.1998 53L95.5998 50.7C95.5998 50.2 95.1998 49.5 94.5998 49.2ZM87.9998 55.7L87.6998 56.3C87.6998 56.4 87.5998 56.5 87.3998 56.6C87.2998 56.7 87.1998 56.6 86.9998 56.6L79.1998 53.3C79.0998 53.3 78.9998 53.2 78.8998 53C78.8998 52.9 78.8998 52.8 78.8998 52.6L79.1998 52C79.2998 51.8 79.3998 51.7 79.5998 51.7C79.6998 51.7 79.6998 51.7 79.7998 51.7L87.5998 55C87.6998 55 87.7998 55.1 87.8998 55.3C87.9998 55.5 87.9998 55.6 87.9998 55.7Z" fill="#ACACAC"/>
</svg>
