<svg width="148" height="135" viewBox="0 0 148 135" fill="none" xmlns="http://www.w3.org/2000/svg">
<path d="M48.4172 32.418L25.3122 9.31401C23.0952 7.09701 20.2182 6.00301 17.3142 6.00001C14.4102 6.00401 11.5312 7.10001 9.31216 9.31401C7.09716 11.531 6.00116 14.408 5.99616 17.312C6.00216 20.216 7.09816 23.095 9.31416 25.316L5.06817 29.556C1.69717 26.181 -0.00383978 21.734 0.000160217 17.312C-0.00383978 12.892 1.69517 8.44301 5.07017 5.07001C8.44517 1.69501 12.8942 -0.00399295 17.3142 7.04643e-06C21.7322 -0.00399295 26.1812 1.69501 29.5542 5.07201L125.368 100.885L121.124 105.129V105.127L112.017 96.02C103.675 96.912 67.1852 100.274 56.8512 92.036C46.5862 83.852 47.9342 42.428 48.4172 32.418Z" fill="#ACACAC"/>
<path d="M133.19 105.361C141.198 105.361 147.69 111.853 147.69 119.861C147.69 127.869 141.198 134.361 133.19 134.361C125.182 134.361 118.69 127.869 118.69 119.861C118.69 111.854 125.182 105.361 133.19 105.361ZM133.19 126.611C136.917 126.611 139.94 123.588 139.94 119.861C139.94 116.132 136.917 113.111 133.19 113.111C129.461 113.111 126.44 116.132 126.44 119.861C126.44 123.588 129.461 126.611 133.19 126.611Z" fill="#ACACAC"/>
<path d="M54.8154 105.361C62.8234 105.361 69.3154 111.853 69.3154 119.861C69.3154 127.869 62.8234 134.361 54.8154 134.361C46.8074 134.361 40.3154 127.869 40.3154 119.861C40.3154 111.854 46.8074 105.361 54.8154 105.361ZM54.8154 126.611C58.5424 126.611 61.5654 123.588 61.5654 119.861C61.5654 116.132 58.5424 113.111 54.8154 113.111C51.0864 113.111 48.0654 116.132 48.0654 119.861C48.0654 123.588 51.0864 126.611 54.8154 126.611Z" fill="#ACACAC"/>
</svg>
