<svg width="24" height="24" viewBox="0 0 24 24" fill="none" xmlns="http://www.w3.org/2000/svg">
<rect width="24" height="24" rx="12" fill="#FF9A00"/>
<path d="M12.2458 12.4115V15.9088M12.2458 12.4115V6.58287M12.2458 12.4115C12.2458 11.6894 11.6586 10.9544 10.9344 10.9544C10.2101 10.9544 9.62291 11.6894 9.62291 12.4115C9.62291 11.6894 9.03567 10.9544 8.31145 10.9544C7.58724 10.9544 7 11.6894 7 12.4115V11.8124C7 8.92425 9.34867 6.58287 12.2458 6.58287M12.2458 12.4115C12.2458 11.6894 12.8331 10.9544 13.5573 10.9544C14.2815 10.9544 14.8687 11.6894 14.8687 12.4115C14.8687 11.6894 15.456 10.9544 16.1802 10.9544C16.9044 10.9544 17.4916 11.6894 17.4916 12.4115V11.8124C17.4916 8.92425 15.143 6.58287 12.2458 6.58287M12.2458 6.58287V6M7.58287 16.4916H15.1602L16.9088 14.743M9.62291 16.4916V17.6574M14.5773 16.4916V17.6574" stroke="white" stroke-linecap="round" stroke-linejoin="round"/>
<path d="M9.62323 12.4114C9.62323 12.4114 9.18607 10.8086 9.91466 9.20567C10.6432 7.60278 12.2461 6.58276 12.2461 6.58276M12.2461 6.58276C12.2461 6.58276 13.5576 7.31135 14.2862 9.20567C15.0148 11.1 14.869 12.4114 14.869 12.4114M12.2461 6.58276V12.12" stroke="white" stroke-linecap="round" stroke-linejoin="round"/>
<path d="M16.1802 10.9543C15.456 10.9543 14.8688 11.6893 14.8688 12.4114C14.8688 11.6893 14.2815 10.9543 13.5573 10.9543C12.8331 10.9543 12.2459 11.6893 12.2459 12.4114C12.2459 11.6893 11.6586 10.9543 10.9344 10.9543C10.2102 10.9543 9.62298 11.6893 9.62298 12.4114C9.62298 11.6893 9.03574 10.9543 8.31152 10.9543M9.8366 7.16563C10.5585 6.79318 11.3774 6.58276 12.2459 6.58276C13.1144 6.58276 13.9333 6.79318 14.6549 7.16563" stroke="white" stroke-linecap="round" stroke-linejoin="round"/>
</svg>
