<svg width="24" height="24" viewBox="0 0 24 24" fill="none" xmlns="http://www.w3.org/2000/svg">
<rect width="24" height="24" rx="12" fill="#11556B"/>
<path d="M10.085 6.94351C10.085 7.32636 10.237 7.69352 10.5078 7.96423C10.7785 8.23494 11.1456 8.38703 11.5285 8.38703C11.9113 8.38703 12.2785 8.23494 12.5492 7.96423C12.8199 7.69352 12.972 7.32636 12.972 6.94351C12.972 6.56067 12.8199 6.19351 12.5492 5.9228C12.2785 5.65208 11.9113 5.5 11.5285 5.5C11.1456 5.5 10.7785 5.65208 10.5078 5.9228C10.237 6.19351 10.085 6.56067 10.085 6.94351Z" stroke="white" stroke-linecap="round" stroke-linejoin="round"/>
<path d="M11.5281 8.38696V14.161H14.4151L17.3022 17.7698M11.5281 11.274H15.1369M8.64109 11.6349C8.12395 11.849 7.66371 12.1806 7.29677 12.6032C6.92982 13.0259 6.66622 13.5281 6.52681 14.0702C6.3874 14.6123 6.376 15.1794 6.49351 15.7267C6.61102 16.2739 6.85422 16.7864 7.20388 17.2234C7.55355 17.6605 8.00009 18.0103 8.5082 18.245C9.01632 18.4798 9.57209 18.5932 10.1316 18.5762C10.691 18.5592 11.2389 18.4122 11.7318 18.147C12.2247 17.8818 12.6492 17.5056 12.9716 17.048" stroke="white" stroke-linecap="round" stroke-linejoin="round"/>
</svg>
