<svg width="24" height="24" viewBox="0 0 24 24" fill="none" xmlns="http://www.w3.org/2000/svg">
<rect width="24" height="24" rx="12" fill="#39A5C9"/>
<path d="M12.0435 9.56273C11.4418 9.56273 10.95 9.07273 10.95 8.48091C10.95 8.19568 11.0652 7.92213 11.2703 7.72045C11.4754 7.51876 11.7535 7.40545 12.0435 7.40545C12.6518 7.40545 13.1435 7.88909 13.1435 8.48091C13.1435 9.07273 12.6518 9.56273 12.0435 9.56273ZM10.0765 17.0464L6.23941 16.2955L6.45941 15.2136L9.14471 15.7545L10.0182 11.3891L9.03471 11.7709V13.5909H7.94118V11.0709L10.7882 9.88091L11.2218 9.83C11.61 9.83 11.9335 10.0464 12.1471 10.3709L12.7035 11.23C13.1435 12 14.0171 12.5218 15.0588 12.5218V13.5909C13.8553 13.5909 12.7553 13.0627 12.0435 12.2545L11.72 13.8709L12.8653 14.9464V19H11.7718V15.7545L10.62 14.6791L10.0765 17.0464ZM17 19H15.7059V6.27273H7.29412V14.6155L6 14.3482V5H17V19ZM7.29412 19H6V16.9509L7.29412 17.2182V19Z" fill="white"/>
</svg>
