<svg width="24" height="24" viewBox="0 0 24 24" fill="none" xmlns="http://www.w3.org/2000/svg">
<rect width="24" height="24" rx="12" fill="#FF9A00"/>
<path d="M12 18C11.5333 18 11.1389 17.8436 10.8167 17.5309C10.4944 17.2181 10.3333 16.8353 10.3333 16.3824C10.3333 15.9294 10.4944 15.5466 10.8167 15.2338C11.1389 14.9211 11.5333 14.7647 12 14.7647C12.4667 14.7647 12.8611 14.9211 13.1833 15.2338C13.5056 15.5466 13.6667 15.9294 13.6667 16.3824C13.6667 16.8353 13.5056 17.2181 13.1833 17.5309C12.8611 17.8436 12.4667 18 12 18ZM8.23333 14.3441L6.83333 12.9529C7.48889 12.3167 8.25844 11.8126 9.142 11.4408C10.0256 11.0689 10.9782 10.8828 12 10.8824C13.0218 10.8819 13.9747 11.0706 14.8587 11.4485C15.7427 11.8264 16.512 12.3387 17.1667 12.9853L15.7667 14.3441C15.2778 13.8696 14.7111 13.4975 14.0667 13.2279C13.4222 12.9583 12.7333 12.8235 12 12.8235C11.2667 12.8235 10.5778 12.9583 9.93333 13.2279C9.28889 13.4975 8.72222 13.8696 8.23333 14.3441ZM5.4 11.5941L4 10.2353C5.02222 9.22157 6.21667 8.42892 7.58333 7.85735C8.95 7.28578 10.4222 7 12 7C13.5778 7 15.05 7.28578 16.4167 7.85735C17.7833 8.42892 18.9778 9.22157 20 10.2353L18.6 11.5941C17.7444 10.7637 16.7529 10.1141 15.6253 9.64518C14.4978 9.17627 13.2893 8.94161 12 8.94118C10.7107 8.94075 9.50244 9.17541 8.37533 9.64518C7.24822 10.1149 6.25644 10.7646 5.4 11.5941Z" fill="white"/>
</svg>
