<svg width="68" height="68" viewBox="0 0 68 68" fill="none" xmlns="http://www.w3.org/2000/svg">
<path d="M50.9997 31.1667H16.9997V17H50.9997M46.7497 48.1667C45.6225 48.1667 44.5415 47.7189 43.7445 46.9219C42.9474 46.1248 42.4997 45.0438 42.4997 43.9167C42.4997 42.7895 42.9474 41.7085 43.7445 40.9114C44.5415 40.1144 45.6225 39.6667 46.7497 39.6667C47.8768 39.6667 48.9578 40.1144 49.7549 40.9114C50.5519 41.7085 50.9997 42.7895 50.9997 43.9167C50.9997 45.0438 50.5519 46.1248 49.7549 46.9219C48.9578 47.7189 47.8768 48.1667 46.7497 48.1667ZM21.2497 48.1667C20.1225 48.1667 19.0415 47.7189 18.2445 46.9219C17.4474 46.1248 16.9997 45.0438 16.9997 43.9167C16.9997 42.7895 17.4474 41.7085 18.2445 40.9114C19.0415 40.1144 20.1225 39.6667 21.2497 39.6667C22.3768 39.6667 23.4578 40.1144 24.2549 40.9114C25.0519 41.7085 25.4997 42.7895 25.4997 43.9167C25.4997 45.0438 25.0519 46.1248 24.2549 46.9219C23.4578 47.7189 22.3768 48.1667 21.2497 48.1667ZM11.333 45.3333C11.333 47.8267 12.438 50.065 14.1663 51.6233V56.6667C14.1663 57.4181 14.4649 58.1388 14.9962 58.6701C15.5276 59.2015 16.2482 59.5 16.9997 59.5H19.833C20.5845 59.5 21.3051 59.2015 21.8365 58.6701C22.3678 58.1388 22.6663 57.4181 22.6663 56.6667V53.8333H45.333V56.6667C45.333 57.4181 45.6315 58.1388 46.1629 58.6701C46.6942 59.2015 47.4149 59.5 48.1663 59.5H50.9997C51.7511 59.5 52.4718 59.2015 53.0031 58.6701C53.5345 58.1388 53.833 57.4181 53.833 56.6667V51.6233C55.5613 50.065 56.6663 47.8267 56.6663 45.3333V17C56.6663 7.08332 46.523 5.66666 33.9997 5.66666C21.4763 5.66666 11.333 7.08332 11.333 17V45.3333Z" fill="#ACACAC"/>
</svg>
