<svg width="18" height="17" viewBox="0 0 18 17" fill="none" xmlns="http://www.w3.org/2000/svg">
<path d="M6.49935 0.333252V1.99992H11.4993V0.333252H13.166V1.99992H16.4993C16.9596 1.99992 17.3327 2.37302 17.3327 2.83325V16.1666C17.3327 16.6268 16.9596 16.9999 16.4993 16.9999H1.49935C1.03912 16.9999 0.666016 16.6268 0.666016 16.1666V2.83325C0.666016 2.37302 1.03912 1.99992 1.49935 1.99992H4.83268V0.333252H6.49935ZM15.666 8.66658H2.33268V15.3333H15.666V8.66658ZM4.83268 3.66659H2.33268V6.99992H15.666V3.66659H13.166V5.33325H11.4993V3.66659H6.49935V5.33325H4.83268V3.66659Z" fill="#FF9A00"/>
</svg>
