<svg width="38" height="33" viewBox="0 0 38 33" fill="none" xmlns="http://www.w3.org/2000/svg">
<path d="M18.7165 10.5095L23.9998 15.9078V15.6345C23.9998 14.2753 23.4731 12.9717 22.5354 12.0106C21.5977 11.0494 20.3259 10.5095 18.9998 10.5095H18.7165ZM11.5498 11.8762L14.1332 14.5241C14.0498 14.8828 13.9998 15.2416 13.9998 15.6345C13.9998 16.9937 14.5266 18.2973 15.4643 19.2584C16.402 20.2195 17.6738 20.7595 18.9998 20.7595C19.3665 20.7595 19.7332 20.7082 20.0832 20.6228L22.6665 23.2707C21.5498 23.8345 20.3165 24.1762 18.9998 24.1762C16.7897 24.1762 14.6701 23.2762 13.1073 21.6744C11.5445 20.0725 10.6665 17.8999 10.6665 15.6345C10.6665 14.2849 10.9998 13.0207 11.5498 11.8762ZM2.33317 2.42907L6.13317 6.32407L6.88317 7.09282C4.13317 9.31366 1.9665 12.2178 0.666504 15.6345C3.54984 23.1341 10.6665 28.447 18.9998 28.447C21.5832 28.447 24.0498 27.9345 26.2998 27.012L27.0165 27.7295L31.8832 32.7178L33.9998 30.5482L4.44984 0.259491M18.9998 7.09282C21.21 7.09282 23.3296 7.99275 24.8924 9.59462C26.4552 11.1965 27.3332 13.3691 27.3332 15.6345C27.3332 16.7278 27.1165 17.787 26.7332 18.7437L31.6165 23.7491C34.1165 21.6137 36.1165 18.812 37.3332 15.6345C34.4498 8.13491 27.3332 2.82199 18.9998 2.82199C16.6665 2.82199 14.4332 3.24907 12.3332 4.01782L15.9498 7.69074C16.8998 7.31491 17.9165 7.09282 18.9998 7.09282Z" fill="#B2B2B2"/>
</svg>
