<svg width="60" height="60" viewBox="0 0 60 60" fill="none" xmlns="http://www.w3.org/2000/svg">
<path d="M52.75 0.75C54.4739 0.75 56.1272 1.43482 57.3462 2.65381C58.5652 3.87279 59.25 5.52609 59.25 7.25V52.75C59.25 54.4739 58.5652 56.1272 57.3462 57.3462C56.1272 58.5652 54.4739 59.25 52.75 59.25H7.25C5.52609 59.25 3.87279 58.5652 2.65381 57.3462C1.43482 56.1272 0.75 54.4739 0.75 52.75V7.25C0.75 5.52609 1.43482 3.87279 2.65381 2.65381C3.87279 1.43482 5.52609 0.75 7.25 0.75H52.75ZM45.275 21.3875C45.99 20.705 45.99 19.5675 45.275 18.885L41.115 14.725C40.954 14.5548 40.76 14.4193 40.5449 14.3267C40.3297 14.2341 40.098 14.1863 39.8637 14.1863C39.6295 14.1863 39.3977 14.2341 39.1826 14.3267C38.9675 14.4193 38.7735 14.5548 38.6125 14.725L35.3625 17.975L42.025 24.6375L45.275 21.3875ZM13.75 39.555V46.25H20.445L40.14 26.555L33.445 19.86L13.75 39.555Z" fill="url(#paint0_linear_1624_146)"/>
<defs>
<linearGradient id="paint0_linear_1624_146" x1="30" y1="0.75" x2="30" y2="59.25" gradientUnits="userSpaceOnUse">
<stop stop-color="#11556B"/>
<stop offset="1" stop-color="#006D91"/>
</linearGradient>
</defs>
</svg>
