<svg width="47" height="47" viewBox="0 0 47 47" fill="none" xmlns="http://www.w3.org/2000/svg">
<rect width="47" height="47" rx="10" fill="white"/>
<path d="M17.83 10H29.17C33.49 10 37 13.51 37 17.83V29.17C37 31.2466 36.1751 33.2382 34.7066 34.7066C33.2382 36.1751 31.2466 37 29.17 37H17.83C13.51 37 10 33.49 10 29.17V17.83C10 15.7534 10.8249 13.7618 12.2934 12.2934C13.7618 10.8249 15.7534 10 17.83 10ZM17.56 12.7C16.271 12.7 15.0349 13.212 14.1235 14.1235C13.212 15.0349 12.7 16.271 12.7 17.56V29.44C12.7 32.1265 14.8735 34.3 17.56 34.3H29.44C30.729 34.3 31.9651 33.788 32.8765 32.8765C33.788 31.9651 34.3 30.729 34.3 29.44V17.56C34.3 14.8735 32.1265 12.7 29.44 12.7H17.56ZM30.5875 14.725C31.0351 14.725 31.4643 14.9028 31.7807 15.2193C32.0972 15.5357 32.275 15.9649 32.275 16.4125C32.275 16.8601 32.0972 17.2893 31.7807 17.6057C31.4643 17.9222 31.0351 18.1 30.5875 18.1C30.1399 18.1 29.7107 17.9222 29.3943 17.6057C29.0778 17.2893 28.9 16.8601 28.9 16.4125C28.9 15.9649 29.0778 15.5357 29.3943 15.2193C29.7107 14.9028 30.1399 14.725 30.5875 14.725ZM23.5 16.75C25.2902 16.75 27.0071 17.4612 28.273 18.727C29.5388 19.9929 30.25 21.7098 30.25 23.5C30.25 25.2902 29.5388 27.0071 28.273 28.273C27.0071 29.5388 25.2902 30.25 23.5 30.25C21.7098 30.25 19.9929 29.5388 18.727 28.273C17.4612 27.0071 16.75 25.2902 16.75 23.5C16.75 21.7098 17.4612 19.9929 18.727 18.727C19.9929 17.4612 21.7098 16.75 23.5 16.75ZM23.5 19.45C22.4259 19.45 21.3957 19.8767 20.6362 20.6362C19.8767 21.3957 19.45 22.4259 19.45 23.5C19.45 24.5741 19.8767 25.6043 20.6362 26.3638C21.3957 27.1233 22.4259 27.55 23.5 27.55C24.5741 27.55 25.6043 27.1233 26.3638 26.3638C27.1233 25.6043 27.55 24.5741 27.55 23.5C27.55 22.4259 27.1233 21.3957 26.3638 20.6362C25.6043 19.8767 24.5741 19.45 23.5 19.45Z" fill="#1D1D1D"/>
</svg>
