<svg width="40" height="40" viewBox="0 0 40 40" fill="none" xmlns="http://www.w3.org/2000/svg">
<path d="M19.9998 15C18.6738 15 17.402 15.5268 16.4643 16.4645C15.5266 17.4021 14.9998 18.6739 14.9998 20C14.9998 21.3261 15.5266 22.5979 16.4643 23.5355C17.402 24.4732 18.6738 25 19.9998 25C21.3259 25 22.5977 24.4732 23.5354 23.5355C24.4731 22.5979 24.9998 21.3261 24.9998 20C24.9998 18.6739 24.4731 17.4021 23.5354 16.4645C22.5977 15.5268 21.3259 15 19.9998 15ZM19.9998 28.3333C17.7897 28.3333 15.6701 27.4554 14.1073 25.8926C12.5445 24.3298 11.6665 22.2101 11.6665 20C11.6665 17.7899 12.5445 15.6702 14.1073 14.1074C15.6701 12.5446 17.7897 11.6667 19.9998 11.6667C22.21 11.6667 24.3296 12.5446 25.8924 14.1074C27.4552 15.6702 28.3332 17.7899 28.3332 20C28.3332 22.2101 27.4552 24.3298 25.8924 25.8926C24.3296 27.4554 22.21 28.3333 19.9998 28.3333ZM19.9998 7.5C11.6665 7.5 4.54984 12.6833 1.6665 20C4.54984 27.3167 11.6665 32.5 19.9998 32.5C28.3332 32.5 35.4498 27.3167 38.3332 20C35.4498 12.6833 28.3332 7.5 19.9998 7.5Z" fill="#B2B2B2"/>
</svg>
