<svg width="18" height="20" viewBox="0 0 18 20" fill="none" xmlns="http://www.w3.org/2000/svg">
<path d="M9 0C7.54131 0 6.14236 0.579463 5.11091 1.61091C4.07946 2.64236 3.5 4.04131 3.5 5.5C3.5 6.95869 4.07946 8.35764 5.11091 9.38909C6.14236 10.4205 7.54131 11 9 11C10.4587 11 11.8576 10.4205 12.8891 9.38909C13.9205 8.35764 14.5 6.95869 14.5 5.5C14.5 4.04131 13.9205 2.64236 12.8891 1.61091C11.8576 0.579463 10.4587 0 9 0ZM5 12C3.67392 12 2.40215 12.5268 1.46447 13.4645C0.526784 14.4021 0 15.6739 0 17V20H18V17C18 15.6739 17.4732 14.4021 16.5355 13.4645C15.5979 12.5268 14.3261 12 13 12H11.618L9 17.236L6.382 12H5Z" fill="#1D1D1D"/>
</svg>
