<svg width="47" height="47" viewBox="0 0 47 47" fill="none" xmlns="http://www.w3.org/2000/svg">
<rect width="47" height="47" rx="10" fill="white"/>
<path d="M29.6607 14.9167C28.7454 13.8327 28.2409 12.4408 28.2411 11H24.1027V28.2222C24.0714 29.1544 23.6922 30.0376 23.0451 30.6854C22.3979 31.3332 21.5334 31.695 20.6339 31.6944C18.7321 31.6944 17.1518 30.0833 17.1518 28.0833C17.1518 25.6944 19.375 23.9028 21.6652 24.6389V20.25C17.0446 19.6111 13 23.3333 13 28.0833C13 32.7083 16.6964 36 20.6205 36C24.8259 36 28.2411 32.4583 28.2411 28.0833V19.3472C29.9192 20.597 31.934 21.2676 34 21.2639V16.9722C34 16.9722 31.4821 17.0972 29.6607 14.9167Z" fill="#1D1D1D"/>
</svg>
