<svg width="19" height="20" viewBox="0 0 19 20" fill="none" xmlns="http://www.w3.org/2000/svg">
<path d="M9.49967 17.9168C13.872 17.9168 17.4163 14.3725 17.4163 10.0002C17.4163 5.62779 13.872 2.0835 9.49967 2.0835C5.1273 2.0835 1.58301 5.62779 1.58301 10.0002C1.58301 14.3725 5.1273 17.9168 9.49967 17.9168Z" stroke="white" stroke-width="1.5" stroke-linejoin="round"/>
<path d="M7.873 11.578C8.449 11.098 8.908 10.699 9.25 10.381C9.592 10.057 9.877 9.721 10.105 9.373C10.333 9.025 10.447 8.683 10.447 8.347C10.447 8.041 10.375 7.801 10.231 7.627C10.087 7.453 9.865 7.366 9.565 7.366C9.265 7.366 9.034 7.468 8.872 7.672C8.71 7.87 8.626 8.143 8.62 8.491H7.396C7.42 7.771 7.633 7.225 8.035 6.853C8.443 6.481 8.959 6.295 9.583 6.295C10.267 6.295 10.792 6.478 11.158 6.844C11.524 7.204 11.707 7.681 11.707 8.275C11.707 8.743 11.581 9.19 11.329 9.616C11.077 10.042 10.789 10.414 10.465 10.732C10.141 11.044 9.718 11.422 9.196 11.866H11.851V12.91H7.405V11.974L7.873 11.578Z" fill="white"/>
</svg>
