<svg width="19" height="20" viewBox="0 0 19 20" fill="none" xmlns="http://www.w3.org/2000/svg">
<path d="M9.49967 17.9168C13.872 17.9168 17.4163 14.3725 17.4163 10.0002C17.4163 5.62779 13.872 2.0835 9.49967 2.0835C5.1273 2.0835 1.58301 5.62779 1.58301 10.0002C1.58301 14.3725 5.1273 17.9168 9.49967 17.9168Z" stroke="white" stroke-width="1.5" stroke-linejoin="round"/>
<path d="M7.495 8.167C7.525 7.567 7.735 7.105 8.125 6.781C8.521 6.451 9.04 6.286 9.682 6.286C10.12 6.286 10.495 6.364 10.807 6.52C11.119 6.67 11.353 6.877 11.509 7.141C11.671 7.399 11.752 7.693 11.752 8.023C11.752 8.401 11.653 8.722 11.455 8.986C11.263 9.244 11.032 9.418 10.762 9.508V9.544C11.11 9.652 11.38 9.844 11.572 10.12C11.77 10.396 11.869 10.75 11.869 11.182C11.869 11.542 11.785 11.863 11.617 12.145C11.455 12.427 11.212 12.649 10.888 12.811C10.57 12.967 10.186 13.045 9.736 13.045C9.058 13.045 8.506 12.874 8.08 12.532C7.654 12.19 7.429 11.686 7.405 11.02H8.629C8.641 11.314 8.74 11.551 8.926 11.731C9.118 11.905 9.379 11.992 9.709 11.992C10.015 11.992 10.249 11.908 10.411 11.74C10.579 11.566 10.663 11.344 10.663 11.074C10.663 10.714 10.549 10.456 10.321 10.3C10.093 10.144 9.739 10.066 9.259 10.066H8.998V9.031H9.259C10.111 9.031 10.537 8.746 10.537 8.176C10.537 7.918 10.459 7.717 10.303 7.573C10.153 7.429 9.934 7.357 9.646 7.357C9.364 7.357 9.145 7.435 8.989 7.591C8.839 7.741 8.752 7.933 8.728 8.167H7.495Z" fill="white"/>
</svg>
