<svg width="19" height="20" viewBox="0 0 19 20" fill="none" xmlns="http://www.w3.org/2000/svg">
<path d="M9.49967 17.9167C13.872 17.9167 17.4163 14.3724 17.4163 9.99999C17.4163 5.62762 13.872 2.08333 9.49967 2.08333C5.1273 2.08333 1.58301 5.62762 1.58301 9.99999C1.58301 14.3724 5.1273 17.9167 9.49967 17.9167Z" stroke="url(#paint0_linear_1983_685)" stroke-width="1.5" stroke-linejoin="round"/>
<path d="M7.495 8.16695C7.525 7.56695 7.735 7.10495 8.125 6.78095C8.521 6.45095 9.04 6.28595 9.682 6.28595C10.12 6.28595 10.495 6.36395 10.807 6.51995C11.119 6.66995 11.353 6.87695 11.509 7.14095C11.671 7.39895 11.752 7.69295 11.752 8.02295C11.752 8.40095 11.653 8.72195 11.455 8.98595C11.263 9.24395 11.032 9.41795 10.762 9.50795V9.54395C11.11 9.65195 11.38 9.84395 11.572 10.12C11.77 10.396 11.869 10.75 11.869 11.182C11.869 11.542 11.785 11.863 11.617 12.145C11.455 12.427 11.212 12.649 10.888 12.811C10.57 12.967 10.186 13.045 9.736 13.045C9.058 13.045 8.506 12.874 8.08 12.532C7.654 12.19 7.429 11.686 7.405 11.02H8.629C8.641 11.314 8.74 11.551 8.926 11.731C9.118 11.905 9.379 11.992 9.709 11.992C10.015 11.992 10.249 11.908 10.411 11.74C10.579 11.566 10.663 11.344 10.663 11.074C10.663 10.714 10.549 10.456 10.321 10.3C10.093 10.144 9.739 10.066 9.259 10.066H8.998V9.03095H9.259C10.111 9.03095 10.537 8.74595 10.537 8.17595C10.537 7.91795 10.459 7.71695 10.303 7.57295C10.153 7.42895 9.934 7.35695 9.646 7.35695C9.364 7.35695 9.145 7.43495 8.989 7.59095C8.839 7.74095 8.752 7.93295 8.728 8.16695H7.495Z" fill="url(#paint1_linear_1983_685)"/>
<defs>
<linearGradient id="paint0_linear_1983_685" x1="9.49967" y1="2.08333" x2="9.49967" y2="17.9167" gradientUnits="userSpaceOnUse">
<stop stop-color="#11556B"/>
<stop offset="1" stop-color="#006D91"/>
</linearGradient>
<linearGradient id="paint1_linear_1983_685" x1="10" y1="2.99995" x2="10" y2="17" gradientUnits="userSpaceOnUse">
<stop stop-color="#11556B"/>
<stop offset="1" stop-color="#006D91"/>
</linearGradient>
</defs>
</svg>
