<svg width="19" height="20" viewBox="0 0 19 20" fill="none" xmlns="http://www.w3.org/2000/svg">
<path d="M9.49967 17.9168C13.872 17.9168 17.4163 14.3725 17.4163 10.0002C17.4163 5.62779 13.872 2.0835 9.49967 2.0835C5.1273 2.0835 1.58301 5.62779 1.58301 10.0002C1.58301 14.3725 5.1273 17.9168 9.49967 17.9168Z" stroke="white" stroke-width="1.5" stroke-linejoin="round"/>
<path d="M11.22 7.6115H8.30401V9.1505C8.43001 8.9945 8.61001 8.8685 8.84401 8.7725C9.07801 8.6705 9.32701 8.6195 9.59101 8.6195C10.071 8.6195 10.464 8.7245 10.77 8.9345C11.076 9.1445 11.298 9.4145 11.436 9.7445C11.574 10.0685 11.643 10.4165 11.643 10.7885C11.643 11.4785 11.445 12.0335 11.049 12.4535C10.659 12.8735 10.101 13.0835 9.37501 13.0835C8.69101 13.0835 8.14501 12.9125 7.73701 12.5705C7.32901 12.2285 7.09801 11.7815 7.04401 11.2295H8.26801C8.32201 11.4695 8.44201 11.6615 8.62801 11.8055C8.82001 11.9495 9.06301 12.0215 9.35701 12.0215C9.71101 12.0215 9.97801 11.9105 10.158 11.6885C10.338 11.4665 10.428 11.1725 10.428 10.8065C10.428 10.4345 10.335 10.1525 10.149 9.9605C9.96901 9.7625 9.70201 9.6635 9.34801 9.6635C9.09601 9.6635 8.88601 9.7265 8.71801 9.8525C8.55001 9.9785 8.43001 10.1465 8.35801 10.3565H7.15201V6.5045H11.22V7.6115Z" fill="white"/>
</svg>
