<svg width="19" height="20" viewBox="0 0 19 20" fill="none" xmlns="http://www.w3.org/2000/svg">
<path d="M9.49967 17.9166C13.872 17.9166 17.4163 14.3723 17.4163 9.99992C17.4163 5.62754 13.872 2.08325 9.49967 2.08325C5.1273 2.08325 1.58301 5.62754 1.58301 9.99992C1.58301 14.3723 5.1273 17.9166 9.49967 17.9166Z" stroke="url(#paint0_linear_1983_903)" stroke-width="1.5" stroke-linejoin="round"/>
<path d="M11.22 7.61125H8.30401V9.15025C8.43001 8.99425 8.61001 8.86825 8.84401 8.77225C9.07801 8.67025 9.32701 8.61925 9.59101 8.61925C10.071 8.61925 10.464 8.72425 10.77 8.93425C11.076 9.14425 11.298 9.41425 11.436 9.74425C11.574 10.0683 11.643 10.4163 11.643 10.7883C11.643 11.4783 11.445 12.0333 11.049 12.4533C10.659 12.8733 10.101 13.0833 9.37501 13.0833C8.69101 13.0833 8.14501 12.9123 7.73701 12.5703C7.32901 12.2283 7.09801 11.7813 7.04401 11.2293H8.26801C8.32201 11.4693 8.44201 11.6613 8.62801 11.8053C8.82001 11.9493 9.06301 12.0213 9.35701 12.0213C9.71101 12.0213 9.97801 11.9103 10.158 11.6883C10.338 11.4663 10.428 11.1723 10.428 10.8063C10.428 10.4343 10.335 10.1523 10.149 9.96025C9.96901 9.76225 9.70201 9.66325 9.34801 9.66325C9.09601 9.66325 8.88601 9.72625 8.71801 9.85225C8.55001 9.97825 8.43001 10.1463 8.35801 10.3563H7.15201V6.50425H11.22V7.61125Z" fill="url(#paint1_linear_1983_903)"/>
<defs>
<linearGradient id="paint0_linear_1983_903" x1="9.49967" y1="2.08325" x2="9.49967" y2="17.9166" gradientUnits="userSpaceOnUse">
<stop stop-color="#11556B"/>
<stop offset="1" stop-color="#006D91"/>
</linearGradient>
<linearGradient id="paint1_linear_1983_903" x1="9.89551" y1="3.08325" x2="9.89551" y2="18.9166" gradientUnits="userSpaceOnUse">
<stop stop-color="#11556B"/>
<stop offset="1" stop-color="#006D91"/>
</linearGradient>
</defs>
</svg>
