<svg width="19" height="19" viewBox="0 0 19 19" fill="none" xmlns="http://www.w3.org/2000/svg">
<g clip-path="url(#clip0_1983_964)">
<path d="M9.49967 17.4168C13.872 17.4168 17.4163 13.8725 17.4163 9.50016C17.4163 5.12779 13.872 1.5835 9.49967 1.5835C5.1273 1.5835 1.58301 5.12779 1.58301 9.50016C1.58301 13.8725 5.1273 17.4168 9.49967 17.4168Z" stroke="url(#paint0_linear_1983_964)" stroke-width="1.5" stroke-linejoin="round"/>
<path d="M10.212 7.6605C10.152 7.4085 10.047 7.2195 9.89701 7.0935C9.75301 6.9675 9.54301 6.9045 9.26701 6.9045C8.85301 6.9045 8.54701 7.0725 8.34901 7.4085C8.15701 7.7385 8.05801 8.2785 8.05201 9.0285C8.19601 8.7885 8.40601 8.6025 8.68201 8.4705C8.95801 8.3325 9.25801 8.2635 9.58201 8.2635C9.97201 8.2635 10.317 8.3475 10.617 8.5155C10.917 8.6835 11.151 8.9295 11.319 9.2535C11.487 9.5715 11.571 9.9555 11.571 10.4055C11.571 10.8315 11.484 11.2125 11.31 11.5485C11.142 11.8785 10.893 12.1365 10.563 12.3225C10.233 12.5085 9.84001 12.6015 9.38401 12.6015C8.76001 12.6015 8.26801 12.4635 7.90801 12.1875C7.55401 11.9115 7.30501 11.5275 7.16101 11.0355C7.02301 10.5375 6.95401 9.9255 6.95401 9.1995C6.95401 8.1015 7.14301 7.2735 7.52101 6.7155C7.89901 6.1515 8.49601 5.8695 9.31201 5.8695C9.94201 5.8695 10.431 6.0405 10.779 6.3825C11.127 6.7245 11.328 7.1505 11.382 7.6605H10.212ZM9.29401 9.2985C8.97601 9.2985 8.70901 9.3915 8.49301 9.5775C8.27701 9.7635 8.16901 10.0335 8.16901 10.3875C8.16901 10.7415 8.26801 11.0205 8.46601 11.2245C8.67001 11.4285 8.95501 11.5305 9.32101 11.5305C9.64501 11.5305 9.90001 11.4315 10.086 11.2335C10.278 11.0355 10.374 10.7685 10.374 10.4325C10.374 10.0845 10.281 9.8085 10.095 9.6045C9.91501 9.4005 9.64801 9.2985 9.29401 9.2985Z" fill="url(#paint1_linear_1983_964)"/>
</g>
<defs>
<linearGradient id="paint0_linear_1983_964" x1="9.49967" y1="1.5835" x2="9.49967" y2="17.4168" gradientUnits="userSpaceOnUse">
<stop stop-color="#11556B"/>
<stop offset="1" stop-color="#006D91"/>
</linearGradient>
<linearGradient id="paint1_linear_1983_964" x1="9.89551" y1="2.5835" x2="9.89551" y2="18.4168" gradientUnits="userSpaceOnUse">
<stop stop-color="#11556B"/>
<stop offset="1" stop-color="#006D91"/>
</linearGradient>
<clipPath id="clip0_1983_964">
<rect width="19" height="19" fill="white"/>
</clipPath>
</defs>
</svg>
