<svg width="19" height="19" viewBox="0 0 19 19" fill="none" xmlns="http://www.w3.org/2000/svg">
<path d="M19 3.56254V13.0625H17.8125V7.78373L11.875 10.7618V11.875H7.125V10.7618L1.1875 7.78373V14.25H11.875V15.4375H0V3.56254H5.9375V2.37504C5.9375 2.20805 5.96842 2.05343 6.03027 1.91117C6.09212 1.76892 6.17562 1.64522 6.28076 1.54008C6.3859 1.43494 6.5127 1.34835 6.66113 1.28031C6.80957 1.21228 6.96419 1.18136 7.125 1.18754H11.875C12.042 1.18754 12.1966 1.21847 12.3389 1.28031C12.4811 1.34216 12.6048 1.42566 12.71 1.5308C12.8151 1.63595 12.9017 1.76274 12.9697 1.91117C13.0378 2.05961 13.0687 2.21423 13.0625 2.37504V3.56254H19ZM7.125 3.56254H11.875V2.37504H7.125V3.56254ZM10.6875 9.50004H8.3125V10.6875H10.6875V9.50004ZM17.8125 6.46635V4.75004H1.1875V6.46635L7.125 9.42582V8.31254H11.875V9.42582L17.8125 6.46635ZM16.625 14.25H19V15.4375H16.625V17.8125H15.4375V15.4375H13.0625V14.25H15.4375V11.875H16.625V14.25Z" fill="#11556B"/>
</svg>
