<svg width="24" height="24" viewBox="0 0 24 24" fill="none" xmlns="http://www.w3.org/2000/svg">
<rect width="24" height="24" rx="12" fill="#FF9A00"/>
<path d="M14.7654 11.6317H15.1761C15.4665 11.6325 15.7542 11.5768 16.0225 11.4678C16.2907 11.3588 16.5343 11.1988 16.7391 10.9969L19 8.7625L18.3862 8.15583L16.0775 10.4195L15.5977 9.94902L17.9064 7.68512L17.2711 7.0809L14.9709 9.33585L14.4925 8.86542L16.8012 6.60152L16.1824 6L13.9035 8.21677C13.6976 8.41757 13.5344 8.65642 13.4232 8.9195C13.3121 9.18258 13.2553 9.46466 13.2561 9.74942V10.1519L12.0647 11.32L6.62487 6C5.40172 7.48606 6.12407 10.2171 7.50108 11.5675L9.86285 13.8831C10.5962 14.6022 10.7418 14.6664 11.5738 14.3381C11.7531 14.2675 11.8183 14.2753 11.9854 14.4389L12.3445 14.7674C12.4254 14.8487 12.4274 14.8725 12.4274 15.028V15.178C12.4274 15.7489 12.7997 16.0772 13.045 16.322L15.9062 19L17.8951 17.05L13.574 12.7998L14.7654 11.6317Z" fill="white"/>
<path d="M11.6617 15.1946C10.8629 15.359 10.373 15.5105 9.43634 14.5694C9.42134 14.5544 9.4058 14.5398 9.3908 14.5248L8.86848 14L6 16.8471L8.14286 19L12 15.1249L11.6617 15.1946Z" fill="white"/>
</svg>
