<svg width="24" height="24" viewBox="0 0 24 24" fill="none" xmlns="http://www.w3.org/2000/svg">
<rect width="24" height="24" rx="12" fill="#11556B"/>
<path d="M7.97059 18V13.125H7V9.55C7 9.1925 7.12682 8.88657 7.38047 8.6322C7.63412 8.37784 7.93867 8.25044 8.29412 8.25H10.2353C10.5912 8.25 10.8959 8.3774 11.1496 8.6322C11.4032 8.887 11.5298 9.19294 11.5294 9.55V13.125H10.5588V18H7.97059ZM9.26471 7.6C8.90882 7.6 8.60427 7.47282 8.35106 7.21845C8.09784 6.96409 7.97102 6.65794 7.97059 6.3C7.97016 5.94207 8.09698 5.63614 8.35106 5.3822C8.60514 5.12827 8.90969 5.00087 9.26471 5C9.61973 4.99914 9.92449 5.12654 10.179 5.3822C10.4335 5.63787 10.5601 5.9438 10.5588 6.3C10.5575 6.6562 10.4309 6.96235 10.179 7.21845C9.92708 7.47455 9.62231 7.60174 9.26471 7.6ZM14.1176 18V14.1H12.1765L13.8265 9.1275C13.9127 8.84584 14.0719 8.62917 14.304 8.4775C14.5361 8.32584 14.7975 8.25 15.0882 8.25C15.379 8.25 15.6406 8.32584 15.8731 8.4775C16.1056 8.62917 16.2646 8.84584 16.35 9.1275L18 14.1H16.0588V18H14.1176ZM15.0882 7.6C14.7324 7.6 14.4278 7.47282 14.1746 7.21845C13.9214 6.96409 13.7945 6.65794 13.7941 6.3C13.7937 5.94207 13.9205 5.63614 14.1746 5.3822C14.4287 5.12827 14.7332 5.00087 15.0882 5C15.4433 4.99914 15.748 5.12654 16.0025 5.3822C16.257 5.63787 16.3836 5.9438 16.3824 6.3C16.3811 6.6562 16.2545 6.96235 16.0025 7.21845C15.7506 7.47455 15.4458 7.60174 15.0882 7.6Z" fill="white"/>
</svg>
