<svg width="19" height="19" viewBox="0 0 19 19" fill="none" xmlns="http://www.w3.org/2000/svg">
<path d="M9.5 0C12.0196 0 14.4359 1.00089 16.2175 2.78249C17.9991 4.56408 19 6.98044 19 9.5C19 12.0196 17.9991 14.4359 16.2175 16.2175C14.4359 17.9991 12.0196 19 9.5 19C6.98044 19 4.56408 17.9991 2.78249 16.2175C1.00089 14.4359 0 12.0196 0 9.5C0 6.98044 1.00089 4.56408 2.78249 2.78249C4.56408 1.00089 6.98044 0 9.5 0ZM9.5 1.1875C7.29539 1.1875 5.18107 2.06328 3.62217 3.62217C2.06328 5.18107 1.1875 7.29539 1.1875 9.5C1.1875 11.7046 2.06328 13.8189 3.62217 15.3778C5.18107 16.9367 7.29539 17.8125 9.5 17.8125C11.7046 17.8125 13.8189 16.9367 15.3778 15.3778C16.9367 13.8189 17.8125 11.7046 17.8125 9.5C17.8125 7.29539 16.9367 5.18107 15.3778 3.62217C13.8189 2.06328 11.7046 1.1875 9.5 1.1875ZM14.2191 6.34363C14.263 6.47533 14.2594 6.61826 14.2088 6.74756C14.1583 6.87686 14.064 6.98436 13.9424 7.05138L13.8439 7.09412L10.6875 8.14625V11.1851L11.8441 14.6561C11.888 14.7878 11.8844 14.9308 11.8338 15.0601C11.7833 15.1894 11.689 15.2969 11.5674 15.3639L11.4689 15.4066C11.3372 15.4505 11.1942 15.4469 11.0649 15.3963C10.9356 15.3458 10.8281 15.2515 10.7611 15.1299L10.7184 15.0314L9.53088 11.4689L9.5 11.2812L9.46912 11.4689L8.28162 15.0314C8.23548 15.1728 8.1379 15.2918 8.0082 15.3648C7.8785 15.4377 7.72614 15.4593 7.58129 15.4252C7.43643 15.3912 7.30965 15.304 7.22602 15.1809C7.1424 15.0578 7.10804 14.9078 7.12975 14.7606L7.15588 14.6561L8.3125 11.1815V8.14625L5.15613 7.09412C5.01466 7.04798 4.89568 6.9504 4.82274 6.8207C4.74979 6.691 4.72821 6.53864 4.76226 6.39379C4.79631 6.24893 4.88351 6.12215 5.00659 6.03852C5.12967 5.9549 5.27967 5.92054 5.42688 5.94225L5.53137 5.96838L9.00481 7.125H9.994L13.4686 5.96838C13.6179 5.91873 13.7808 5.93037 13.9215 6.00072C14.0622 6.07108 14.1693 6.19441 14.2191 6.34363ZM9.5 3.5625C9.81494 3.5625 10.117 3.68761 10.3397 3.91031C10.5624 4.13301 10.6875 4.43506 10.6875 4.75C10.6875 5.06494 10.5624 5.36699 10.3397 5.58969C10.117 5.81239 9.81494 5.9375 9.5 5.9375C9.18506 5.9375 8.88301 5.81239 8.66031 5.58969C8.43761 5.36699 8.3125 5.06494 8.3125 4.75C8.3125 4.43506 8.43761 4.13301 8.66031 3.91031C8.88301 3.68761 9.18506 3.5625 9.5 3.5625Z" fill="#11556B"/>
</svg>
