<svg width="19" height="19" viewBox="0 0 19 19" fill="none" xmlns="http://www.w3.org/2000/svg">
<path fill-rule="evenodd" clip-rule="evenodd" d="M16.6253 3.95833H5.54199V2.375H18.2087V13.4583H16.6253V3.95833ZM13.4587 7.125H2.37533V15.0417H13.4587V7.125ZM0.791992 5.54167V16.625H15.042V5.54167H0.791992ZM11.8753 9.89583C11.8753 10.2108 11.7502 10.5128 11.5275 10.7355C11.3048 10.9582 11.0028 11.0833 10.6878 11.0833C10.3729 11.0833 10.0708 10.9582 9.84814 10.7355C9.62544 10.5128 9.50033 10.2108 9.50033 9.89583C9.50033 9.58089 9.62544 9.27884 9.84814 9.05614C10.0708 8.83344 10.3729 8.70833 10.6878 8.70833C11.0028 8.70833 11.3048 8.83344 11.5275 9.05614C11.7502 9.27884 11.8753 9.58089 11.8753 9.89583Z" fill="#11556B"/>
<path fill-rule="evenodd" clip-rule="evenodd" d="M5.85833 11.7388L2.5555 15.0417H2.375V12.9833L5.85833 9.5L11.4 15.0417H9.15958L5.85833 11.7388Z" fill="#11556B"/>
</svg>
