<svg width="750" height="500" viewBox="0 0 750 500" fill="none" xmlns="http://www.w3.org/2000/svg">
<path d="M470 348.505H280C274.477 348.505 270 344.028 270 338.505V61.505C270 55.982 274.477 51.505 280 51.505H470C475.523 51.505 480 55.982 480 61.505V338.505C480 344.028 475.523 348.505 470 348.505Z" fill="#F5F1EB"/>
<path d="M456.914 336.968H293.088C286.488 336.968 281.088 331.568 281.088 324.968V87.577C281.088 80.977 286.488 75.577 293.088 75.577H456.914C463.514 75.577 468.914 80.977 468.914 87.577V324.968C468.914 331.568 463.514 336.968 456.914 336.968Z" fill="white"/>
<path d="M458.759 134.221H391.239C389.039 134.221 387.238 132.421 387.238 130.22C387.238 128.02 389.038 126.219 391.239 126.219H458.76C460.96 126.219 462.761 128.019 462.761 130.22C462.76 132.421 460.96 134.221 458.759 134.221Z" fill="#E3DED5"/>
<path d="M427.673 114.221H390.275C388.606 114.221 387.24 112.855 387.24 111.186V109.255C387.24 107.586 388.606 106.22 390.275 106.22H427.673C429.342 106.22 430.708 107.586 430.708 109.255V111.186C430.708 112.855 429.342 114.221 427.673 114.221Z" fill="#E3DED5"/>
<path d="M458.759 154.221H391.239C389.039 154.221 387.238 152.421 387.238 150.22C387.238 148.02 389.038 146.219 391.239 146.219H458.76C460.96 146.219 462.761 148.019 462.761 150.22C462.76 152.421 460.96 154.221 458.759 154.221Z" fill="#E3DED5"/>
<path d="M458.759 174.221H391.239C389.039 174.221 387.238 172.421 387.238 170.22C387.238 168.02 389.038 166.219 391.239 166.219H458.76C460.96 166.219 462.761 168.019 462.761 170.22C462.76 172.421 460.96 174.221 458.759 174.221Z" fill="#E3DED5"/>
<path d="M458.76 194.221H294.23C292.03 194.221 290.229 192.421 290.229 190.22C290.229 188.02 292.029 186.219 294.23 186.219H458.76C460.96 186.219 462.76 188.019 462.76 190.22C462.76 192.421 460.961 194.221 458.76 194.221Z" fill="#E3DED5"/>
<path d="M458.759 244.221H391.239C389.039 244.221 387.238 242.421 387.238 240.22C387.238 238.02 389.038 236.219 391.239 236.219H458.76C460.96 236.219 462.761 238.019 462.761 240.22C462.76 242.421 460.96 244.221 458.759 244.221Z" fill="#E3DED5"/>
<path d="M458.759 224.221H391.239C389.039 224.221 387.238 222.421 387.238 220.22C387.238 218.02 389.038 216.219 391.239 216.219H458.76C460.96 216.219 462.761 218.019 462.761 220.22C462.76 222.421 460.96 224.221 458.759 224.221Z" fill="#E3DED5"/>
<path d="M458.759 264.221H391.239C389.039 264.221 387.238 262.421 387.238 260.22C387.238 258.02 389.038 256.219 391.239 256.219H458.76C460.96 256.219 462.761 258.019 462.761 260.22C462.76 262.421 460.96 264.221 458.759 264.221Z" fill="#E3DED5"/>
<path d="M458.759 284.221H391.239C389.039 284.221 387.238 282.421 387.238 280.22C387.238 278.02 389.038 276.219 391.239 276.219H458.76C460.96 276.219 462.761 278.019 462.761 280.22C462.76 282.421 460.96 284.221 458.759 284.221Z" fill="#E3DED5"/>
<path d="M458.76 304.221H294.23C292.03 304.221 290.229 302.421 290.229 300.22C290.229 298.02 292.029 296.219 294.23 296.219H458.76C460.96 296.219 462.76 298.019 462.76 300.22C462.76 302.421 460.961 304.221 458.76 304.221Z" fill="#E3DED5"/>
<path d="M458.76 324.221H294.23C292.03 324.221 290.229 322.421 290.229 320.22C290.229 318.02 292.029 316.219 294.23 316.219H458.76C460.96 316.219 462.76 318.019 462.76 320.22C462.76 322.421 460.961 324.221 458.76 324.221Z" fill="#E3DED5"/>
<path d="M464.36 130.22C464.36 131.84 463.7 133.3 462.64 134.37C461.57 135.43 460.1 136.09 458.49 136.09H410.2C407.64 132.51 405.54 128.56 404 124.35H458.49C461.72 124.35 464.36 126.99 464.36 130.22Z" fill="#E3DED5"/>
<path d="M431.033 110.221C431.033 111.841 430.373 113.301 429.313 114.371C428.243 115.431 426.773 116.091 425.163 116.091H399.833C399.303 113.211 399.033 110.231 399.033 107.201C399.033 106.281 399.053 105.371 399.103 104.471C399.103 104.431 399.103 104.391 399.113 104.351H425.163C428.393 104.351 431.033 106.991 431.033 110.221Z" fill="#E3DED5"/>
<path d="M464.36 151.15C464.36 152.76 463.7 154.23 462.64 155.3C462.5 155.44 462.35 155.57 462.2 155.7H462.19C461.18 156.52 459.89 157.02 458.49 157.02H450.79C438.56 157.02 427.34 152.6 418.67 145.28H458.49C461.72 145.28 464.36 147.92 464.36 151.15Z" fill="#E3DED5"/>
<path d="M412.984 39.516H386.495C386.495 33.168 381.349 28.021 375 28.021C368.651 28.021 363.505 33.167 363.505 39.516H337.016C331.493 39.516 327.016 43.993 327.016 49.516V57.494C327.016 63.017 331.493 67.494 337.016 67.494H412.983C418.506 67.494 422.983 63.017 422.983 57.494V49.516C422.984 43.994 418.507 39.516 412.984 39.516ZM375 43.43C372.839 43.43 371.087 41.678 371.087 39.517C371.087 37.356 372.839 35.604 375 35.604C377.161 35.604 378.913 37.356 378.913 39.517C378.913 41.678 377.161 43.43 375 43.43Z" fill="#E0DDDC"/>
<path d="M458.491 92.669H435.404V117.973H458.491V92.669Z" stroke="#211F20" stroke-width="0.5" stroke-miterlimit="10" stroke-linecap="round" stroke-linejoin="round"/>
<path d="M438.043 103.632C440.665 106.744 443.286 109.857 445.908 112.969C449.222 107.87 452.536 102.771 455.85 97.672" stroke="#FF9A00" stroke-width="3" stroke-miterlimit="10"/>
<path d="M370.111 163.73C362.831 171.43 352.521 176.22 341.091 176.22C328.481 176.22 317.231 170.38 309.911 161.26C309.901 161.02 309.891 160.77 309.891 160.53C310.641 159.78 311.191 158.95 312.151 158.5C317.531 155.96 323.351 154.37 329.261 153.8C336.181 153.14 342.961 154.05 349.911 154.31C357.371 154.59 364.971 158.19 370.061 163.67C370.081 163.69 370.101 163.71 370.111 163.73Z" fill="#39A5C9"/>
<path d="M341.536 165.989C336.301 165.989 331.561 160.369 329.109 153.865C331.484 150.256 333.585 136.815 333.228 130.771L347.462 142.195C347.453 142.357 347.445 142.535 347.445 142.731C347.437 144.161 347.632 146.17 348.135 148.511C348.501 150.162 349.484 152.621 350.208 154.519C350.879 159.73 346.771 165.989 341.536 165.989Z" fill="#FFD8CB"/>
<path d="M333.182 134.89C333.272 133.33 333.302 131.92 333.232 130.77L336.512 133.4C335.632 134.23 334.472 134.78 333.182 134.89Z" fill="#FFD8CB"/>
<path d="M348.132 148.512C342.811 145.847 338.691 140.859 337.133 135.113C340.181 138.058 343.765 140.536 347.442 142.732C347.434 144.161 347.63 146.17 348.132 148.512Z" fill="#211F20"/>
<path d="M335.22 112.466C339.103 110.587 343.496 109.775 347.794 110.143C352.092 110.511 356.279 112.357 359.787 114.869C361.107 121.876 361.634 129.033 361.352 136.158C361.261 138.47 361.027 140.934 359.589 142.746C358.6 143.993 357.121 144.793 355.573 145.161C354.025 145.529 352.405 145.492 350.827 145.286C344.27 144.426 337.181 139.203 333.681 133.592L333.609 127.614C333.705 126.221 333.801 124.829 333.897 123.437L335.22 112.466Z" fill="#FFD8CB"/>
<path d="M338.283 129.304C338.283 132.405 335.769 134.918 332.669 134.918C329.568 134.918 327.055 132.404 327.055 129.304C327.055 126.203 329.569 123.69 332.669 123.69C335.77 123.69 338.283 126.203 338.283 129.304Z" fill="#FFD8CB"/>
<path d="M353.348 125.133C353.413 126.642 353.819 128.136 354.526 129.47C354.882 129.249 355.446 129.295 355.745 129.589C356.044 129.883 356.147 130.343 356.06 130.754C355.974 131.164 355.716 131.525 355.395 131.795C355.073 132.064 354.689 132.249 354.297 132.399" stroke="#231F20" stroke-width="0.4256" stroke-miterlimit="10" stroke-linecap="round" stroke-linejoin="round"/>
<path d="M349.054 126.477C349.054 127.16 348.646 127.714 348.143 127.714C347.64 127.714 347.232 127.16 347.232 126.477C347.232 125.793 347.64 125.239 348.143 125.239C348.646 125.24 349.054 125.794 349.054 126.477Z" fill="#231F20"/>
<path d="M357.808 126.51C357.808 127.194 357.4 127.748 356.897 127.748C356.394 127.748 355.986 127.194 355.986 126.51C355.986 125.827 356.394 125.272 356.897 125.272C357.4 125.273 357.808 125.827 357.808 126.51Z" fill="#231F20"/>
<path d="M347.504 122.146C348.379 121.972 349.276 121.972 350.166 121.902C350.453 121.879 350.772 121.833 350.953 121.61C351.092 121.439 351.116 121.206 351.129 120.987C351.147 120.697 351.153 120.391 351.023 120.131C350.854 119.792 350.477 119.593 350.1 119.551C349.723 119.509 349.345 119.601 348.984 119.718C347.857 120.083 346.811 120.694 345.94 121.496C345.591 121.817 345.265 122.176 345.066 122.607C345.003 122.744 344.952 122.892 344.958 123.043C344.961 123.129 345 123.339 345.105 123.364C345.21 123.388 345.319 123.22 345.384 123.158C345.573 122.976 345.785 122.82 346.011 122.689C346.473 122.419 346.985 122.25 347.504 122.146Z" fill="#231F20"/>
<path d="M358.353 122.751C357.478 122.577 356.58 122.577 355.69 122.507C355.403 122.484 355.085 122.438 354.904 122.215C354.765 122.045 354.741 121.811 354.728 121.591C354.71 121.301 354.704 120.996 354.834 120.735C355.003 120.396 355.38 120.197 355.757 120.155C356.134 120.113 356.512 120.205 356.873 120.322C358 120.687 359.046 121.297 359.917 122.099C360.266 122.42 360.592 122.779 360.791 123.21C360.854 123.347 360.905 123.495 360.899 123.646C360.896 123.732 360.857 123.942 360.752 123.967C360.647 123.992 360.538 123.823 360.473 123.761C360.284 123.579 360.071 123.424 359.845 123.292C359.384 123.023 358.872 122.854 358.353 122.751Z" fill="#231F20"/>
<path d="M355.012 155.01C353.402 154.63 351.772 154.4 350.142 154.32H350.132C349.412 152.45 348.492 150.1 348.132 148.51C347.812 147.02 347.611 145.67 347.521 144.51C348.631 144.88 349.741 145.14 350.831 145.28C352.121 145.45 353.431 145.51 354.711 145.32C355.451 148.47 355.512 151.77 355.012 155.01Z" fill="#211F20"/>
<path d="M362.761 118.25C361.811 118.95 360.471 118.62 359.381 118.18C356.281 116.92 353.451 114.97 351.181 112.51C350.311 114.96 348.011 116.83 345.451 117.19C343.831 117.42 341.941 117.18 340.791 118.34C340.161 118.98 339.931 119.9 339.621 120.74C338.981 122.47 337.891 124.02 336.511 125.22C335.511 124.27 334.161 123.69 332.671 123.69C329.571 123.69 327.051 126.2 327.051 129.3C327.051 132.4 329.571 134.92 332.671 134.92C332.841 134.92 333.011 134.91 333.181 134.89C332.771 141.52 331.051 150.85 329.141 153.81C323.271 154.39 317.491 155.98 312.151 158.5C311.931 158.6 311.741 158.72 311.561 158.86C315.061 154.63 317.731 146.84 318.681 142.17C319.781 136.77 319.881 131.22 320.801 125.79C321.611 120.95 323.121 116.14 325.901 112.1C328.691 108.06 332.881 104.84 337.701 103.92C342.371 103.03 347.321 104.56 350.481 108.13C350.781 107.62 351.021 106.96 351.661 106.62C352.371 106.26 353.211 106.26 354.011 106.36C358.471 106.9 362.411 110.41 363.481 114.77C363.781 116 363.771 117.51 362.761 118.25Z" fill="#E96A08"/>
<path d="M353.259 138.505C353.815 138.513 354.43 138.419 354.788 137.993C355.254 137.438 355.015 136.496 354.397 136.119C353.778 135.742 352.933 135.884 352.37 136.339C352.227 135.612 351.801 134.945 351.203 134.508C350.605 134.071 349.84 133.869 349.104 133.953C348.778 133.99 348.448 134.087 348.195 134.295C347.042 135.244 348.876 136.737 349.629 137.278C350.68 138.036 351.959 138.486 353.259 138.505Z" fill="white"/>
<path d="M381.09 136.22C381.09 146.88 376.92 156.56 370.11 163.73C362.83 171.43 352.52 176.22 341.09 176.22C328.48 176.22 317.23 170.38 309.91 161.26C304.39 154.41 301.09 145.7 301.09 136.22C301.09 114.13 319 96.22 341.09 96.22C363.18 96.22 381.09 114.13 381.09 136.22Z" stroke="#211F20" stroke-miterlimit="10" stroke-linecap="round" stroke-linejoin="round"/>
<path d="M337.296 272.188C332.061 272.188 327.32 266.568 324.869 260.064C327.244 256.455 329.345 243.014 328.988 236.97L343.222 248.394C343.213 248.556 343.205 248.734 343.205 248.93C343.196 250.36 343.392 252.369 343.895 254.71C344.261 256.362 345.244 258.82 345.968 260.718C346.639 265.929 342.531 272.188 337.296 272.188Z" fill="#FDDEA9"/>
<path d="M328.941 241.089C329.031 239.529 329.061 238.119 328.991 236.969L332.271 239.599C331.391 240.429 330.231 240.979 328.941 241.089Z" fill="#FDDEA9"/>
<path d="M343.894 254.71C338.573 252.045 334.453 247.057 332.895 241.311C335.943 244.257 339.527 246.734 343.204 248.93C343.195 250.36 343.391 252.369 343.894 254.71Z" fill="#211F20"/>
<path d="M330.98 218.665C334.863 216.786 339.256 215.974 343.554 216.342C347.852 216.71 352.039 218.556 355.547 221.068C356.868 228.075 357.394 235.232 357.112 242.357C357.021 244.669 356.787 247.133 355.349 248.945C354.36 250.192 352.881 250.991 351.333 251.36C349.785 251.728 348.165 251.691 346.587 251.485C340.03 250.625 332.941 245.402 329.441 239.791L329.369 233.813C329.465 232.42 329.561 231.028 329.657 229.635L330.98 218.665Z" fill="#FDDEA9"/>
<path d="M334.042 235.503C334.042 238.604 331.528 241.117 328.428 241.117C325.327 241.117 322.814 238.603 322.814 235.503C322.814 232.402 325.328 229.889 328.428 229.889C331.529 229.889 334.042 232.402 334.042 235.503Z" fill="#FDDEA9"/>
<path d="M349.107 231.332C349.172 232.841 349.578 234.335 350.285 235.669C350.641 235.448 351.205 235.494 351.504 235.788C351.803 236.083 351.906 236.542 351.819 236.953C351.733 237.364 351.475 237.724 351.154 237.994C350.832 238.263 350.448 238.448 350.057 238.598" stroke="#231F20" stroke-width="0.4256" stroke-miterlimit="10" stroke-linecap="round" stroke-linejoin="round"/>
<path d="M344.814 232.676C344.814 233.359 344.406 233.913 343.903 233.913C343.4 233.913 342.992 233.359 342.992 232.676C342.992 231.992 343.4 231.438 343.903 231.438C344.405 231.439 344.814 231.993 344.814 232.676Z" fill="#231F20"/>
<path d="M353.568 232.709C353.568 233.392 353.16 233.947 352.657 233.947C352.154 233.947 351.746 233.393 351.746 232.709C351.746 232.026 352.154 231.471 352.657 231.471C353.16 231.472 353.568 232.026 353.568 232.709Z" fill="#231F20"/>
<path d="M343.265 228.345C344.14 228.171 345.038 228.171 345.928 228.101C346.215 228.078 346.533 228.032 346.714 227.809C346.853 227.638 346.877 227.405 346.89 227.185C346.908 226.895 346.914 226.59 346.784 226.329C346.615 225.99 346.238 225.791 345.861 225.749C345.484 225.707 345.106 225.8 344.745 225.916C343.618 226.281 342.572 226.892 341.701 227.693C341.352 228.014 341.026 228.373 340.827 228.804C340.764 228.941 340.713 229.089 340.719 229.24C340.722 229.326 340.761 229.536 340.866 229.561C340.971 229.585 341.08 229.417 341.145 229.355C341.334 229.173 341.547 229.017 341.773 228.886C342.234 228.618 342.746 228.449 343.265 228.345Z" fill="#231F20"/>
<path d="M354.114 228.949C353.239 228.775 352.341 228.775 351.452 228.705C351.165 228.682 350.847 228.636 350.666 228.413C350.527 228.242 350.503 228.009 350.49 227.789C350.472 227.499 350.466 227.193 350.596 226.933C350.765 226.594 351.142 226.395 351.519 226.353C351.896 226.311 352.274 226.403 352.635 226.52C353.762 226.885 354.808 227.496 355.679 228.297C356.028 228.618 356.354 228.977 356.553 229.408C356.616 229.545 356.667 229.693 356.661 229.844C356.658 229.93 356.619 230.14 356.514 230.165C356.409 230.19 356.3 230.021 356.235 229.959C356.046 229.777 355.833 229.622 355.606 229.49C355.144 229.222 354.633 229.053 354.114 228.949Z" fill="#231F20"/>
<path d="M351.421 222.55C350.141 222.61 336.381 222.34 336.381 221.49C336.121 225.28 334.951 229 333.011 232.26C332.001 230.83 330.321 229.89 328.431 229.89C328.091 229.89 327.771 229.92 327.451 229.98C326.341 226.73 325.791 223.29 325.841 219.87C325.871 218.16 326.131 216.27 327.451 215.18C328.301 214.47 329.521 214.24 330.571 214.58C331.631 214.92 332.481 215.83 332.751 216.9C336.471 213.21 341.631 211 346.861 210.85C347.931 210.82 349.111 210.91 349.871 211.66C350.641 212.41 350.541 214 349.511 214.28C350.411 214.03 351.221 213.55 352.061 213.15C352.901 212.75 353.811 212.41 354.731 212.47C355.661 212.53 356.611 213.07 356.891 213.96C357.081 214.56 356.851 215.26 356.401 215.65C358.041 215.26 359.981 216.22 360.501 217.86C362.091 222.93 354.171 222.44 351.421 222.55Z" fill="#FDB74C"/>
<path d="M341.797 241.098C344.98 242.145 348.164 243.193 351.347 244.24" stroke="#231F20" stroke-width="0.4256" stroke-miterlimit="10" stroke-linecap="round" stroke-linejoin="round"/>
<path d="M369.23 274.64C362.01 281.8 352.07 286.22 341.09 286.22C326.49 286.22 313.72 278.4 306.73 266.71L324.87 260.06L337.29 272.19L345.97 260.72L364.32 266.67L369.23 274.64Z" fill="#211F20"/>
<path d="M381.09 246.22C381.09 257.34 376.56 267.39 369.23 274.64C362.01 281.8 352.07 286.22 341.09 286.22C326.49 286.22 313.72 278.4 306.73 266.71C303.15 260.71 301.09 253.71 301.09 246.22C301.09 224.13 319 206.22 341.09 206.22C363.18 206.22 381.09 224.13 381.09 246.22Z" stroke="#211F20" stroke-miterlimit="10" stroke-linecap="round" stroke-linejoin="round"/>
<path d="M355.12 418.886H340.772C336.432 418.886 332.881 415.335 332.881 410.995C332.881 406.655 336.432 403.104 340.772 403.104H355.12C359.46 403.104 363.011 406.655 363.011 410.995C363.011 415.335 359.46 418.886 355.12 418.886Z" fill="white"/>
<path d="M66.4034 253.756H60.1424C55.8384 253.756 52.3164 250.234 52.3164 245.93C52.3164 241.626 55.8384 238.104 60.1424 238.104H66.4034C70.7074 238.104 74.2294 241.626 74.2294 245.93C74.2294 250.234 70.7074 253.756 66.4034 253.756Z" fill="white"/>
<path d="M500.621 107.2C500.621 130.8 484.221 150.54 462.201 155.7H462.191C458.531 156.57 454.711 157.02 450.791 157.02C438.561 157.02 427.341 152.6 418.671 145.28C415.481 142.59 412.631 139.5 410.201 136.09C407.641 132.51 405.541 128.56 404.001 124.35C403.041 121.74 402.301 119.02 401.791 116.22C401.781 116.18 401.771 116.13 401.771 116.09C401.241 113.21 400.971 110.23 400.971 107.2C400.971 106.28 400.991 105.37 401.041 104.47C401.041 104.43 401.041 104.39 401.051 104.35C402.531 78.16 424.241 57.37 450.791 57.37C478.311 57.37 500.621 79.68 500.621 107.2Z" stroke="#211F20" stroke-width="5" stroke-miterlimit="10" stroke-linecap="round" stroke-linejoin="round"/>
<path d="M450.795 157.024V268.886" stroke="#211F20" stroke-width="5" stroke-miterlimit="10" stroke-linecap="round" stroke-linejoin="round"/>
<path d="M519.472 418.052L517.56 403.103L503.367 403.387L509.025 420.614L515.421 421.168L519.472 418.052Z" fill="#824D4D"/>
<path d="M518.235 408.383H505.008L505.896 411.086L518.235 408.383Z" fill="#231F20"/>
<path d="M512.569 420.333C510.427 420.124 508.549 418.312 508.263 416.179C508.159 415.406 508.244 414.61 508.067 413.851C507.89 413.091 507.34 412.329 506.563 412.264C505.478 412.174 504.805 413.372 504.323 414.348C502.401 418.248 499.05 421.423 495.053 423.134C492.782 424.106 490.345 424.61 487.954 425.234C485.564 425.858 483.163 426.627 481.142 428.048C479.121 429.469 477.506 431.639 477.274 434.099C477.017 436.828 478.543 439.542 480.787 441.118C485 441.151 485.218 441.33 487.954 441.151C490.69 440.972 496.56 441.041 496.56 441.041C499.5 441.151 500.528 440.869 503 441.151C505.5 441.041 507.462 440.634 509.352 441.151C514.5 441.151 518.446 440.635 521.07 437.118C523.09 434.411 523.762 430.886 523.593 427.512C523.424 424.138 522.484 420.857 521.55 417.611C521.247 416.558 520.853 415.437 519.692 415.105C519.08 414.93 518.48 414.979 518.074 415.5C517.181 416.647 517.304 418.181 516.101 419.205C515.145 420.02 513.822 420.455 512.569 420.333Z" fill="#211F20"/>
<path d="M515.366 226.183C494 272.5 479.194 283.404 467.559 315.159C465.582 320.555 468.413 325.496 470.254 330.94C479.161 357.264 489.436 383.125 501.025 408.383H521.1C518.997 393.037 516.001 378.199 513.898 362.853C512.741 354.413 511.557 345.868 508.331 337.984C505.891 332.019 502.299 326.528 497.813 321.9C504.886 311.561 514.21 303.53 523.816 295.49C531.03 289.451 538.857 284.161 545.908 277.932C552.959 271.703 559.323 264.348 562.598 255.529C565.874 246.709 565.659 236.227 560.34 228.466C545.837 225.028 530.148 224.266 515.366 226.183Z" fill="#11556B"/>
<path d="M656.216 418.351L654.322 403.542L640.262 403.823L645.867 420.888L652.203 421.437L656.216 418.351Z" fill="#824D4D"/>
<path d="M654.941 408.383H641.76L642.86 411.734L654.941 408.383Z" fill="#231F20"/>
<path d="M638.882 408.383H659.179C653.992 390.923 648.804 372.635 643.617 355.175C641.828 349.153 640.009 343.061 636.811 337.654C630.778 327.453 620.127 320.614 610.176 314.178C611.691 309.063 610.579 303.522 608.712 298.524C606.846 293.527 604.241 288.814 602.637 283.726C598.5 275.5 597.5 273.5 590.5 258C583.5 242.5 583.5 238.5 578.14 223.951C572.361 223.81 566.629 223.688 560.973 224.881C555.317 226.075 549.778 228.74 546.208 233.286C542.305 238.257 541.168 244.979 541.911 251.255C542.654 257.531 545.104 263.47 547.773 269.199C558.767 292.799 574.578 309.539 587.817 326.234C593.328 335.821 631.382 396.212 638.882 408.383Z" fill="#11556B"/>
<path d="M649.323 420.074C647.181 419.865 645.303 418.053 645.017 415.92C644.913 415.147 644.998 414.351 644.821 413.592C644.644 412.832 644.094 412.07 643.317 412.005C642.232 411.915 641.559 413.113 641.077 414.089C639.155 417.989 635.804 421.164 631.807 422.875C629.536 423.847 627.099 424.351 624.708 424.975C622.318 425.599 619.917 426.368 617.896 427.789C615.875 429.21 614.26 431.38 614.028 433.84C613.771 436.569 615.297 439.283 617.541 440.859C621.754 440.892 621.972 441.071 624.708 440.892C627.444 440.713 633.314 440.782 633.314 440.782C636.254 440.892 637.282 440.61 639.754 440.892C642.254 440.782 644.216 440.375 646.106 440.892C651.254 440.892 655.2 440.376 657.824 436.859C659.844 434.152 660.516 430.627 660.347 427.253C660.178 423.879 659.238 420.598 658.304 417.352C658.001 416.299 657.607 415.178 656.446 414.846C655.834 414.671 655.234 414.72 654.828 415.241C653.935 416.388 654.058 417.922 652.855 418.946C651.899 419.761 650.576 420.196 649.323 420.074Z" fill="#211F20"/>
<path d="M450.509 181.489C448.146 179.932 446.326 177.566 445.429 174.882C445.126 173.975 444.924 173.018 445.001 172.064C445.078 171.11 446.506 167.485 448.267 168.005C449.171 169.236 451.405 171.283 452.914 171.043C452.295 170.293 452.148 167.929 453.338 168.006C455.686 169.037 456.162 172.411 455.321 174.563C464.559 176.827 473.674 179.593 482.612 182.846C485.626 183.943 488.589 185.256 490.484 187.844C492.812 184.476 496.194 182.005 499.549 179.659C504.406 176.264 509.347 172.99 514.368 169.842C517.913 175.576 520.84 181.768 522.962 188.167C517.995 193.1 513.033 198.375 506.979 201.89C500.925 205.404 493.641 207.337 486.844 205.659C481.541 204.35 477.009 201.006 472.633 197.738C465.449 192.373 457.997 186.422 450.509 181.489Z" fill="#824D4D"/>
<path d="M585.201 201.93C584.701 204.35 582.831 206.32 580.661 207.52C579.801 208 578.901 208.37 577.971 208.68C577.181 208.95 576.381 209.17 575.571 209.37H575.551C574.911 209.53 574.261 209.68 573.621 209.82C571.001 201.15 568.601 192.36 567.451 183.38C570.441 181.84 573.821 180.27 576.801 178.73C579.751 184.11 582.251 189.74 584.261 195.53C584.971 197.6 585.641 199.79 585.201 201.93Z" fill="#824D4D"/>
<path d="M539.64 164.914C544.875 164.914 549.615 159.294 552.067 152.79C549.692 149.18 547.592 135.74 547.949 129.696L533.715 141.12C533.723 141.282 533.731 141.46 533.731 141.656C533.74 143.086 533.544 145.095 533.041 147.436C532.675 149.088 531.692 151.546 530.968 153.444C530.297 158.655 534.404 164.914 539.64 164.914Z" fill="#824D4D"/>
<path d="M533.041 147.436C538.362 144.771 542.482 139.783 544.04 134.037C540.992 136.983 537.408 139.46 533.731 141.656C533.739 143.086 533.544 145.095 533.041 147.436Z" fill="#211F20"/>
<path d="M545.954 111.391C542.071 109.512 537.678 108.7 533.38 109.068C529.082 109.436 524.895 111.282 521.387 113.794C520.067 120.801 519.54 127.958 519.822 135.083C519.913 137.395 520.147 139.859 521.585 141.671C522.574 142.918 524.053 143.717 525.601 144.086C527.149 144.454 528.769 144.417 530.347 144.211C536.904 143.351 543.993 138.128 547.493 132.517L547.565 126.539C547.469 125.147 547.373 123.754 547.277 122.362L545.954 111.391Z" fill="#824D4D"/>
<path d="M542.893 128.229C542.893 131.33 545.407 133.843 548.507 133.843C551.608 133.843 554.121 131.329 554.121 128.229C554.121 125.128 551.607 122.615 548.507 122.615C545.407 122.615 542.893 125.128 542.893 128.229Z" fill="#824D4D"/>
<path d="M527.828 124.058C527.763 125.567 527.357 127.061 526.65 128.395C526.294 128.174 525.73 128.22 525.431 128.514C525.132 128.808 525.029 129.268 525.116 129.679C525.202 130.09 525.46 130.45 525.781 130.72C526.103 130.989 526.487 131.174 526.878 131.324" stroke="#231F20" stroke-width="0.4256" stroke-miterlimit="10" stroke-linecap="round" stroke-linejoin="round"/>
<path d="M532.121 125.402C532.121 126.086 532.529 126.64 533.032 126.64C533.535 126.64 533.943 126.086 533.943 125.402C533.943 124.719 533.535 124.164 533.032 124.164C532.529 124.165 532.121 124.719 532.121 125.402Z" fill="#231F20"/>
<path d="M523.367 125.435C523.367 126.119 523.775 126.673 524.278 126.673C524.781 126.673 525.189 126.119 525.189 125.435C525.189 124.752 524.781 124.198 524.278 124.198C523.775 124.198 523.367 124.752 523.367 125.435Z" fill="#231F20"/>
<path d="M533.671 122.017C532.796 121.843 531.898 121.843 531.009 121.773C530.722 121.75 530.404 121.704 530.223 121.481C530.084 121.31 530.06 121.077 530.047 120.858C530.029 120.568 530.023 120.262 530.153 120.002C530.322 119.663 530.699 119.464 531.076 119.422C531.453 119.38 531.831 119.472 532.192 119.589C533.319 119.954 534.365 120.565 535.236 121.367C535.585 121.688 535.911 122.047 536.11 122.478C536.173 122.615 536.224 122.763 536.218 122.914C536.215 123 536.176 123.21 536.071 123.235C535.965 123.26 535.857 123.091 535.792 123.029C535.603 122.847 535.39 122.692 535.164 122.56C534.702 122.29 534.19 122.12 533.671 122.017Z" fill="#231F20"/>
<path d="M523.427 121.92C524.302 121.746 525.2 121.746 526.09 121.676C526.377 121.653 526.695 121.607 526.876 121.384C527.015 121.213 527.039 120.98 527.052 120.76C527.07 120.47 527.076 120.164 526.946 119.904C526.777 119.565 526.4 119.366 526.023 119.324C525.646 119.282 525.268 119.374 524.907 119.491C523.78 119.856 522.734 120.467 521.863 121.268C521.514 121.589 521.188 121.948 520.989 122.379C520.926 122.516 520.875 122.664 520.881 122.815C520.884 122.901 520.923 123.111 521.028 123.136C521.133 123.161 521.242 122.992 521.307 122.93C521.496 122.748 521.709 122.593 521.936 122.461C522.396 122.193 522.908 122.023 523.427 121.92Z" fill="#231F20"/>
<path d="M532.442 131.928C531.245 133.304 529.452 134.142 527.629 134.177C527.834 134.827 528.425 135.398 529.066 135.63C529.707 135.861 530.454 135.776 531.027 135.407C531.561 135.063 531.925 134.501 532.146 133.905C532.367 133.31 532.353 132.557 532.442 131.928Z" fill="#211F20"/>
<path d="M518.312 123.235H527.063C527.063 123.235 526.863 128.077 522.221 128.077C517.579 128.077 518.312 123.235 518.312 123.235Z" stroke="white" stroke-width="0.5" stroke-miterlimit="10" stroke-linecap="round" stroke-linejoin="round"/>
<path d="M529.302 123.235H538.053C538.053 123.235 537.853 128.077 533.211 128.077C528.568 128.077 529.302 123.235 529.302 123.235Z" stroke="white" stroke-width="0.5" stroke-miterlimit="10" stroke-linecap="round" stroke-linejoin="round"/>
<path d="M527.062 123.235H529.302H538.053L545.42 123.759" stroke="white" stroke-width="0.5" stroke-miterlimit="10" stroke-linecap="round" stroke-linejoin="round"/>
<path d="M554.581 123.32C554.271 121.69 553.171 120.3 551.801 119.82C552.461 121.28 552.781 122.93 552.761 124.57C551.731 123.37 550.211 122.61 548.511 122.61C547.291 122.61 546.161 123 545.241 123.66C544.681 121.36 544.441 118.95 544.571 116.56C542.831 118.08 540.001 118.65 537.841 118.42C538.011 117.56 538.181 116.7 538.361 115.84C535.771 117.58 532.791 118.52 529.811 118.54C529.641 117.49 529.481 116.44 529.311 115.39C527.571 116.52 525.821 117.65 524.081 118.78C523.571 117.57 523.051 116.36 522.541 115.15L519.181 119.29C518.681 117.82 518.681 116.13 519.171 114.65C518.341 115.45 517.521 116.25 516.701 117.04C517.081 113.18 519.121 109.59 522.021 107.69C521.091 107.17 519.981 107.15 519.041 107.64C520.831 104.95 523.661 103.26 526.561 103.15C525.251 101.37 523.471 100.09 521.531 99.53C525.971 98.14 530.831 98.72 534.931 101.13C534.601 100.06 534.261 98.99 533.931 97.92C537.841 98.34 541.601 100.51 544.271 103.9C544.351 103 544.431 102.09 544.511 101.19C546.201 102.5 547.491 104.8 547.811 107.14C549.701 107.02 551.621 107.94 552.901 109.57C552.311 109.64 551.731 109.7 551.151 109.77C553.801 113.48 555.071 118.51 554.581 123.32Z" fill="#211F20"/>
<path d="M577.97 208.68C577.18 208.95 576.38 209.17 575.57 209.37H575.55L572.98 199.76L577.97 208.68Z" fill="#211F20"/>
<path d="M583 237.5C579.789 216.068 569.168 181.471 561.015 161.392C559.417 157.457 557.496 153.29 553.804 151.191C549.457 148.719 543.999 149.856 539.266 151.469C529.163 154.91 519.704 160.233 511.518 167.082C515.175 174.926 518.815 182.638 522.472 190.482C518.38 201.896 512.245 222.896 511.518 235C531.184 243.92 563.964 247.698 583 237.5Z" fill="#39A5C9"/>
<path d="M553.803 151.19C553.803 151.19 573.161 161.007 578.99 179.268L567.03 185.699L553.803 151.19Z" fill="#39A5C9"/>
<path d="M499.426 402.89H519.376" stroke="#211F20" stroke-width="0.5" stroke-miterlimit="10" stroke-linecap="round" stroke-linejoin="round"/>
<path d="M636.787 402.89H655.853" stroke="#211F20" stroke-width="0.5" stroke-miterlimit="10" stroke-linecap="round" stroke-linejoin="round"/>
<path d="M553.422 271.559C564.095 290.5 577.396 307.957 592.825 323.275C605.131 335.493 610.435 352.87 619.495 367.657C627.245 380.306 634.994 392.954 642.744 405.603" stroke="#211F20" stroke-width="0.5" stroke-miterlimit="10" stroke-linecap="round" stroke-linejoin="round"/>
<path d="M610.125 314.261C608.399 316.272 606.01 317.705 603.424 318.282" stroke="#211F20" stroke-width="0.5" stroke-miterlimit="10" stroke-linecap="round" stroke-linejoin="round"/>
<path d="M498.343 321.801C495.744 324.56 491.499 325.632 487.902 324.438" stroke="#211F20" stroke-width="0.5" stroke-miterlimit="10" stroke-linecap="round" stroke-linejoin="round"/>
<path d="M560.161 263.547C557.332 267.34 554.199 270.935 550.549 273.947" stroke="#211F20" stroke-width="0.5" stroke-miterlimit="10" stroke-linecap="round" stroke-linejoin="round"/>
<path d="M552.719 150.871C560.883 160.396 566.752 171.876 569.692 184.072" stroke="#211F20" stroke-width="0.5" stroke-miterlimit="10" stroke-linecap="round" stroke-linejoin="round"/>
<path d="M549.621 155.771C550.748 162.989 550.351 170.779 546.534 177.008C544.101 180.977 540.424 184.065 536.414 186.431C532.404 188.797 528.042 190.493 523.703 192.178" stroke="#211F20" stroke-width="0.5" stroke-miterlimit="10" stroke-linecap="round" stroke-linejoin="round"/>
<path d="M517.031 163.302C522.313 171.437 526.717 180.142 530.14 189.217" stroke="#211F20" stroke-width="0.5" stroke-miterlimit="10" stroke-linecap="round" stroke-linejoin="round"/>
<path d="M490.666 187.815C489.973 189.184 489.721 190.773 489.958 192.289" stroke="#211F20" stroke-width="0.5" stroke-miterlimit="10" stroke-linecap="round" stroke-linejoin="round"/>
<path d="M188.742 412.821V429.163L194.975 431.713L200.075 428.88L202.222 413.782L188.742 412.821Z" fill="#FFDCD2"/>
<path d="M185.815 414.687H205.967C205.967 414.687 232.38 332.503 234.728 316.655C237.076 300.807 201.758 209.928 201.758 209.928C190.604 212.461 179.396 215.473 168.241 218.006C165.127 236.369 168.767 255.491 176.453 272.456C184.139 289.421 195.664 304.406 208.459 317.94C201.614 325.17 196.139 333.953 193.03 343.411C189.576 353.92 189.067 365.134 188.588 376.185C188.035 388.935 186.368 401.939 185.815 414.687Z" fill="#FF9A00"/>
<path d="M197.832 428.755C195.669 429.924 192.698 429.284 191.208 427.328C190.264 426.088 189.699 424.291 188.185 423.921C187.264 423.696 186.283 424.139 185.617 424.813C184.951 425.487 184.537 426.365 184.137 427.224C183.283 429.055 182.422 430.908 182.016 432.887C181.61 434.866 181.695 437.015 182.663 438.789C183.981 441.205 187.5 442.5 189.484 442.848C191.469 443.196 194 443.765 196.5 443.765C199.303 443.765 201.75 443.667 204.5 443.765C209.988 443.961 216.386 444.189 221.861 443.765C223.67 443.625 225.474 443.047 226.897 441.923C228.321 440.799 229.329 439.098 229.418 437.286C229.573 434.131 226.972 431.41 224.056 430.195C221.139 428.981 217.903 428.879 214.779 428.408C211.655 427.937 208.382 426.95 206.383 424.504C205.276 423.15 203.731 420.187 201.481 421.39C200.094 422.132 200.65 424.805 200.148 426.073C199.706 427.193 198.898 428.179 197.832 428.755Z" fill="#1D1D1D"/>
<path d="M188.742 414.687H202.094L188.742 417.843V414.687Z" fill="#211F20"/>
<path d="M134.502 426.778L132.664 413.782L146.079 414.687L144.681 428.028L134.502 426.778Z" fill="#FFDCD2"/>
<path d="M150.403 414.687H128.168C125.496 381.376 124.093 347.88 125.856 314.509C127.651 280.529 127.339 247.996 131.689 212.539C144.242 212.182 158.891 213.178 171.338 214.852C173.591 249.481 164.654 280.009 155.5 314.509C157.5 321.5 158.476 326.5 159.682 331.691C161.611 340 161.035 343.135 160.654 348.884C159.192 370.888 153.014 391.846 150.403 414.687Z" fill="#FF9A00"/>
<path d="M128.893 439.039C130.366 435.235 131.838 431.431 133.311 427.627C132.479 425.758 133.651 423.483 135.414 422.446C137.177 421.409 139.482 421.581 141.284 422.548C143.217 423.585 144.657 425.498 145.12 427.642C146.029 431.846 149.957 434.973 150.835 439.184C143.554 439.653 136.161 439.694 128.893 439.039Z" fill="#1D1D1D"/>
<path d="M129.933 444C128.691 442.55 128.61 438.59 129.933 437.155C136.884 436.888 143.054 436.871 150.001 437.155C151.812 438.47 151.153 442.545 150.001 444C150.001 444 137.343 444.099 129.933 444Z" fill="#1D1D1D"/>
<path d="M132.793 414.687H146.08L133.297 418.252L132.793 414.687Z" fill="#211F20"/>
<path d="M138.959 139.595C129.943 152.679 120.739 165.987 116.163 181.203C114.735 181.678 113.537 182.756 113.031 184.173C112.525 185.591 112.708 187.237 113.513 188.508C112.775 188.66 112.196 189.296 111.872 189.975C111.547 190.654 111.463 191.424 111.459 192.177C111.45 194.152 111.975 196.127 112.963 197.837C117.263 196.348 121.769 194.839 125.754 192.641C129.739 190.443 133.412 187.521 135.896 183.709C138.408 179.852 139.587 175.283 140.345 170.743C142.059 160.468 141.175 149.774 138.959 139.595Z" fill="white"/>
<path d="M190.508 131.617C199.61 140.267 207.594 150.149 213.704 161.119C214.897 160.961 216.349 161.418 217.063 162.386C217.778 163.354 217.919 164.716 217.418 165.81C218.874 166.139 220.198 167.616 220.495 169.079C220.711 170.141 220.386 171.39 219.453 171.941C211.033 171.87 202.898 170.622 195.403 166.786C194.562 155.416 192.711 142.803 190.508 131.617Z" fill="white"/>
<path d="M201.757 209.928C192.857 215.408 181.218 218.148 168.598 218.728C156.668 219.288 142.698 217.158 131.688 212.538C134.007 188.208 136.637 163.918 138.957 139.598C142.717 137.748 146.857 136.288 151.047 135.328C152.797 134.918 154.567 134.598 156.307 134.378L169.827 146.498L176.518 132.718C177.988 132.718 179.438 132.578 180.878 132.398C184.088 132.008 187.247 131.398 190.507 131.618C195.637 157.438 199.587 183.688 201.757 209.928Z" fill="white"/>
<path d="M168.011 153.579C169.62 153.276 170.951 153.294 172.56 152.992C179.797 170.427 183.854 188.803 183.611 207.679C181.185 210.416 179.142 212.293 176.173 214.851C173.359 213.775 169.368 211.796 166.854 209.961C168.512 191.093 169.421 172.467 168.011 153.579Z" fill="#211F20"/>
<path d="M219.488 171.995C219.082 175.105 218.515 178.235 217.218 181.091C215.922 183.947 213.822 186.536 210.995 187.894C207.673 189.49 203.794 189.232 200.126 188.861C182.702 187.098 165.459 182.88 148.754 177.623C151.202 172.658 156.155 170.197 161.378 168.366C166.601 166.535 172.219 166.175 177.754 166.112C191.702 165.953 205.948 168.638 219.488 171.995Z" fill="#FFDCD2"/>
<path d="M179.459 183.42C179.209 183.55 178.969 183.68 178.719 183.82C176.819 184.83 174.939 185.93 173.059 187.04C170.769 188.39 168.489 189.74 166.179 190.95C156.849 195.84 147.519 200.73 137.959 205.15C134.679 206.66 131.329 208.13 127.759 208.72C124.199 209.31 120.349 208.94 117.319 206.98C114.279 205.02 111.229 199.8 113.109 196.71C116.739 190.79 123.169 187.22 129.509 184.38C142.329 178.65 156.009 174.84 169.949 173.14C173.659 175.24 177.379 179.69 179.459 183.42Z" fill="#FFDCD2"/>
<path d="M176.48 185.05C175.34 185.7 174.2 186.37 173.06 187.04C170.66 185.61 165.85 183.35 162.1 181.54C166.86 182.84 171.66 184.02 176.48 185.05Z" fill="#211F20"/>
<path d="M198.906 168.319C196.198 165.04 192.104 162.946 187.861 162.668C183.618 162.39 179.286 163.933 176.174 166.831C183.483 168.401 191.443 168.785 198.906 168.319Z" fill="#FFDCD2"/>
<path d="M164.754 152.19C166.511 153.938 168.744 155.202 171.147 155.809C173.059 154.819 174.61 153.191 175.322 151.158L169.829 146.498L164.754 152.19Z" fill="#211F20"/>
<path d="M168.732 146.499C163.497 146.499 158.756 140.879 156.305 134.375C158.68 130.766 160.781 117.325 160.424 111.281L174.658 122.705C174.65 122.867 174.641 123.045 174.641 123.241C174.633 124.671 174.828 126.68 175.331 129.021C175.697 130.673 176.68 133.131 177.404 135.029C178.075 140.24 173.968 146.499 168.732 146.499Z" fill="#FFDCD2"/>
<path d="M175.329 129.022C170.008 126.357 165.888 121.369 164.33 115.623C167.378 118.569 170.962 121.046 174.639 123.242C174.631 124.672 174.827 126.681 175.329 129.022Z" fill="#211F20"/>
<path d="M162.418 92.976C166.301 91.097 170.694 90.285 174.992 90.653C179.29 91.021 183.477 92.867 186.985 95.379C188.305 102.386 188.832 109.543 188.55 116.668C188.459 118.98 188.225 121.444 186.787 123.256C185.798 124.503 184.319 125.303 182.771 125.671C181.223 126.039 179.603 126.002 178.025 125.796C171.468 124.936 164.379 119.713 160.879 114.102L160.807 108.124C160.903 106.731 160.999 105.339 161.095 103.947L162.418 92.976Z" fill="#FFDCD2"/>
<path d="M187.678 99.59C186.268 100.83 183.628 99.98 183.218 98.15C182.048 99.17 180.398 99.62 178.868 99.33C177.338 99.05 175.968 98.03 175.248 96.65C174.368 98.05 172.758 98.96 171.098 99C169.448 99.03 167.798 98.19 166.848 96.84C165.368 97.72 163.528 97.81 161.898 97.28L162.418 92.98C166.298 91.1 170.688 90.29 174.988 90.65C179.288 91.02 183.478 92.87 186.988 95.38C187.248 96.78 187.488 98.18 187.678 99.59Z" fill="#FFDCD2"/>
<path d="M165.48 109.814C165.48 112.915 162.966 115.428 159.866 115.428C156.765 115.428 154.252 112.914 154.252 109.814C154.252 106.713 156.766 104.2 159.866 104.2C162.966 104.2 165.48 106.714 165.48 109.814Z" fill="#FFDCD2"/>
<path d="M180.545 105.643C180.61 107.152 181.016 108.645 181.723 109.98C182.079 109.759 182.643 109.805 182.942 110.099C183.241 110.393 183.344 110.853 183.257 111.264C183.171 111.674 182.913 112.035 182.592 112.305C182.27 112.574 181.886 112.759 181.494 112.909" stroke="#231F20" stroke-width="0.4256" stroke-miterlimit="10" stroke-linecap="round" stroke-linejoin="round"/>
<path d="M176.252 106.988C176.252 107.672 175.844 108.226 175.341 108.226C174.838 108.226 174.43 107.672 174.43 106.988C174.43 106.304 174.838 105.75 175.341 105.75C175.844 105.75 176.252 106.304 176.252 106.988Z" fill="#231F20"/>
<path d="M185.006 107.021C185.006 107.705 184.598 108.259 184.095 108.259C183.592 108.259 183.184 107.705 183.184 107.021C183.184 106.338 183.592 105.783 184.095 105.783C184.598 105.783 185.006 106.337 185.006 107.021Z" fill="#231F20"/>
<path d="M172.771 113.459C173.632 115.322 175.093 116.902 176.884 117.905C178.675 118.908 180.786 119.328 182.824 119.089" stroke="#231F20" stroke-width="0.4256" stroke-miterlimit="10" stroke-linecap="round" stroke-linejoin="round"/>
<path d="M171.208 103.3C171.352 103.474 171.603 103.507 171.829 103.516C173.411 103.579 175.009 103.087 176.283 102.148C176.508 101.982 176.727 101.798 176.874 101.561C177.021 101.323 177.088 101.023 176.992 100.76C176.89 100.48 176.618 100.288 176.33 100.213C176.042 100.138 175.738 100.164 175.443 100.209C174.353 100.378 173.336 100.819 172.441 101.458C172.023 101.757 170.701 102.686 171.208 103.3Z" fill="#231F20"/>
<path d="M184.811 103.458C185.041 103.562 185.283 103.654 185.535 103.656C185.787 103.658 186.053 103.554 186.186 103.341C186.306 103.149 186.301 102.899 186.22 102.687C186.139 102.476 185.99 102.298 185.832 102.136C185.172 101.458 184.303 100.986 183.375 100.803C183.099 100.749 182.791 100.725 182.556 100.88C181.483 101.587 184.339 103.245 184.811 103.458Z" fill="#231F20"/>
<path d="M193.499 100.7C194.989 102.03 195.679 104.19 195.229 106.13C194.789 108.06 193.239 109.7 191.339 110.26C191.669 110.26 191.339 112.61 191.259 112.82C190.929 113.63 190.299 114.35 189.479 114.69C189.139 114.83 188.849 114.91 188.599 114.93C188.709 109.8 188.399 104.67 187.679 99.59C186.269 100.83 183.629 99.98 183.219 98.15C182.049 99.17 180.399 99.62 178.869 99.33C177.339 99.05 175.969 98.03 175.249 96.65C174.369 98.05 172.759 98.96 171.099 99C169.449 99.03 167.799 98.19 166.849 96.84C165.369 97.72 163.529 97.81 161.899 97.28C160.379 96.8 159.029 95.77 158.309 94.34C155.619 94.89 152.529 94.09 150.929 91.85C149.339 89.62 149.889 85.96 152.359 84.77C152.369 83.07 153.309 81.41 154.759 80.52C156.209 79.64 158.109 79.56 159.629 80.33C159.809 78.34 161.169 76.51 163.009 75.75C164.849 75 167.099 75.34 168.629 76.62C170.099 74.98 172.429 74.15 174.609 74.5C176.779 74.84 178.739 76.35 179.639 78.36C181.409 77.12 183.919 77.06 185.759 78.2C187.589 79.35 188.629 81.65 188.279 83.78C190.309 83.26 192.619 84.24 193.659 86.06C194.699 87.87 194.369 90.37 192.889 91.85C194.759 92.35 196.219 94.12 196.349 96.06C196.489 97.99 195.289 99.95 193.499 100.7Z" fill="#7A4321"/>
<path d="M179.499 106.715C179.499 109.516 177.228 111.787 174.427 111.787C171.626 111.787 169.355 109.516 169.355 106.715C169.355 103.914 171.626 101.643 174.427 101.643C177.228 101.644 179.499 103.914 179.499 106.715Z" stroke="white" stroke-width="0.4647" stroke-miterlimit="10" stroke-linecap="round" stroke-linejoin="round"/>
<path d="M187.517 111.787C190.319 111.787 192.589 109.516 192.589 106.715C192.589 103.914 190.319 101.643 187.517 101.643C184.716 101.643 182.445 103.914 182.445 106.715C182.445 109.516 184.716 111.787 187.517 111.787Z" stroke="white" stroke-width="0.4647" stroke-miterlimit="10" stroke-linecap="round" stroke-linejoin="round"/>
<path d="M182.527 107.041C182.144 106.587 181.55 106.32 180.957 106.334C180.364 106.348 179.783 106.645 179.424 107.118" stroke="white" stroke-width="0.4647" stroke-miterlimit="10" stroke-linecap="round" stroke-linejoin="round"/>
<path d="M169.503 107.774C168.038 107.185 166.454 106.895 164.875 106.926" stroke="white" stroke-width="0.4647" stroke-miterlimit="10" stroke-linecap="round" stroke-linejoin="round"/>
<path d="M166.609 100.5C165.879 101.76 164.449 102.59 162.999 102.59C163.819 103.37 164.079 104.66 163.689 105.71C162.689 104.77 161.349 104.2 159.869 104.2C156.769 104.2 154.249 106.71 154.249 109.81C154.249 112.91 156.769 115.43 159.869 115.43C160.639 115.43 161.369 115.28 162.029 115C162.109 115.93 161.799 116.9 161.169 117.59C162.009 118.88 161.419 120.86 160.019 121.48C158.609 122.11 156.749 121.22 156.349 119.74C154.949 120.31 153.189 119.84 152.259 118.64C151.339 117.43 151.339 115.61 152.259 114.4C150.289 113.12 148.919 110.96 148.589 108.63C148.259 106.3 148.979 103.85 150.519 102.07C148.609 101.1 147.469 98.8 147.859 96.69C148.239 94.59 150.119 92.84 152.259 92.61C154.759 92.35 158.199 91.23 160.609 91.94C163.019 92.65 165.329 94.16 166.599 96.34C167.329 97.59 167.329 99.24 166.609 100.5Z" fill="#7A4321"/>
<path d="M169.829 146.498L164.819 152.498L151.049 135.328C152.799 134.918 154.569 134.598 156.309 134.378L169.829 146.498Z" fill="#EBE9E7"/>
<path d="M180.878 132.398L175.328 151.778L169.828 146.498L176.518 132.718C177.988 132.718 179.438 132.578 180.878 132.398Z" fill="#EBE9E7"/>
<path d="M198.351 167.68C192.431 166.78 186.471 166.2 180.551 166.12C185.691 165.13 191.541 165.44 196.851 166.27C197.381 166.7 197.881 167.17 198.351 167.68Z" fill="#211F20"/>
<path d="M126.135 316.646C130.049 317.506 134.096 317.755 138.085 317.381" stroke="#211F20" stroke-width="0.5" stroke-miterlimit="10" stroke-linecap="round" stroke-linejoin="round"/>
<path d="M223.871 316.975C227.389 316.638 230.868 315.889 234.214 314.747" stroke="#211F20" stroke-width="0.5" stroke-miterlimit="10" stroke-linecap="round" stroke-linejoin="round"/>
<path d="M140.174 216.244C140.077 216.19 139.981 216.137 139.884 216.083C139.967 221.808 140.018 227.711 137.867 233.017C137.32 234.367 136.615 235.686 135.548 236.678C134.481 237.669 133.003 238.296 131.564 238.073" stroke="#211F20" stroke-width="0.5" stroke-miterlimit="10" stroke-linecap="round" stroke-linejoin="round"/>
<path d="M128.445 410.474C134.402 410.264 140.364 410.214 146.321 410.004H150.791" stroke="#211F20" stroke-width="0.5" stroke-miterlimit="10" stroke-linecap="round" stroke-linejoin="round"/>
<path d="M187.08 409.734H206.041" stroke="#211F20" stroke-width="0.5" stroke-miterlimit="10" stroke-linecap="round" stroke-linejoin="round"/>
<path d="M194.771 214.81C196.483 219.256 198.194 223.702 199.905 228.147C200.599 229.95 201.364 231.849 202.908 233.009C204.452 234.17 207.029 234.175 208.02 232.517" stroke="#211F20" stroke-width="0.5" stroke-miterlimit="10" stroke-linecap="round" stroke-linejoin="round"/>
<path d="M114.527 188.288C116.879 187.157 119.41 186.397 121.996 186.047" stroke="#211F20" stroke-width="0.5" stroke-miterlimit="10" stroke-linecap="round" stroke-linejoin="round"/>
<path d="M117.377 180.958C123.783 177.444 131.555 176.504 138.615 178.389" stroke="#211F20" stroke-width="0.5" stroke-miterlimit="10" stroke-linecap="round" stroke-linejoin="round"/>
<path d="M140.055 140.684C143.84 152.916 144.832 166.003 142.931 178.665" stroke="#211F20" stroke-width="0.5" stroke-miterlimit="10" stroke-linecap="round" stroke-linejoin="round"/>
<path d="M190.248 132.241C194.947 142.185 197.101 153.32 196.45 164.299" stroke="#211F20" stroke-width="0.5" stroke-miterlimit="10" stroke-linecap="round" stroke-linejoin="round"/>
<path d="M217.034 166.128C215.207 166.99 213.505 168.117 211.998 169.463" stroke="#211F20" stroke-width="0.5" stroke-miterlimit="10" stroke-linecap="round" stroke-linejoin="round"/>
<path d="M213.465 161.162C208.675 162.362 204.122 164.498 200.137 167.414" stroke="#211F20" stroke-width="0.5" stroke-miterlimit="10" stroke-linecap="round" stroke-linejoin="round"/>
</svg>
